<svg xmlns="http://www.w3.org/2000/svg" width="24" height="24" viewBox="0 0 24 24">
    <g fill="none" fill-rule="evenodd">
        <g>
            <g>
                <g>
                    <path fill="#FFF" d="M0 0H24V24H0z" transform="translate(-638 -309) translate(457 293) translate(181 16)"/>
                    <g fill="#656566" fill-rule="nonzero">
                        <path d="M10 0C4.486 0 0 4.486 0 10s4.486 10 10 10 10-4.486 10-10S15.514 0 10 0zm4.375 10.833h-3.542v3.542c0 .46-.373.833-.833.833-.46 0-.833-.373-.833-.833v-3.542H5.625c-.46 0-.833-.373-.833-.833 0-.46.373-.833.833-.833h3.542V5.625c0-.46.373-.833.833-.833.46 0 .833.373.833.833v3.542h3.542c.46 0 .833.373.833.833 0 .46-.373.833-.833.833z" transform="translate(-638 -309) translate(457 293) translate(181 16) translate(2 2)"/>
                    </g>
                </g>
            </g>
        </g>
    </g>
</svg>
