<svg xmlns="http://www.w3.org/2000/svg" width="190" height="56" viewBox="0 0 190 56">
    <g fill="none" fill-rule="evenodd">
        <rect width="190" height="55.233" fill="#FFF" rx="10"/>
        <path fill="#656582" d="M35.005 17.95c3.582 0 5.873 3.465 5.873 3.465s-3.495 1.896-3.495 6.014c0 4.888 4.39 6.31 4.39 6.31s-3.465 8.22-7.355 8.22c-2.188 0-2.334-1.258-5.241-1.258-2.525 0-3.376 1.258-5.3 1.258-3.67 0-8.412-8.013-8.412-14.53 0-6.769 4.801-9.48 7.81-9.48 2.643 0 3.744 1.555 5.872 1.555 1.792 0 3.201-1.555 5.858-1.555zm-.616-6.903c.528 3.317-2.481 7.42-6.078 7.287-.529-4.221 3.347-7.065 6.078-7.287z"/>
        <text fill="#656582" font-family="HelveticaNeue, Helvetica Neue" font-size="24">
            <tspan x="54.128" y="35.244">App Store</tspan>
        </text>
    </g>
</svg>
