<svg xmlns="http://www.w3.org/2000/svg" width="20" height="20" viewBox="0 0 20 20">
    <g fill="none" fill-rule="evenodd">
        <g>
            <g>
                <g>
                    <path d="M0 0H20V20H0z" transform="translate(-247 -457) translate(130 377) translate(117 80)"/>
                    <g fill="#67818C" fill-rule="nonzero">
                        <path d="M13.5 1.25h-.813V.625c0-.345-.28-.625-.624-.625-.346 0-.626.28-.626.625v.625H8.595V.625C8.594.28 8.314 0 7.969 0s-.625.28-.625.625v.625H4.53V.625C4.531.28 4.251 0 3.906 0s-.625.28-.625.625v.625H2.5C1.121 1.25 0 2.372 0 3.75v9.75C0 14.879 1.121 16 2.5 16h4.781c.345 0 .625-.28.625-.625s-.28-.625-.625-.625H2.5c-.69 0-1.25-.56-1.25-1.25V3.75c0-.69.56-1.25 1.25-1.25h.781v.625c0 .345.28.625.625.625s.625-.28.625-.625V2.5h2.813v.625c0 .345.28.625.625.625s.625-.28.625-.625V2.5h2.844v.625c0 .345.28.625.624.625.346 0 .626-.28.626-.625V2.5h.812c.69 0 1.25.56 1.25 1.25v3.563c0 .345.28.625.625.625s.625-.28.625-.625V3.75c0-1.378-1.121-2.5-2.5-2.5z" transform="translate(-247 -457) translate(130 377) translate(117 80) translate(2 2)"/>
                        <path d="M12.219 8.438c-2.085 0-3.781 1.696-3.781 3.78 0 2.086 1.696 3.782 3.78 3.782C14.305 16 16 14.304 16 12.219s-1.696-3.781-3.781-3.781zm0 6.312c-1.396 0-2.531-1.136-2.531-2.531 0-1.396 1.135-2.531 2.53-2.531 1.396 0 2.532 1.135 2.532 2.53 0 1.396-1.136 2.532-2.531 2.532z" transform="translate(-247 -457) translate(130 377) translate(117 80) translate(2 2)"/>
                        <path d="M13.125 11.594h-.281v-.656c0-.346-.28-.626-.625-.626s-.625.28-.625.626v1.28c0 .346.28.626.625.626h.906c.345 0 .625-.28.625-.625s-.28-.625-.625-.625z" transform="translate(-247 -457) translate(130 377) translate(117 80) translate(2 2)"/>
                    </g>
                </g>
            </g>
        </g>
    </g>
</svg>
