<svg xmlns="http://www.w3.org/2000/svg" xmlns:xlink="http://www.w3.org/1999/xlink" width="24" height="24" viewBox="0 0 24 24">
    <defs>
        <path id="n228qey95a" d="M0 0H24V24H0z"/>
    </defs>
    <g fill="none" fill-rule="evenodd">
        <g>
            <g>
                <g transform="translate(-159 -353) translate(129 335) translate(30 18)">
                    <mask id="hsrrm652wb" fill="#fff">
                        <use xlink:href="#n228qey95a"/>
                    </mask>
                    <path fill="#99ABB2" stroke="#FFF" stroke-dasharray="0 0" stroke-width=".4" d="M11.763 15.2c-1.767 0-3.2-1.433-3.2-3.2 0-1.767 1.433-3.2 3.2-3.2 1.768 0 3.2 1.433 3.2 3.2 0 1.767-1.432 3.2-3.2 3.2zm0-1.6c-.883 0-1.6-.716-1.6-1.6 0-.884.717-1.6 1.6-1.6.884 0 1.6.716 1.6 1.6 0 .884-.716 1.6-1.6 1.6zm-6.2-6.861c.188-.326.578-.476.936-.362l1.47.468c.195-.145.399-.277.609-.397.2-.115.406-.22.618-.312l.33-1.507c.08-.367.405-.629.781-.629h2.913c.376 0 .7.262.781.629l.33 1.507c.225.099.444.21.655.333.197.115.388.24.573.376l1.47-.468c.357-.114.747.036.935.362l1.456 2.522c.188.326.124.738-.154.991l-1.14 1.04c.026.235.039.471.039.707s-.013.473-.04.71l1.14 1.039c.279.253.343.665.155.991l-1.456 2.522c-.188.326-.578.476-.936.362l-1.47-.468c-.186.138-.38.264-.58.38-.208.122-.424.232-.647.33L14 19.37c-.08.367-.405.629-.781.629h-2.913c-.376 0-.7-.262-.781-.629l-.33-1.507c-.21-.092-.414-.195-.611-.308-.213-.121-.418-.255-.617-.4l-1.47.467c-.357.114-.747-.036-.935-.362l-1.456-2.522c-.188-.326-.124-.738.154-.991l1.14-1.04c-.026-.235-.039-.472-.039-.708s.013-.473.04-.709l-1.14-1.039c-.279-.253-.343-.665-.155-.991l1.456-2.522zm7.379.535l.746.327c.17.074.333.158.491.25l.003.001c.147.086.29.18.429.282l.656.482 1.633-.52.812 1.407-1.266 1.154.09.81c.019.177.029.354.029.53 0 .181-.01.358-.03.536l-.09.81 1.267 1.154-.812 1.406-1.633-.52-.656.483c-.14.103-.285.198-.435.285-.159.092-.32.175-.488.248l-.746.327-.366 1.674H10.95l-.366-1.674-.746-.327c-.157-.069-.31-.146-.459-.231l-.002-.002c-.16-.09-.313-.19-.462-.3l-.656-.482-1.633.52-.812-1.407 1.266-1.154-.09-.81c-.02-.177-.029-.355-.029-.532 0-.18.01-.357.03-.534l.09-.81-1.267-1.154.812-1.406 1.633.52.656-.483c.147-.108.3-.207.457-.297l.002-.002c.15-.086.305-.164.464-.234l.746-.327.366-1.674h1.625l.366 1.674z" mask="url(#hsrrm652wb)"/>
                </g>
            </g>
        </g>
    </g>
</svg>
