<svg xmlns="http://www.w3.org/2000/svg" xmlns:xlink="http://www.w3.org/1999/xlink" width="17" height="16" viewBox="0 0 17 16">
    <defs>
        <path id="0ozb92iw0a" d="M0 0H24V24H0z"/>
    </defs>
    <g fill="none" fill-rule="evenodd">
        <g>
            <g>
                <g transform="translate(-162 -238) translate(129 216) translate(30 18)">
                    <mask id="2j6gtnunlb" fill="#fff">
                        <use xlink:href="#0ozb92iw0a"/>
                    </mask>
                    <g fill="#99ABB2" fill-rule="nonzero" stroke="#99ABB2" stroke-width=".2" mask="url(#2j6gtnunlb)">
                        <g>
                            <path d="M15.357 6.89L8.771.416c-.565-.555-1.484-.555-2.049 0L.136 6.89c-.18.176-.182.463-.006.642s.463.181.642.005l.513-.503v5.168c0 1.09.886 1.975 1.975 1.975h8.973c1.09 0 1.976-.886 1.976-1.975V7.034l.512.503c.088.087.203.13.318.13.118 0 .235-.045.324-.135.176-.179.173-.466-.006-.642zm-2.056 5.312c0 .589-.48 1.068-1.068 1.068H3.26c-.589 0-1.068-.48-1.068-1.068v-6.06L7.36 1.063c.053-.053.115-.092.181-.118.182-.073.395-.046.553.08l.042.038L13.3 6.14v6.06h0z" transform="translate(4 5)"/>
                            <path d="M6.383 5.303v1.46H4.922c-.25 0-.454.204-.454.454V9.03c0 .25.203.454.454.454h1.46v1.46c0 .251.204.454.455.454h1.811c.25 0 .454-.203.454-.454v-1.46h1.46c.251 0 .455-.203.455-.454V7.217c0-.25-.204-.454-.454-.454h-1.46v-1.46c0-.25-.204-.454-.455-.454H6.837c-.251 0-.454.203-.454.454zm.908 1.914v-1.46h.903v1.46c0 .251.203.454.454.454h1.46v.904h-1.46c-.25 0-.454.203-.454.454v1.46h-.903V9.03c0-.25-.204-.454-.454-.454H5.376v-.904h1.46c.251 0 .455-.203.455-.454h0z" transform="translate(4 5)"/>
                        </g>
                    </g>
                </g>
            </g>
        </g>
    </g>
</svg>
