<svg xmlns="http://www.w3.org/2000/svg" xmlns:xlink="http://www.w3.org/1999/xlink" width="16" height="18" viewBox="0 0 16 18">
    <defs>
        <path id="f46h1y6n3a" d="M0 0H20V20H0z"/>
    </defs>
    <g fill="none" fill-rule="evenodd">
        <g>
            <g>
                <g>
                    <g transform="translate(-1261 -391) translate(160 280) translate(1071 110) translate(28)">
                        <mask id="hm6mdomnmb" fill="#fff">
                            <use xlink:href="#f46h1y6n3a"/>
                        </mask>
                        <path fill="#0074A3" d="M7.5 1.667c-.92 0-1.667.747-1.667 1.666v.834H2.5v1.666h1.667v10.834c0 .919.747 1.666 1.666 1.666h8.334c.919 0 1.666-.747 1.666-1.666V5.833H17.5V4.167h-3.333v-.834c0-.919-.748-1.666-1.667-1.666h-5zm5 1.666v.834h-5v-.834h5zM5.833 16.667V5.833h8.334v10.834H5.833z" mask="url(#hm6mdomnmb)"/>
                    </g>
                </g>
            </g>
        </g>
    </g>
</svg>
