<svg xmlns="http://www.w3.org/2000/svg" xmlns:xlink="http://www.w3.org/1999/xlink" width="24" height="24" viewBox="0 0 24 24">
    <defs>
        <path id="h36g7v17ea" d="M0 0H24V24H0z"/>
    </defs>
    <g fill="none" fill-rule="evenodd">
        <g>
            <g>
                <g transform="translate(-159 -413) translate(129 395) translate(30 18)">
                    <mask id="fx0g83wzxb" fill="#fff">
                        <use xlink:href="#h36g7v17ea"/>
                    </mask>
                    <g fill="#99ABB2" stroke="#99ABB2" stroke-dasharray="0 0" stroke-width=".2" mask="url(#fx0g83wzxb)">
                        <path d="M1.636 9.98c-.037.973.333 1.762 1.013 2.167.29.172.615.258.94.258.325 0 .65-.086.94-.258.681-.405 1.05-1.194 1.014-2.166-.045-1.21-1.037-1.796-1.939-1.828h-.03c-.902.032-1.893.617-1.938 1.828zm.86.033c.026-.703.602-.977 1.093-.999.492.022 1.067.296 1.094.999.024.647-.192 1.155-.593 1.393-.309.184-.692.184-1.001 0-.401-.238-.617-.746-.593-1.393zm6.006-.032c-.036.972.333 1.761 1.013 2.166.29.172.616.258.94.258.326 0 .651-.086.94-.258.681-.405 1.05-1.194 1.014-2.166-.045-1.21-1.036-1.796-1.938-1.828h-.03c-.902.032-1.894.617-1.939 1.828zm.86.032c.027-.703.602-.977 1.094-.999.491.022 1.067.296 1.093.999.024.647-.192 1.155-.593 1.393-.309.184-.692.184-1 0-.402-.238-.618-.746-.594-1.393zm-3.28-5.987c.29.172.615.258.94.258.326 0 .65-.086.94-.258.681-.404 1.05-1.194 1.014-2.166C8.931.65 7.94.064 7.037.033h-.03C6.105.064 5.114.65 5.07 1.86c-.037.972.333 1.762 1.013 2.166zM5.93 1.892c.026-.702.602-.976 1.093-.998.492.022 1.067.296 1.094.998.024.648-.192 1.156-.593 1.394-.309.183-.692.183-1.001 0-.401-.238-.617-.746-.593-1.394zm.376 15.002c.043.234-.111.459-.345.502-.026.005-.053.008-.079.008-.203 0-.384-.144-.423-.352l-.38-2.047c-.13-.705-.841-1.018-1.489-1.018-.647 0-1.359.321-1.49 1.026l-.285 1.55h1.96c.238 0 .43.193.43.43 0 .239-.192.431-.43.431H1.297c-.128 0-.25-.067-.331-.165-.082-.099-.116-.239-.092-.365l.38-2.049c.22-1.19 1.331-1.724 2.335-1.724s2.116.533 2.337 1.724l.379 2.05zm.717-10.949c-.647 0-1.359.316-1.49 1.02-.042.234-.267.388-.5.345-.235-.043-.389-.268-.346-.501.22-1.192 1.332-1.725 2.336-1.725 1.004 0 2.116.533 2.337 1.725.043.233-.111.458-.345.501-.027.005-.053.008-.08.008-.203 0-.383-.145-.422-.353-.13-.705-.842-1.02-1.49-1.02zm5.805 11.451c-.027.005-.053.008-.08.008-.203 0-.384-.144-.422-.352l-.38-2.047c-.13-.705-.842-1.018-1.49-1.018-.647 0-1.358.321-1.489 1.026l-.285 1.55h1.96c.237 0 .43.193.43.43 0 .239-.193.431-.43.431H8.163c-.128 0-.25-.067-.33-.165-.083-.099-.116-.239-.093-.365l.38-2.049c.22-1.191 1.332-1.724 2.336-1.724 1.004 0 2.115.533 2.336 1.724l.38 2.05c.043.233-.112.458-.345.501z" transform="translate(5 3)"/>
                    </g>
                </g>
            </g>
        </g>
    </g>
</svg>
