<svg xmlns="http://www.w3.org/2000/svg" width="20" height="32" viewBox="0 0 20 32">
    <g fill="none" fill-rule="nonzero">
        <path fill="#656582" stroke="#656582" d="M2.73 1C1.779 1 1 1.784 1 2.744v26.512C1 30.216 1.778 31 2.73 31h14.54c.952 0 1.73-.784 1.73-1.744V2.744C19 1.784 18.222 1 17.27 1H2.73zm0 .698h14.54c.58 0 1.038.46 1.038 1.046v1.744H1.692V2.744c0-.586.457-1.046 1.039-1.046zM1.693 5.186h16.616v20.233H1.692V5.186zm0 20.93h16.616v3.14c0 .586-.457 1.046-1.039 1.046H2.731c-.582 0-1.039-.46-1.039-1.046v-3.14zm8.63 1.514c-.987 0-1.81.18-1.81.356 0 .175.823.355 1.81.355.988 0 1.85-.18 1.85-.355s-.862-.356-1.85-.356z"/>
        <path fill="#07E2BD" stroke="#07E2BD" stroke-width=".5" d="M14.628 12.087c-.686-.824-1.53-1.09-2.262-1.087-.897.003-1.64.366-1.916.518-.317-.139-1.229-.498-2.27-.5-.842-.003-1.788.247-2.505 1.065-.482.546-.677 1.13-.675 1.684.002.76.345 1.454.713 2.022.366.564.773 1.025.896 1.244.202.332.302 1.162.488 1.896.097.37.219.725.424 1.009.197.28.514.49.912.49.23.003.43-.083.57-.218.472-.475.494-1.348.61-2.122.05-.384.11-.74.206-.972a.646.646 0 0 1 .15-.24.214.214 0 0 1 .156-.06c.082.002.126.022.19.082.11.103.218.365.292.695.117.497.183 1.133.332 1.665.076.267.171.511.328.708a.85.85 0 0 0 .682.338.984.984 0 0 0 .875-.472c.255-.412.305-.958.376-1.492.064-.532.145-1.05.34-1.337.412-.658 1.733-1.805 1.746-3.259.001-.534-.192-1.101-.658-1.657zm-1.481 4.673c-.362.57-.367 1.381-.478 2.043-.052.33-.127.616-.24.791-.12.174-.227.251-.48.259-.197-.003-.318-.11-.455-.407-.192-.437-.271-1.17-.4-1.797-.066-.316-.144-.608-.282-.848-.129-.236-.37-.44-.687-.437a.695.695 0 0 0-.522.23c-.218.241-.304.573-.376.943-.101.555-.143 1.209-.259 1.705-.056.246-.134.45-.223.57-.095.12-.164.16-.3.165-.244-.004-.392-.098-.545-.3-.225-.303-.365-.849-.475-1.396-.116-.55-.199-1.092-.41-1.469-.177-.3-.561-.726-.909-1.264-.348-.534-.643-1.159-.641-1.781.001-.455.147-.915.563-1.39.615-.697 1.395-.905 2.151-.907.573 0 1.123.126 1.526.254.202.063.367.127.48.174.113.048.171.077.172.077a.238.238 0 0 0 .232-.013s.045-.028.135-.076c.272-.145.923-.436 1.641-.434.627.004 1.297.203 1.902.92.409.491.552.942.554 1.372.013 1.178-1.175 2.275-1.674 3.016z"/>
    </g>
</svg>
