<svg xmlns="http://www.w3.org/2000/svg" width="377" height="198" viewBox="0 0 377 198">
    <g fill="none" fill-rule="evenodd">
        <g>
            <g>
                <path d="M0 0H377V198H0z" transform="translate(-959 -152) translate(959 152)"/>
                <g>
                    <path fill="#E4F6FE" d="M165.632 128.807s37.876-59.01 20.422-96.746C168.6-5.675 126.942-5.89 112.54 9.881c-8.802 9.64-6.236 25.74-27.075 31.97-12.747 3.81-22.027-2.3-41.03-8.925C25.432 26.3 3.37 40.703.659 63.702c-3.043 25.813 20.453 39.307 33.351 48.6 12.898 9.29 6.366 24.703 11.713 39.136 5.347 14.432 91.591 29.753 119.909-22.631" transform="translate(-959 -152) translate(959 152) translate(93 6)"/>
                    <path fill="#FFFFFE" d="M184.371 63.702s2.882-33.353-18.74-49.933c-18.594-14.26-37.181-7.346-43.032-1.08-5.85 6.265.551 13.827 16.711 12.747s40.669 10.082 45.061 38.266" transform="translate(-959 -152) translate(959 152) translate(93 6)"/>
                    <path fill="#E5EAEB" d="M101.997 186.588c0 2.459-9.222 4.452-20.597 4.452-11.376 0-20.597-1.993-20.597-4.452 0-2.459 9.221-4.453 20.597-4.453 11.375 0 20.597 1.994 20.597 4.453M175.152 177.683c0 2.459-23.929 4.452-53.448 4.452-29.519 0-53.449-1.993-53.449-4.452 0-2.46 23.93-4.453 53.449-4.453s53.448 1.994 53.448 4.453" transform="translate(-959 -152) translate(959 152) translate(93 6)"/>
                    <path fill="#E5EAEB" d="M110.267 174.652c0 2.459-23.93 4.453-53.448 4.453-29.52 0-53.45-1.994-53.45-4.453 0-2.46 23.93-4.453 53.45-4.453 29.518 0 53.448 1.994 53.448 4.453" transform="translate(-959 -152) translate(959 152) translate(93 6)"/>
                    <path fill="#0074A3" d="M11.265 139.706c-.148 18.748 14.931 34.066 33.68 34.213 18.748.147 34.065-14.932 34.213-33.68.147-18.748-14.932-34.066-33.68-34.213-18.748-.148-34.066 14.932-34.213 33.68" transform="translate(-959 -152) translate(959 152) translate(93 6)"/>
                    <path fill="#F7F8F9" d="M15.808 139.741c-.128 16.24 12.933 29.507 29.172 29.634 16.24.128 29.507-12.933 29.635-29.172.127-16.239-12.934-29.506-29.173-29.634-16.239-.128-29.506 12.934-29.634 29.172" transform="translate(-959 -152) translate(959 152) translate(93 6)"/>
                    <path fill="#FFF" d="M32.12 153.033c-3.448 0-6.708-.6-9.42-1.73-.187-.079-.4-.06-.599-.09-1.684-3.454-2.62-7.338-2.589-11.443.112-14.124 11.596-25.497 25.695-25.497h.206c4.67.038 9.034 1.323 12.791 3.53 2.061 5.949 1.627 17.117-2.475 23.314-5.483 8.285-15.121 11.916-23.608 11.916" transform="translate(-959 -152) translate(959 152) translate(93 6)"/>
                    <g>
                        <g fill="#99ABB2">
                            <path d="M27.277 7.301c.494.004.902-.397.906-.892l.043-5.503c.004-.494-.397-.902-.891-.906-.495-.003-.902.398-.906.892l-.043 5.504c-.005.494.397.901.891.905M26.908 54.242c.495.004.902-.397.906-.89l.043-5.505c.004-.494-.397-.902-.891-.906-.494-.003-.902.398-.906.892l-.043 5.504c-.004.494.397.902.891.905M46.942 27.277c-.004.494.397.902.891.906l5.504.043c.494.004.902-.397.905-.891.004-.495-.397-.902-.891-.906l-5.504-.043c-.494-.005-.902.397-.905.891M0 26.908c-.003.495.398.902.892.906l5.504.043c.494.004.901-.397.905-.891.004-.494-.397-.902-.891-.906l-5.504-.043c-.494-.004-.902.397-.906.891M38.573 5.869c-.252.427-.109.978.319 1.23.428.25.979.108 1.23-.32.252-.428.11-.979-.319-1.23-.428-.252-.979-.109-1.23.32M14.12 47.463c-.251.429-.108.98.32 1.231.428.251.979.108 1.23-.32.251-.427.109-.978-.32-1.23-.427-.251-.978-.108-1.23.32M47.665 14.441c-.432.245-.583.794-.338 1.226.244.431.793.583 1.225.338.432-.245.583-.793.338-1.225-.244-.432-.793-.583-1.225-.339M5.69 38.238c-.43.245-.582.793-.337 1.225.244.432.793.583 1.224.338.432-.244.584-.793.34-1.224-.246-.432-.794-.584-1.226-.34M48.374 38.573c-.427-.252-.978-.109-1.23.32-.251.427-.108.978.32 1.23.428.251.978.108 1.23-.32s.109-.979-.32-1.23M6.78 14.12c-.429-.251-.98-.108-1.23.32-.253.428-.11.979.319 1.23.427.251.978.109 1.23-.32.251-.427.108-.978-.32-1.23M39.801 47.665c-.244-.432-.793-.583-1.225-.338-.431.244-.583.793-.338 1.225.245.432.793.583 1.225.338.432-.244.583-.793.338-1.225M16.005 5.69c-.245-.43-.793-.582-1.225-.337-.432.244-.583.793-.339 1.224.245.432.794.584 1.226.34.431-.246.583-.794.338-1.226" transform="translate(-959 -152) translate(959 152) translate(93 6) translate(18.09 112.85)"/>
                        </g>
                        <g>
                            <path fill="#0074A3" d="M29.48 6.444C32.168 5.396 44.712 0 44.712 0l.046.086.091.17.046.085S33.479 7.833 31.122 9.498c-2.357 1.664-10.712 4.268-10.712 4.268l-.152-.283-.091-.17-.152-.283s6.777-5.537 9.465-6.586M11.827 15.027C9.77 14.707.006 13.664.006 13.664L0 13.277s9.728-1.337 11.775-1.717c2.046-.38 8.227 1.192 8.227 1.192l.007.515.006.321s-6.131 1.758-8.188 1.439" transform="translate(-959 -152) translate(959 152) translate(93 6) translate(18.09 112.85) translate(6.766 13.92)"/>
                            <path fill="#CCD5D9" d="M18.558 13.188c-.007.993.79 1.804 1.784 1.812.993.008 1.803-.79 1.811-1.784.008-.992-.79-1.804-1.783-1.811-.993-.008-1.804.79-1.812 1.783" transform="translate(-959 -152) translate(959 152) translate(93 6) translate(18.09 112.85) translate(6.766 13.92)"/>
                        </g>
                    </g>
                    <path fill="#345766" d="M147.138 178.219H88.68c-4.137 0-10.566-3.11-10.086-7.248L96.45 46.695c.48-4.137 4.223-7.491 8.36-7.491l54.88-2.14c6.673 0 10.68 5.494 10.2 9.63l-14.39 124.033c-.48 4.138-4.224 7.492-8.361 7.492" transform="translate(-959 -152) translate(959 152) translate(93 6)"/>
                    <path fill="#67818C" d="M142.83 176.044H84.375c-4.137 0-7.102-3.354-6.622-7.492L92.142 44.52c.48-4.138 4.223-7.491 8.36-7.491h58.457c4.137 0 7.102 3.353 6.622 7.491l-14.39 124.032c-.48 4.138-4.223 7.492-8.36 7.492" transform="translate(-959 -152) translate(959 152) translate(93 6)"/>
                    <path fill="#F7F8F9" d="M142.816 173.443H84.992c-3.148 0-5.405-2.552-5.04-5.7L94.205 44.903c.365-3.148 3.213-5.7 6.362-5.7h57.824c3.15 0 5.405 2.552 5.04 5.7l-14.251 122.838c-.366 3.149-3.214 5.701-6.363 5.701" transform="translate(-959 -152) translate(959 152) translate(93 6)"/>
                    <path fill="#CCD5D9" d="M119.156 170.352h-12.052c-1.396 0-2.405-1.141-2.243-2.537.162-1.395 1.436-2.537 2.831-2.537h12.053c1.396 0 2.405 1.142 2.243 2.537-.162 1.396-1.436 2.537-2.832 2.537M103.848 43.755c-.121 1.053-1.074 1.905-2.126 1.905-1.052 0-1.806-.852-1.684-1.905.122-1.052 1.074-1.905 2.126-1.905 1.052 0 1.806.853 1.684 1.905M108.196 43.755c-.074.634-.647 1.148-1.281 1.148-.634 0-1.088-.514-1.015-1.148.073-.634.648-1.147 1.281-1.147.634 0 1.089.513 1.015 1.147" transform="translate(-959 -152) translate(959 152) translate(93 6)"/>
                    <path fill="#FFFFFE" d="M146.724 162.378L83.169 162.378 96.342 48.83 159.898 48.83 146.724 162.378" transform="translate(-959 -152) translate(959 152) translate(93 6)"/>
                    <path fill="#F7F8F9" d="M151.099 66.35H101.13c-1.534 0-2.634-1.244-2.456-2.779l1.01-8.7c.177-1.534 1.566-2.779 3.1-2.779h49.967c1.536 0 2.636 1.245 2.457 2.78l-1.009 8.7c-.178 1.534-1.567 2.778-3.101 2.778M107.913 81.979L96.539 81.979 97.859 70.606 109.232 70.606 107.913 81.979" transform="translate(-959 -152) translate(959 152) translate(93 6)"/>
                    <path fill="#8ABD38" d="M122.63 81.979L111.256 81.979 112.576 70.606 123.949 70.606 122.63 81.979" transform="translate(-959 -152) translate(959 152) translate(93 6)"/>
                    <path fill="#F7F8F9" d="M137.347 81.979L125.974 81.979 127.293 70.606 138.667 70.606 137.347 81.979M152.064 81.979L140.691 81.979 142.01 70.606 153.384 70.606 152.064 81.979M106.225 96.523L94.852 96.523 96.171 85.15 107.545 85.15 106.225 96.523M120.943 96.523L109.57 96.523 110.889 85.15 122.262 85.15 120.943 96.523M135.66 96.523L124.286 96.523 125.606 85.15 136.98 85.15 135.66 96.523M150.377 96.523L139.004 96.523 140.323 85.15 151.696 85.15 150.377 96.523M104.538 111.067L93.165 111.067 94.484 99.694 105.857 99.694 104.538 111.067M119.255 111.067L107.882 111.067 109.201 99.694 120.575 99.694 119.255 111.067M133.972 111.067L122.599 111.067 123.919 99.694 135.292 99.694 133.972 111.067M148.69 111.067L137.316 111.067 138.636 99.694 150.01 99.694 148.69 111.067M102.851 125.611L91.477 125.611 92.797 114.238 104.17 114.238 102.851 125.611M117.568 125.611L106.194 125.611 107.514 114.238 118.887 114.238 117.568 125.611M132.285 125.611L120.912 125.611 122.231 114.238 133.605 114.238 132.285 125.611M147.002 125.611L135.629 125.611 136.949 114.238 148.322 114.238 147.002 125.611" transform="translate(-959 -152) translate(959 152) translate(93 6)"/>
                    <path fill="#99ABB2" d="M100.05 149.134c.104-.892.914-1.618 1.806-1.618h10.276c.966 0 1.859-.554 2.332-1.446.473-.892.392-1.87-.212-2.552l-3.989-4.514c-.391-.442-.951-.686-1.577-.686h-12.5c-.686 0-1.25-.436-1.4-1.085l-.53-2.273c-.117-.502.021-1.037.379-1.47.357-.433.867-.68 1.397-.68h17.243c.428 0 .812.165 1.082.466l6.455 7.197c.056-.316.12-.632.184-.944l-6.07-6.77c-.39-.435-.947-.675-1.567-.675H96.117c-.769 0-1.507.36-2.025.986-.517.627-.718 1.402-.549 2.128l.53 2.274c.219.94 1.035 1.571 2.03 1.571h12.499c.432 0 .819.168 1.089.474l3.99 4.513c.498.563.402 1.28.146 1.762-.257.483-.814 1-1.61 1H101.94c-1.292 0-2.465 1.05-2.615 2.342l-.276 2.383c-.15 1.292.779 2.343 2.07 2.343h11.356c.891 0 1.533.725 1.426 1.645-.103.891-.913 1.617-1.805 1.617H89.382l-.084.725h22.714c1.292 0 2.464-1.05 2.618-2.37.149-1.291-.78-2.343-2.071-2.343h-11.355c-.892 0-1.534-.725-1.43-1.617l.276-2.383" transform="translate(-959 -152) translate(959 152) translate(93 6)"/>
                    <path fill="#0074A3" d="M125.033 134.64c-.214 1.848-4.131 6.756-4.131 6.756s-2.778-4.908-2.564-6.756c.215-1.85 1.888-3.348 3.736-3.348 1.849 0 3.174 1.499 2.96 3.348" transform="translate(-959 -152) translate(959 152) translate(93 6)"/>
                    <path fill="#FFFFFE" d="M123.502 134.484c-.116.993-1.014 1.798-2.007 1.798-.992 0-1.704-.805-1.589-1.798.116-.993 1.014-1.797 2.006-1.797.993 0 1.705.804 1.59 1.797" transform="translate(-959 -152) translate(959 152) translate(93 6)"/>
                    <path fill="#0074A3" d="M93.614 157.485c-.18 1.551-1.584 2.809-3.135 2.809-1.551 0-2.663-1.258-2.483-2.81.18-1.551 1.584-2.809 3.135-2.809 1.551 0 2.663 1.258 2.483 2.81" transform="translate(-959 -152) translate(959 152) translate(93 6)"/>
                    <path fill="#FFFFFE" d="M92.255 157.485c-.093.8-.817 1.45-1.619 1.45-.8 0-1.374-.65-1.281-1.45.093-.801.817-1.45 1.618-1.45.801 0 1.375.649 1.282 1.45" transform="translate(-959 -152) translate(959 152) translate(93 6)"/>
                    <path fill="#CCD5D9" d="M64.403 105.437s5.975-8.697 6.922-10.767c.946-2.07 1.05-3.83-.435-4.905-1.484-1.075-4.22-1.919-6.64 1.49-2.418 3.408-6.889 13.876-7.071 17.151-.183 3.275 14.627 13.19 15.942 13.831 1.451-.379 2.067-2.545 2.067-2.545s-9.563-12.14-10.785-14.255" transform="translate(-959 -152) translate(959 152) translate(93 6)"/>
                    <path fill="#EC9474" d="M69.305 177.393s.3 1.718-.682 4.31c-.982 2.59-1.037 3.409 0 3.982 1.037.572 1.773.736 4.664 0 2.891-.737 6.11-2.346 6.11-2.346s-3.137-1.991-3.9-2.837c-.764-.846-2.373-3.873-2.346-4.31.027-.436-3.846 1.2-3.846 1.2" transform="translate(-959 -152) translate(959 152) translate(93 6)"/>
                    <path fill="#142239" d="M77.167 181.843c-1.163.776-2.275 1.624-3.765 1.41-1.196-.299-1.644-1.495-2.392-2.392-.515-.412-1.315-.54-2.007-.334-.099.367-.223.76-.38 1.175-.982 2.591-1.037 3.41 0 3.983 1.037.572 1.773.736 4.664 0 2.891-.737 6.11-2.346 6.11-2.346s-1.152-.732-2.23-1.496" transform="translate(-959 -152) translate(959 152) translate(93 6)"/>
                    <path fill="#F0AD93" d="M104.375 87.897l3.62 1.558c1.201-1.488 2.103-2.61 2.693-2.731 1.532.206 2.19-.443 2.6-.967.41-.523-.103-.822-.036-1.024.423-.623-.296-.867-.18-1.014.445-.52.362-.8.094-.943-.269-.143-.72-.275-.637-.536.082-.26 1.184-.956 2.142-1.41.958-.454 2.01-1.181 1.428-1.564-.583-.382-6.023 2.231-7.042 3.346-1.018 1.115-.756 2.302-2.032 3.53-.463.446-1.49 1.105-2.65 1.755" transform="translate(-959 -152) translate(959 152) translate(93 6)"/>
                    <path fill="#EFA380" d="M73.087 176.866s.255 3.527-.873 6.4c-1.127 2.873-.8 4.146 1.237 4.727 2.036.583 3.164-.8 5.819-.726 2.654.072 6.182-.219 7.091-2.656.91-2.436-3.335-1.347-5.904-2.11-2.57-.762-1.427-5.272-1.427-5.272l-5.943-.363" transform="translate(-959 -152) translate(959 152) translate(93 6)"/>
                    <path fill="#1C2B4B" d="M80.53 182.45c-.231.772 1.864 1.587 1.245 2-2.243 1.644-4.934-1.197-7.475-2.094-.518-.258-1.136-.267-1.738-.143-.098.355-.213.709-.348 1.053-1.127 2.873-.8 4.146 1.237 4.727 2.036.583 3.164-.8 5.819-.726 2.654.072 7.676-.43 8.585-2.867.9-2.412-4.75-1.232-7.326-1.95" transform="translate(-959 -152) translate(959 152) translate(93 6)"/>
                    <path fill="#142239" d="M87.543 183.236c-.014.057-.03.114-.053.176-.91 2.437-5.93 2.94-8.586 2.867-2.655-.073-3.782 1.31-5.819.728-.698-.2-1.191-.484-1.498-.883.088.968.69 1.534 1.864 1.87 2.036.582 3.164-.8 5.819-.727 2.654.072 7.676-.43 8.585-2.867.209-.559.063-.923-.312-1.164" transform="translate(-959 -152) translate(959 152) translate(93 6)"/>
                    <path fill="#223D6A" d="M77.378 131.624c-1.39-.658-2.324-1.636-2.93-2.719-1.201-2.146-1.105-4.704-.67-6.01.655-1.963 3.273-6.909 3.273-6.909l-6.437-1.191s-2.891 4.991-4.364 8.919c-1.473 3.928-.273 8.074.436 11.183.71 3.11 2.51 12.001 1.746 15.33-.764 3.326-2.182 8.4-1.8 12.273.382 3.873 2.291 13.092 2.236 15.165.645.288 1.275.386 1.858.372 1.737-.041 3.052-1.08 3.052-1.08s.437-15.875 2.073-22.858c1.637-6.982 3.273-19.966 1.527-22.475" transform="translate(-959 -152) translate(959 152) translate(93 6)"/>
                    <path fill="#1C2B4B" d="M77.378 131.624c-1.39-.658-2.324-1.636-2.93-2.719-2.724-1.288-.825-6.287-1.045-9.373-1.079 2.979-5.206 8.35.433 15.039 2.007 1.864.048 16.487-1.672 23.082-1.543 5.591-.869 14.571-.596 20.285 1.302-.267 2.21-.982 2.21-.982s.437-15.874 2.073-22.857c1.637-6.982 3.273-19.966 1.527-22.475" transform="translate(-959 -152) translate(959 152) translate(93 6)"/>
                    <path fill="#223D6A" d="M87.67 115.913s1.892 7.2 1.31 14.911c-.582 7.71-5.747 20.657-6.328 23.493-.582 2.837-1.382 10.994-2.11 14.662-.727 3.668-1.09 7.086-.69 8.032-1.71 1.818-6.256 1.6-7.274 0 .364-7.492.182-13.93 1.6-18.984 1.419-5.055.546-6.364 1.128-9.528.582-3.165 1.163-12.947 1.454-14.111.291-1.164-2.618-1.746-3.673-3.637-1.054-1.89-3.237-6.437 2.8-15.71 6.437-.219 11.784.872 11.784.872" transform="translate(-959 -152) translate(959 152) translate(93 6)"/>
                    <path fill="#1A4879" d="M87.67 115.913s-5.346-1.09-11.782-.872c-.121.185-.234.366-.348.548 5.31.067 9.375.897 9.375.897s1.891 7.2 1.309 14.91c-.582 7.71-4.706 20.442-5.288 23.28-.582 2.836-.812 10.624-1.54 14.291-.626 3.163-.741 7.098-.505 8.729.369-.185.7-.408.96-.685-.4-.946-.036-4.364.692-8.032.727-3.668 1.527-11.825 2.109-14.662.581-2.836 5.746-15.783 6.328-23.493.582-7.71-1.31-14.91-1.31-14.91" transform="translate(-959 -152) translate(959 152) translate(93 6)"/>
                    <path fill="#EFA380" d="M84.361 72.418s.546 6.473-.181 8.473c-.728 2-1.455 3.455-1.856 3.855-.4.4-2.325-.327-2.708 0-.383.328-.346 4.074-.346 4.074l-5.347-.219s.619-6.764 1.091-8.62c.473-1.853 8.802-7.709 9.347-7.563" transform="translate(-959 -152) translate(959 152) translate(93 6)"/>
                    <path fill="#CCD5D9" d="M71.705 88.474s4.146-2.073 7.528-.436c3.382 1.636 8.674 8.51 9.492 9.819.819 1.31 1.364 4.255 0 6.928s-.873 10.528-.164 11.892c-5.727 1.691-14.62.6-18.71-1.2 2.29-3.327 3.49-4.583 1.854-8.237-1.637-3.655-3.6-14.02 0-18.766" transform="translate(-959 -152) translate(959 152) translate(93 6)"/>
                    <path fill="#E5EAEB" d="M86.15 105.289c1.364-2.673.819-5.619 0-6.928-.818-1.31-6.11-8.183-9.492-9.82-1.168-.565-2.425-.682-3.573-.6-.84.266-1.38.533-1.38.533-3.6 4.746-1.637 15.111 0 18.766 1.637 3.654.437 4.91-1.855 8.237 3.443 1.514 10.285 2.527 15.78 1.802.12-.032.24-.063.357-.098-.71-1.364-1.2-9.219.163-11.892" transform="translate(-959 -152) translate(959 152) translate(93 6)"/>
                    <path fill="#E5EAEB" d="M92.598 96.384s-8.632-6.068-10.692-7.037c-2.06-.969-3.818-1.091-4.91.382-1.09 1.472-1.963 4.2 1.42 6.655 3.381 2.455 13.8 7.037 17.074 7.255 3.273.219 13.347-14.484 14-15.794-.362-1.454-2.522-2.093-2.522-2.093s-12.242 9.432-14.37 10.632" transform="translate(-959 -152) translate(959 152) translate(93 6)"/>
                    <path fill="#E26597" d="M78.415 96.384c-.115-.084-.213-.162-.319-.243.102.081.208.162.32.243" transform="translate(-959 -152) translate(959 152) translate(93 6)"/>
                    <path fill="#CCD5D9" d="M76.786 91.153c1.09-1.472 2.85-1.35 4.91-.381 2.059.968 10.363 6.395 10.363 6.395 2.127-1.2 14.91-11.415 14.91-11.415s-12.243 9.432-14.37 10.632c0 0-8.633-6.068-10.693-7.037-2.06-.969-3.818-1.091-4.91.382-.51.69-.973 1.652-.974 2.735.153-.445.438-.87.764-1.31" transform="translate(-959 -152) translate(959 152) translate(93 6)"/>
                    <path fill="#223D6A" d="M83.961 69.363c-2.473-2.473-7.055-3.419-7.055-3.419-3.889-1.32-6.91 2.328-7.783 5.601-.873 3.273-.444 7.081-1.782 11.382-.677 2.097-10.361 17.098 2.335 27.963 3.228 1.594 5.699 2.296 9.188-.396-3.676-8.738-2.515-17.125-1.774-19.64.717-2.431 2.19-2.522 3.54-2.02l.186.074c-.126-.247-.288-.53-.48-.84-.681-2.029-.04-6.237 1.352-7.722 1.637-1.746 2.4-4.582 2.673-6.655.382 2.454-.491 3.982-1.091 4.855 2.346-1.8 3.164-6.71.691-9.183" transform="translate(-959 -152) translate(959 152) translate(93 6)"/>
                    <path fill="#1C2B4B" d="M68.388 101.885c-1.433-10.036 2.581-20.358 6.309-29.82 1.115-2.9 4.313-4.238 7.569-4.013-2.437-1.503-5.36-2.108-5.36-2.108-3.889-1.32-6.91 2.328-7.783 5.601-.873 3.273-.444 7.081-1.782 11.382-.677 2.097-10.361 17.098 2.335 27.963 2.61 1.288 4.724 1.993 7.282.794-1.09-.194-2.367-.906-2.639-1.126-2.867-2.007-5.357-5.233-5.93-8.673" transform="translate(-959 -152) translate(959 152) translate(93 6)"/>
                </g>
            </g>
        </g>
    </g>
</svg>
