<svg xmlns="http://www.w3.org/2000/svg" width="23" height="30" viewBox="0 0 23 30">
    <g fill="none" fill-rule="nonzero">
        <g fill="#656582">
            <path d="M20.317 5.778L14.786.167A.587.587 0 0 0 14.402 0H2.52C1.314 0 .329 1 .329 2.222v22.222c0 1.223.985 2.223 2.19 2.223H18.29c1.205 0 2.191-1 2.191-2.223V6.167a.508.508 0 0 0-.164-.39zm-5.367-3.89l3.669 3.723H14.95V1.89zm4.436 22.556c0 .612-.493 1.112-1.096 1.112H2.52c-.602 0-1.095-.5-1.095-1.112V2.222c0-.61.493-1.11 1.095-1.11h11.336v5.055c0 .277.219.555.547.555h4.984v17.722z"/>
            <path d="M6.407 11H3.943a.553.553 0 0 0-.548.556v2.5c0 .277.22.555.548.555h2.464a.553.553 0 0 0 .548-.555v-2.5c0-.278-.274-.556-.548-.556zm-.547 2.5H4.436v-1.444H5.86V13.5zM7.776 14.056c0 .277.22.555.548.555h8.543a.553.553 0 0 0 .547-.555.553.553 0 0 0-.547-.556H8.324a.553.553 0 0 0-.548.556zM8.324 12.944h5.366a.553.553 0 0 0 .548-.555.553.553 0 0 0-.548-.556H8.324a.553.553 0 0 0-.548.556c0 .278.22.555.548.555zM6.407 16.444H3.943a.553.553 0 0 0-.548.556v2.5c0 .278.22.556.548.556h2.464a.553.553 0 0 0 .548-.556V17a.553.553 0 0 0-.548-.556zm-.547 2.5H4.436V17.5H5.86v1.444zM16.867 18.944H8.324a.553.553 0 0 0-.548.556c0 .278.22.556.548.556h8.543a.553.553 0 0 0 .547-.556c0-.278-.274-.556-.547-.556zM8.324 18.389h5.366a.553.553 0 0 0 .548-.556.553.553 0 0 0-.548-.555H8.324a.553.553 0 0 0-.548.555c0 .278.22.556.548.556z"/>
        </g>
        <path fill="#FFF" d="M22.435 23.99l-.897-.91a1.008 1.008 0 0 0-1.436 0l-2.339 2.375-.894-.908a1.008 1.008 0 0 0-1.437 0l-.896.91a1.037 1.037 0 0 0 0 1.457l2.51 2.54a1.008 1.008 0 0 0 1.435 0l3.954-4.01c.19-.192.298-.453.297-.726a1.025 1.025 0 0 0-.297-.729z"/>
        <path fill="#07E2BD" d="M22.186 25.024a.893.893 0 0 0-.258-.635l-.782-.793a.878.878 0 0 0-1.251 0l-2.038 2.07-.78-.791a.878.878 0 0 0-1.25 0l-.782.792a.904.904 0 0 0 0 1.27l2.186 2.213a.878.878 0 0 0 1.252 0l3.445-3.493a.893.893 0 0 0 .258-.633zm-3.932 3.106l-.406.396-2.184-2.233.795-.792 1.089 1.104a.434.434 0 0 0 .619 0l2.347-2.38h.014l.784.806-3.058 3.1z"/>
    </g>
</svg>
