<svg xmlns="http://www.w3.org/2000/svg" width="131" height="69" viewBox="0 0 131 69">
    <defs>
        <linearGradient id="1ar2cxyyca" x1="6.422%" x2="58.863%" y1="91.231%" y2="52.261%">
            <stop offset="0%" stop-color="#259DE2"/>
            <stop offset="100%" stop-color="#00619B"/>
        </linearGradient>
        <linearGradient id="5md3i5af5b" x1="20.493%" x2="67.833%" y1="67.63%" y2="37.039%">
            <stop offset="0%" stop-color="#259DE2"/>
            <stop offset="100%" stop-color="#00619B"/>
        </linearGradient>
        <linearGradient id="aeko7fjcsc" x1="21.755%" x2="60.14%" y1="64.193%" y2="44.835%">
            <stop offset="0%" stop-color="#3D9B3B"/>
            <stop offset="100%" stop-color="#8ABD38"/>
        </linearGradient>
    </defs>
    <g fill="none" fill-rule="evenodd">
        <g fill-rule="nonzero">
            <g>
                <g>
                    <g>
                        <g fill="url(#1ar2cxyyca)" transform="translate(-40 -40) translate(40 40) matrix(1 0 0 -1 0 68.76) translate(39.968 29.344) translate(5.056)">
                            <path d="M8.683 17.068H.037C5.354 6.747 19.263.047 19.263.047V.045S27.706 4.112 33.95 10.79c1.742 1.862 3.314 3.93 4.483 6.169h-6.26l-1.968 3.634-2.384-3.525h-6.465L15.844 6.134l-5.39 14.935-1.771-4.001z"/>
                        </g>
                        <g fill="url(#5md3i5af5b)" transform="translate(-40 -40) translate(40 40) matrix(1 0 0 -1 0 68.76) translate(39.968 29.344) translate(3.008 16.64)">
                            <path d="M21.311 13.391C14.57 26.545-2.53 19.331.374 5.177c.04-.19.082-.378.128-.565h7.504l4.89 11.055L18.53.056l2.295 4.556 6.819.002 5.002 7.396 4.066-7.505h5.38c.057.222.11.446.155.672 1.838 8.954-4.33 15.13-10.817 15.13-3.767 0-7.642-2.083-10.12-6.916"/>
                        </g>
                        <g fill="url(#aeko7fjcsc)" transform="translate(-40 -40) translate(40 40) matrix(1 0 0 -1 0 68.76) translate(39.968 29.344) translate(0 8)">
                            <path d="M11.497 12.511L0 12.511 0 9.808 13.257 9.808 15.579 15.057 21.013 0.004 25.956 9.808 32.482 9.808 35.329 14.019 37.67 9.699 48.639 9.699 48.639 12.404 39.28 12.404 35.587 19.225 31.047 12.513 24.29 12.511 21.426 6.828 15.835 22.318z"/>
                        </g>
                    </g>
                    <g>
                        <g>
                            <g fill="#5DAF41">
                                <path d="M13.376.832C12.239.293 10.849.024 9.208.024c-1.727 0-3.292.41-4.694 1.231-1.402.821-2.505 1.937-3.309 3.348C.401 6.013 0 7.565 0 9.258v.051c0 1.693.398 3.25 1.193 4.669.795 1.42 1.907 2.543 3.335 3.373 1.427.829 3.04 1.244 4.835 1.244 1.59 0 2.94-.235 4.052-.706 1.112-.47 2.12-1.158 3.027-2.065l-2.514-2.898c-.735.667-1.47 1.171-2.205 1.513-.736.342-1.53.513-2.386.513-.992 0-1.885-.252-2.68-.756-.795-.505-1.415-1.18-1.86-2.027-.445-.846-.667-1.782-.667-2.808v-.052c0-1.026.222-1.97.667-2.834.445-.863 1.06-1.548 1.847-2.052.786-.504 1.684-.757 2.693-.757.958 0 1.787.171 2.488.513.701.342 1.445.872 2.232 1.59l2.513-2.539c-.991-1.06-2.056-1.86-3.193-2.398" transform="translate(-40 -40) translate(40 40) matrix(1 0 0 -1 0 68.76) translate(.096 .384) translate(.128) translate(.008 .227)"/>
                            </g>
                            <g fill="#5DAF41">
                                <path d="M6.464 6.4c-.838 0-1.497-.163-1.975-.487-.479-.325-.718-.796-.718-1.411v-.051c0-.513.196-.92.59-1.219.393-.299.906-.449 1.539-.449.906 0 1.641.227 2.206.68.564.453.846 1.03.846 1.731v.693c-.735.342-1.565.513-2.488.513m2.411-4.566C7.832.671 6.447.09 4.72.09c-1.351 0-2.475.372-3.373 1.116C.449 1.95 0 2.98 0 4.297v.051c0 1.453.5 2.548 1.5 3.283 1.001.735 2.348 1.103 4.04 1.103 1.146 0 2.266-.188 3.361-.564v.23c0 .822-.248 1.446-.744 1.873-.496.428-1.231.642-2.206.642-.701 0-1.338-.06-1.911-.18s-1.201-.308-1.885-.564l-.975 2.975c.838.376 1.663.654 2.475.834.812.18 1.766.269 2.86.269 2.087 0 3.63-.509 4.63-1.526 1-1.018 1.5-2.484 1.5-4.399V.347h-3.77v1.487z" transform="translate(-40 -40) translate(40 40) matrix(1 0 0 -1 0 68.76) translate(.096 .384) translate(.128) translate(18.5 .212)"/>
                            </g>
                            <g fill="#5DAF41">
                                <path d="M10.496.768C9.641.341 8.572.127 7.29.127c-1.351 0-2.57.316-3.655.949-1.087.632-1.942 1.492-2.565 2.578C.445 4.74.133 5.932.133 7.232v.051c0 1.3.308 2.497.924 3.591.615 1.095 1.475 1.963 2.578 2.604 1.103.64 2.338.962 3.706.962 1.248 0 2.304-.197 3.168-.59.863-.394 1.637-.967 2.321-1.719l-2.385-2.565c-.48.513-.958.893-1.437 1.141-.479.248-1.043.372-1.693.372-.632 0-1.201-.17-1.705-.513-.505-.342-.902-.8-1.193-1.372-.291-.573-.436-1.192-.436-1.86v-.05c0-1.078.32-1.98.962-2.707.641-.727 1.483-1.09 2.526-1.09.616 0 1.167.12 1.655.36.487.239.987.606 1.5 1.102l2.283-2.309c-.752-.82-1.556-1.444-2.411-1.872" transform="translate(-40 -40) translate(40 40) matrix(1 0 0 -1 0 68.76) translate(.096 .384) translate(.128) translate(33.706 .124)"/>
                            </g>
                            <g fill="#5DAF41">
                                <path d="M5.696 0c-1.283 0-2.27.312-2.962.936-.693.625-1.04 1.689-1.04 3.194v6.515H.054v3.334h1.642v3.515h3.899v-3.515h3.231v-3.334H5.594V4.771c0-.445.102-.778.307-1 .205-.223.522-.334.95-.334.683 0 1.324.163 1.923.487V.795C7.884.265 6.858 0 5.696 0" transform="translate(-40 -40) translate(40 40) matrix(1 0 0 -1 0 68.76) translate(.096 .384) translate(.128) translate(48.1 .328)"/>
                            </g>
                            <g fill="#5DAF41">
                                <path d="M8.704 2.304C8.174 1.62 7.597 1.081 6.973.688c-.625-.393-1.39-.59-2.296-.59-1.47 0-2.616.453-3.437 1.36C.42 2.363.01 3.611.01 5.201v8.9h3.899V6.435c0-.907.205-1.6.615-2.078.41-.479.992-.718 1.744-.718.753 0 1.347.24 1.783.718.436.479.654 1.171.654 2.078v7.669h3.899V.355H8.704v1.949z" transform="translate(-40 -40) translate(40 40) matrix(1 0 0 -1 0 68.76) translate(.096 .384) translate(.128) translate(59.686 .204)"/>
                            </g>
                            <g fill="#5DAF41">
                                <path d="M9.728 1.28C8.762.536 7.492.164 5.919.164c-1.01 0-2.026.172-3.052.513C1.84 1.02.89 1.541.019 2.242l1.668 2.565c.735-.53 1.478-.936 2.231-1.218.752-.283 1.453-.424 2.104-.424.547 0 .957.09 1.23.27.274.179.411.431.411.756v.052c0 .324-.184.585-.551.782-.368.196-.962.414-1.783.654l-.513.154c-1.248.359-2.244.838-2.988 1.436C1.084 7.868.712 8.765.712 9.962v.052c0 .906.222 1.688.667 2.347.444.658 1.047 1.158 1.808 1.5.76.342 1.612.513 2.553.513.871 0 1.756-.14 2.654-.423.898-.282 1.723-.671 2.475-1.167l-1.487-2.693c-.684.41-1.351.726-2.001.949-.65.222-1.223.333-1.719.333-.461 0-.816-.09-1.064-.269-.248-.18-.372-.407-.372-.68v-.05c0-.24.12-.45.36-.63.239-.18.585-.355 1.038-.525.453-.171.92-.334 1.398-.488 1.265-.427 2.274-.936 3.027-1.526.752-.59 1.128-1.44 1.128-2.552v-.051c0-1.471-.483-2.578-1.449-3.322" transform="translate(-40 -40) translate(40 40) matrix(1 0 0 -1 0 68.76) translate(.096 .384) translate(.128) translate(74.68 .138)"/>
                            </g>
                            <g fill="#0074A3">
                                <path d="M14.08 11.776L9.027 4.106 8.924 4.106 3.923 11.699 3.923 0.054 0.049 0.054 0.049 18.009 4.307 18.009 9.027 10.416 13.747 18.009 18.004 18.009 18.004 0.054 14.08 0.054z" transform="translate(-40 -40) translate(40 40) matrix(1 0 0 -1 0 68.76) translate(.096 .384) translate(.128) translate(89.014 .505)"/>
                            </g>
                            <g fill="#0074A3">
                                <path d="M11.776 11.776c-.453.821-1.09 1.462-1.91 1.924-.822.462-1.762.692-2.822.692H3.99V3.568h3.053c1.06 0 2 .226 2.821.68.82.453 1.458 1.086 1.911 1.898.453.812.68 1.74.68 2.783v.051c0 1.043-.227 1.975-.68 2.796m3.59-7.362c-.811-1.368-1.94-2.445-3.385-3.232C10.536.396 8.891.002 7.044.002H.04v17.956h7.003c1.847 0 3.492-.39 4.937-1.167 1.445-.779 2.574-1.847 3.386-3.207.812-1.359 1.218-2.877 1.218-4.553v-.05c0-1.677-.406-3.198-1.218-4.567" transform="translate(-40 -40) translate(40 40) matrix(1 0 0 -1 0 68.76) translate(.096 .384) translate(.128) translate(111.287 .556)"/>
                            </g>
                        </g>
                    </g>
                </g>
            </g>
        </g>
    </g>
</svg>
