<svg xmlns="http://www.w3.org/2000/svg" xmlns:xlink="http://www.w3.org/1999/xlink" width="13" height="16" viewBox="0 0 13 16">
    <defs>
        <path id="oxe64596va" d="M30.4 25.6c-.442 0-.8.358-.8.8 0 .442.358.8.8.8.442 0 .8-.358.8-.8 0-.442-.358-.8-.8-.8m0 3.2c-1.323 0-2.4-1.077-2.4-2.4s1.077-2.4 2.4-2.4 2.4 1.077 2.4 2.4-1.077 2.4-2.4 2.4zm-1.6-9.511c0-.931.718-1.689 1.6-1.689.882 0 1.6.758 1.6 1.689V20.8h-3.2v-1.511zm5.6 1.511h-.8v-1.511c0-1.813-1.435-3.289-3.2-3.289-1.765 0-3.2 1.476-3.2 3.289V20.8h-.8c-1.323 0-2.4 1.077-2.4 2.4v6.4c0 1.323 1.077 2.4 2.4 2.4h8c1.323 0 2.4-1.077 2.4-2.4v-6.4c0-1.323-1.077-2.4-2.4-2.4z"/>
    </defs>
    <g fill="none" fill-rule="evenodd">
        <g>
            <g>
                <g transform="translate(-1163 -88) translate(1139 61) translate(0 11)">
                    <use fill="#656566" xlink:href="#oxe64596va"/>
                </g>
            </g>
        </g>
    </g>
</svg>
