<svg xmlns="http://www.w3.org/2000/svg" xmlns:xlink="http://www.w3.org/1999/xlink" width="18" height="18" viewBox="0 0 18 18">
    <defs>
        <path id="585cud4ysa" d="M0 0H20V20H0z"/>
    </defs>
    <g fill="none" fill-rule="evenodd">
        <g>
            <g>
                <g>
                    <g>
                        <g>
                            <g>
                                <g transform="translate(-1257 -475) translate(30 94) translate(333 78) translate(0 236) translate(24 56) translate(435) translate(434 10)">
                                    <mask id="l7x5md29sb" fill="#fff">
                                        <use xlink:href="#585cud4ysa"/>
                                    </mask>
                                    <path fill="#8ABD38" d="M10 1.667C5.4 1.667 1.667 5.4 1.667 10S5.4 18.333 10 18.333 18.333 14.6 18.333 10 14.6 1.667 10 1.667c-3.067 0-3.067 0 0 0zm0 15c-3.675 0-6.667-2.992-6.667-6.667S6.325 3.333 10 3.333 16.667 6.325 16.667 10 13.675 16.667 10 16.667c-2.45 0-2.45 0 0 0zm-1.667-4.859l5.492-5.491L15 7.5l-6.667 6.667L5 10.833l1.175-1.175 2.158 2.15z" mask="url(#l7x5md29sb)"/>
                                </g>
                            </g>
                        </g>
                    </g>
                </g>
            </g>
        </g>
    </g>
</svg>
