<svg xmlns="http://www.w3.org/2000/svg" xmlns:xlink="http://www.w3.org/1999/xlink" width="20" height="20" viewBox="0 0 20 20">
    <defs>
        <path id="hj0brj2gna" d="M0 0H24V24H0z"/>
    </defs>
    <g fill="none" fill-rule="evenodd">
        <g>
            <g>
                <g>
                    <g transform="translate(-1277 -295) translate(944 261) translate(331 32)">
                        <mask id="fe189mmlab" fill="#fff">
                            <use xlink:href="#hj0brj2gna"/>
                        </mask>
                        <path fill="#678180" d="M2 12c0 5.514 4.486 10 10 10s10-4.486 10-10S17.514 2 12 2 2 6.486 2 12zm2 0c0-4.411 3.589-8 8-8s8 3.589 8 8-3.589 8-8 8-8-3.589-8-8zm7-5v6h6v-2h-4V7h-2z" mask="url(#fe189mmlab)"/>
                    </g>
                </g>
            </g>
        </g>
    </g>
</svg>
