<svg xmlns="http://www.w3.org/2000/svg" width="30" height="30" viewBox="0 0 30 30">
    <g fill="none" fill-rule="nonzero">
        <path fill="#656582" d="M24.51 12.022a.798.798 0 0 0-.797-.798H4.289a.798.798 0 1 0 0 1.596h19.424c.44 0 .798-.357.798-.798z"/>
        <path fill="#656582" d="M9.36.16H7.064a1.71 1.71 0 0 0-1.708 1.707v1.644H2.39A2.394 2.394 0 0 0 0 5.917v15.638c0 .212.083.415.233.565l6.207 6.217c.15.15.354.234.565.233H15a.798.798 0 0 0 0-1.596H8.193v-4.206a2.394 2.394 0 0 0-2.39-2.39H1.595V5.917a.795.795 0 0 1 .794-.81h2.965v1.33a1.71 1.71 0 0 0 1.708 1.708H9.36a1.71 1.71 0 0 0 1.707-1.708v-1.33h5.87v1.33a1.71 1.71 0 0 0 1.707 1.708h2.298a1.71 1.71 0 0 0 1.717-1.692V5.106h2.964c.44 0 .795.356.795.795v10.602a.798.798 0 0 0 1.596 0V5.917a2.394 2.394 0 0 0-2.4-2.406H22.66V1.867A1.71 1.71 0 0 0 20.94.16H18.64a1.71 1.71 0 0 0-1.707 1.707v1.644h-5.866V1.867A1.71 1.71 0 0 0 9.361.16zM6.598 22.768v3.466l-4.26-4.26h3.465c.439 0 .795.355.795.794zM18.533 1.867c0-.062.05-.112.112-.112h2.298c.061 0 .111.05.111.112v4.586c0 .062-.05.112-.111.112h-2.298a.112.112 0 0 1-.112-.112V1.867zm-9.06 4.586c0 .062-.05.112-.112.112H7.063a.112.112 0 0 1-.112-.112V1.867c0-.062.05-.112.112-.112H9.36c.061 0 .111.05.111.112v4.586z"/>
        <path fill="#07E2BD" d="M29.362 21.935a1.596 1.596 0 0 0-.473-1.142l-1.426-1.427a1.615 1.615 0 0 0-2.285 0l-3.722 3.724-1.423-1.423a1.615 1.615 0 0 0-2.285 0l-1.427 1.427a1.615 1.615 0 0 0 0 2.285l3.993 3.983a1.615 1.615 0 0 0 2.285 0l6.29-6.288c.304-.3.474-.711.473-1.139zm-7.181 5.592l-.74.711-3.99-4.018 1.452-1.426 1.988 1.988a.798.798 0 0 0 1.13 0l4.286-4.286h.026l1.433 1.452-5.585 5.579z"/>
    </g>
</svg>
