<svg xmlns="http://www.w3.org/2000/svg" width="24" height="24" viewBox="0 0 24 24">
    <g fill="none" fill-rule="evenodd">
        <g>
            <g>
                <g>
                    <path fill="#FFF" d="M0 0H24V24H0z" transform="translate(-718 -309) translate(457 293) translate(261 16)"/>
                    <g fill="#656566">
                        <path d="M12.854 3.213H1.928C.863 3.213 0 4.077 0 5.141v10.926c0 1.065.863 1.928 1.928 1.928h10.926c1.064 0 1.928-.863 1.928-1.928V5.14c0-1.064-.864-1.928-1.928-1.928z" transform="translate(-718 -309) translate(457 293) translate(261 16) translate(3 3)"/>
                        <path d="M16.067 0H4.499c-1.06 0-1.92.854-1.928 1.913v.015h10.283c1.773.002 3.21 1.44 3.213 3.213v10.283h.015c1.059-.008 1.913-.869 1.913-1.928V1.928C17.995.863 17.132 0 16.067 0z" transform="translate(-718 -309) translate(457 293) translate(261 16) translate(3 3)"/>
                    </g>
                </g>
            </g>
        </g>
    </g>
</svg>
