<svg xmlns="http://www.w3.org/2000/svg" xmlns:xlink="http://www.w3.org/1999/xlink" width="24" height="24" viewBox="0 0 24 24">
    <defs>
        <path id="h90k3yb0ha" d="M15.6 15.6c0 .495-.405.9-.9.9s-.9-.405-.9-.9V12c0-.495.405-.9.9-.9s.9.405.9.9v3.6zM10.2 5.095c0-.14.193-.295.45-.295h2.7c.257 0 .45.156.45.295V6.6h-3.6V5.095zm0 10.505c0 .495-.405.9-.9.9s-.9-.405-.9-.9V12c0-.495.405-.9.9-.9s.9.405.9.9v3.6zm9.9-9h-4.5V5.095C15.6 3.94 14.591 3 13.35 3h-2.7C9.409 3 8.4 3.94 8.4 5.095V6.6H3.9c-.495 0-.9.405-.9.9s.405.9.9.9h.9v9.9c0 1.489 1.211 2.7 2.7 2.7h9c1.489 0 2.7-1.211 2.7-2.7V8.4h.9c.495 0 .9-.405.9-.9s-.405-.9-.9-.9z"/>
    </defs>
    <g fill="none" fill-rule="evenodd">
        <g>
            <g>
                <g transform="translate(-758 -309) translate(457 293) translate(301 16)">
                    <path fill="#FFF" d="M0 0H24V24H0z"/>
                    <use fill="#656566" xlink:href="#h90k3yb0ha"/>
                </g>
            </g>
        </g>
    </g>
</svg>
