<svg xmlns="http://www.w3.org/2000/svg" width="16" height="15" viewBox="0 0 16 15">
    <g fill="none" fill-rule="evenodd">
        <path fill="#4FB6E6" fill-rule="nonzero" d="M10.472 6.926L8.26 4.922c-.381-.346-.957-.346-1.338 0L4.71 6.926c-.251.227-.273.617-.049.871.224.254.608.276.859.05L6.983 6.52v7.59c0 .34.272.616.608.616.336 0 .608-.276.608-.617V6.52l1.463 1.326c.116.106.26.157.405.157.167 0 .334-.07.454-.206.223-.254.202-.644-.049-.87z" transform="matrix(1 0 0 -1 0 14.857)"/>
        <path stroke="#4FB6E6" stroke-linecap="round" stroke-linejoin="round" d="M4.24 12H1.625c-.553 0-1-.448-1-1V1.414c0-.553.447-1 1-1h12.339c.552 0 1 .447 1 1V11c0 .552-.448 1-1 1h-3.226 0" transform="matrix(1 0 0 -1 0 14.857)"/>
    </g>
</svg>
