<svg xmlns="http://www.w3.org/2000/svg" xmlns:xlink="http://www.w3.org/1999/xlink" width="24" height="24" viewBox="0 0 24 24">
    <defs>
        <path id="m4fdy48e4a" d="M15.156 4.813l2.427 2.428-1.754 1.757L13.4 6.569l1.755-1.756zm3.36 14.385c.495 0 .9.405.9.901s-.405.901-.9.901H5.9c-.495 0-.9-.405-.9-.901s.405-.901.9-.901zm-4.552-15.74c.632-.636 1.78-.604 2.447.062l2.468 2.467c.689.69.717 1.788.061 2.446l-8.106 8.106c-.293.293-.681.475-1.094.513l-3.757.34c-.027.003-.054.004-.081.004-.238 0-.468-.094-.638-.264-.188-.19-.284-.453-.26-.718l.341-3.757c.038-.412.22-.801.514-1.094z"/>
    </defs>
    <g fill="none" fill-rule="evenodd">
        <g>
            <g>
                <g transform="translate(-678 -309) translate(457 293) translate(221 16)">
                    <path fill="#FFF" d="M0 0H24V24H0z"/>
                    <use fill="#656566" xlink:href="#m4fdy48e4a"/>
                </g>
            </g>
        </g>
    </g>
</svg>
