<svg xmlns="http://www.w3.org/2000/svg" xmlns:xlink="http://www.w3.org/1999/xlink" width="28" height="28" viewBox="0 0 28 28">
    <defs>
        <path id="hep5k2ptqa" d="M0 0H20V20H0z"/>
    </defs>
    <g fill="none" fill-rule="evenodd">
        <g>
            <g>
                <g>
                    <g transform="translate(-890 -255) translate(791 74) translate(40 126) translate(59 55)">
                        <circle cx="14" cy="14" r="14" fill="#E5EAEB"/>
                        <g transform="translate(4 4)">
                            <mask id="z97sd79tgb" fill="#fff">
                                <use xlink:href="#hep5k2ptqa"/>
                            </mask>
                            <path fill="#0074A3" d="M3.058 13.996l-.204 2.245c-.047.518.387.952.905.905l2.245-.204 9.428-9.428-2.946-2.946-9.428 9.428zm14.731-8.84c.326-.325.326-.852 0-1.178l-1.767-1.767c-.326-.326-.853-.326-1.179 0l-1.768 1.767 2.947 2.947 1.767-1.768z" mask="url(#z97sd79tgb)"/>
                        </g>
                    </g>
                </g>
            </g>
        </g>
    </g>
</svg>
