<svg xmlns="http://www.w3.org/2000/svg" xmlns:xlink="http://www.w3.org/1999/xlink" width="12" height="12" viewBox="0 0 12 12">
    <defs>
        <path id="cxf4e057ta" d="M0 0H12V12H0z"/>
    </defs>
    <g fill="none" fill-rule="evenodd">
        <g>
            <g>
                <g transform="translate(-821 -326) translate(821 325) translate(0 1)">
                    <path fill="#EB2000" d="M6.634 4.501v2.5h-1v-2.5h1zM1.5 10.002c-.385 0-.626-.417-.433-.75l4.633-8.003c.192-.332.673-.332.865 0L11.2 9.252c.193.333-.048.75-.433.75H1.501c-.257 0-.257 0 0 0zm8.398-1L6.134 2.498 2.368 9.002h7.531zM6.634 7.501v1h-1v-1h1z"/>
                </g>
            </g>
        </g>
    </g>
</svg>
