<svg xmlns="http://www.w3.org/2000/svg" width="11" height="16" viewBox="0 0 11 16">
    <g fill="none" fill-rule="evenodd">
        <g fill="#99ABB2" fill-rule="nonzero">
            <g>
                <g>
                    <g>
                        <path d="M16.07 13.068c2.073-2.072 2.073-5.443 0-7.514-2.072-2.072-5.443-2.072-7.516 0-2.072 2.071-2.072 5.442 0 7.514.877.877 1.987 1.382 3.133 1.517v1.779h-1.25c-.346 0-.626.28-.626.625s.28.625.626.625h1.25v1.76c0 .346.28.626.626.626.345 0 .625-.28.625-.625v-1.761h1.25c.346 0 .626-.28.626-.625s-.28-.625-.626-.625h-1.25v-1.779c1.146-.135 2.256-.64 3.133-1.517zm-6.631-.884c-1.585-1.584-1.585-4.162 0-5.746 1.584-1.584 4.163-1.584 5.747 0 1.585 1.584 1.585 4.162 0 5.746-1.584 1.584-4.163 1.584-5.747 0z" transform="translate(-879 -511) translate(791 40) translate(30 432) translate(51 35)"/>
                    </g>
                </g>
            </g>
        </g>
    </g>
</svg>
