<svg xmlns="http://www.w3.org/2000/svg" xmlns:xlink="http://www.w3.org/1999/xlink" width="18" height="22" viewBox="0 0 18 22">
    <defs>
        <path id="yx33rpn5ua" d="M0 0H24V24H0z"/>
    </defs>
    <g fill="none" fill-rule="evenodd">
        <g>
            <g>
                <g transform="translate(-162 -175) translate(129 156) translate(30 18)">
                    <mask id="n8ojmxditb" fill="#fff">
                        <use xlink:href="#yx33rpn5ua"/>
                    </mask>
                    <path fill="#99ABB2" stroke="#FFF" stroke-dasharray="0 0" stroke-width=".5" d="M19.904 8.586c-.049-.106-.11-.207-.196-.293l-6-6c-.086-.086-.187-.147-.293-.196-.03-.014-.062-.022-.094-.033-.084-.028-.17-.046-.259-.051C13.04 2.011 13.021 2 13 2H6c-1.103 0-2 .897-2 2v16c0 1.103.897 2 2 2h12c1.103 0 2-.897 2-2V9c0-.021-.011-.04-.013-.062-.005-.088-.022-.174-.05-.258-.011-.032-.02-.063-.033-.094zM14 8V5.414L16.586 8H14zM6 4h6v5c0 .553.447 1 1 1h5l.002 10H6V4z" mask="url(#n8ojmxditb)"/>
                </g>
            </g>
        </g>
    </g>
</svg>
