<svg xmlns="http://www.w3.org/2000/svg" width="29" height="29" viewBox="0 0 29 29">
    <g fill="none" fill-rule="evenodd">
        <path fill="#656582" fill-rule="nonzero" d="M26.007 18.242c-.926 0-1.811.443-2.367 1.185l-.28.374-.28-.374a2.955 2.955 0 0 0-1.147-.915 5.755 5.755 0 0 1-1.377-3.733V7.17a4.565 4.565 0 0 0-2.905-4.26A4.56 4.56 0 0 0 13.397 0h-1.25c-4.637 0-8.41 3.777-8.41 8.42v6.359a5.74 5.74 0 0 1-2.16 4.501l-.234.187.073.292c.15.603.695 1.624 1.773 2.04a5.744 5.744 0 0 0-1.35 2.267L.3 29h20.257v-.015a1.392 1.392 0 0 0 1.552-1.083l.57-2.565a.695.695 0 0 1 .681-.547c.33 0 .61.225.681.547l.57 2.565A1.393 1.393 0 0 0 25.975 29c.587 0 1.116-.37 1.316-.923l.9-2.479c.513-1.412.774-2.89.774-4.394a2.964 2.964 0 0 0-2.96-2.962zm-5.419.006a2.961 2.961 0 0 0-2.623 1.862c-.046-.008-.09-.02-.136-.027l-2.412-.371v-.485a6.563 6.563 0 0 0 3.124-4.292c.403-.056.77-.212 1.08-.447v.291c0 1.232.339 2.43.967 3.469zM8.185 20.764l.863-.132 2.21 5.534-2.818-1.048 1.74-1.307-2.59-1.556.595-1.49zm9.568-7.292l-3.669-.668a10.87 10.87 0 0 0-3.874 0l-3.67.668V9.355c0-1.032.839-1.871 1.87-1.871h4.856a6.007 6.007 0 0 0 3.102-.86 2.9 2.9 0 0 1 1.385 2.484v4.364zm-7.376.252a9.917 9.917 0 0 1 3.54 0l3.766.686c-.41 2.694-2.733 4.767-5.536 4.767-2.804 0-5.127-2.073-5.536-4.767l3.766-.686zm1.77 6.389c.823 0 1.61-.16 2.336-.44v.35l-2.336 5.846-2.336-5.846v-.35c.726.28 1.512.44 2.336.44zm.467 7.333l1.575-.63-.347-.87-.856.343 2.26-5.657.863.132.595 1.491-2.59 1.556 1.76 1.322-1.098.439.347.869 2.64-1.058-1.977-1.485 2.06-1.237c.081.718.222 1.427.424 2.123l-.513.064.401 3.217h-5.544v-.62zm5.218-4.886l-.65-1.63.506.078c.025.003.05.01.074.015-.003.06-.009.12-.009.181 0 .455.032.907.08 1.356zm1.1 4.153l.49 1.352H19.1l-.169-1.352zm-.264-12.76c.007-.13.02-.258.02-.388v-2.253c.542.194.934.708.934 1.317a1.4 1.4 0 0 1-.954 1.323zM12.147.934h1.25c1.566 0 2.95 1 3.446 2.487l.073.222.222.074a3.631 3.631 0 0 1 2.483 3.45v3.602a2.312 2.312 0 0 0-.934-.432v-1.23c0-1.469-.815-2.79-2.127-3.446l-.243-.121-.225.15c-.84.561-1.817.857-2.826.857H8.409a2.808 2.808 0 0 0-2.803 2.807v.983a2.318 2.318 0 0 0-.934.432V8.42c0-4.127 3.353-7.485 7.475-7.485zm-6.54 10.377v2.253c0 .13.011.258.019.387a1.4 1.4 0 0 1-.954-1.323c0-.609.392-1.123.934-1.317zm-3.19 8.483a6.668 6.668 0 0 0 2.255-5.016v-.29c.31.235.678.39 1.08.446a6.563 6.563 0 0 0 3.125 4.292v.485l-2.413.371a5.737 5.737 0 0 0-2.38.954c-1.015-.06-1.488-.824-1.668-1.242zm.314 4.55a4.862 4.862 0 0 1 3.875-3.337l.507-.078-.686 1.718 2.08 1.25-1.997 1.5 5.17 1.923v.744H6.136l.4-3.217-.926-.116-.416 3.333H1.57l1.161-3.72z"/>
        <path fill="#FFF" stroke="#07E2BD" d="M27.217 25.229l-.898 2.47a.465.465 0 0 1-.888-.058l-.567-2.556a1.618 1.618 0 0 0-1.588-1.275c-.768 0-1.42.524-1.587 1.275l-.567 2.555a.462.462 0 0 1-.454.364.466.466 0 0 1-.436-.305l-.897-2.47a11.846 11.846 0 0 1-.714-4.06c0-1.113.905-2.02 2.017-2.02.631 0 1.235.303 1.614.808l1.024 1.368 1.024-1.368a2.026 2.026 0 0 1 1.614-.807 2.02 2.02 0 0 1 2.017 2.019c0 1.389-.24 2.755-.714 4.06z"/>
        <path fill="#666" fill-rule="nonzero" d="M9.11 9.355a1.17 1.17 0 0 0 0 2.339 1.17 1.17 0 0 0 0-2.34zm0 1.403a.234.234 0 1 1 0-.468.234.234 0 0 1 0 .468zM15.184 9.355a1.17 1.17 0 0 0 0 2.339 1.17 1.17 0 0 0 0-2.34zm0 1.403a.234.234 0 1 1 0-.468.234.234 0 0 1 0 .468z"/>
    </g>
</svg>
