<svg xmlns="http://www.w3.org/2000/svg" width="24" height="24" viewBox="0 0 24 24">
    <g fill="none" fill-rule="evenodd">
        <g fill="#656566" fill-rule="nonzero">
            <g>
                <path d="M22.8 15.768l-2.024 2.025-4.876-4.877c-.275-.274-.72-.275-.995 0l-1.989 1.99c-.275.274-.274.72 0 .994l4.877 4.876-2.024 2.024c-.442.44-.13 1.2.497 1.2h7.03c.39 0 .704-.314.704-.703v-7.031c0-.624-.756-.94-1.2-.498zM11.084 8.1L6.207 3.224 8.231 1.2c.442-.44.13-1.2-.497-1.2H.704C.313 0 0 .314 0 .703v7.031c0 .622.754.942 1.2.498l2.025-2.024L8.1 11.084c.275.274.72.274.995 0l1.989-1.99c.273-.273.275-.718 0-.994z" transform="translate(-1162 -109) translate(1162 109)"/>
            </g>
        </g>
    </g>
</svg>
