<svg xmlns="http://www.w3.org/2000/svg" xmlns:xlink="http://www.w3.org/1999/xlink" width="190" height="56" viewBox="0 0 190 56">
    <defs>
        <linearGradient id="b" x1="19.215%" x2="69.302%" y1="-35.157%" y2="93.537%">
            <stop offset="0%" stop-color="#19A3B4"/>
            <stop offset="34.817%" stop-color="#5BC3AF"/>
            <stop offset="92.234%" stop-color="#C8F7A6"/>
            <stop offset="100%" stop-color="#D7FEA5"/>
        </linearGradient>
        <path id="a" d="M22.26 10.646L3.351.318C2.816.027 2.322-.04 1.92.083l15.487 15.383 4.851-4.82"/>
        <linearGradient id="c" x1="-14.698%" x2="74.844%" y1="-114.322%" y2="114.156%">
            <stop offset="0%" stop-color="#FC227C"/>
            <stop offset="100%" stop-color="#FEEB7B"/>
        </linearGradient>
        <linearGradient id="e" x1="28.151%" x2="48.188%" y1="-14.814%" y2="82.894%">
            <stop offset="0%" stop-color="#0E4DA0"/>
            <stop offset="100%" stop-color="#6BFED4"/>
        </linearGradient>
        <path id="d" d="M1.92.083C1.345.262.973.84.973 1.715l.003 27.54c0 .864.36 1.434.92 1.624l15.512-15.41L1.92.083"/>
        <linearGradient id="g" x1="132.245%" x2="5.959%" y1="16.466%" y2="126.31%">
            <stop offset="0%" stop-color="#FC472E"/>
            <stop offset=".332%" stop-color="#FC472F"/>
            <stop offset="100%" stop-color="#893CD8"/>
        </linearGradient>
        <path id="f" d="M1.895 30.88c.403.135.908.071 1.457-.228l18.93-10.342-4.874-4.841-15.513 15.41"/>
    </defs>
    <g fill="none" fill-rule="evenodd">
        <g>
            <rect width="190" height="55.233" fill="#FFF" rx="10"/>
            <g transform="translate(11.151 12.151)">
                <use fill="url(#b)" xlink:href="#a"/>
                <path fill="url(#c)" d="M22.284 20.31l6.454-3.525c1.31-.718 1.31-1.885 0-2.6l-6.478-3.54-4.852 4.821 4.876 4.844"/>
                <use fill="url(#e)" xlink:href="#d"/>
                <use fill="url(#g)" xlink:href="#f"/>
            </g>
        </g>
        <path fill="#656582" d="M125.834 33.061l-1.268 1.21c-.293.163-.584.352-.875.486-.88.405-1.775.506-2.57.506-.847 0-2.174-.055-3.528-1.046-1.88-1.34-2.703-3.644-2.703-5.652 0-4.157 3.345-6.196 6.073-6.196.953 0 1.932.242 2.728.751 1.324.886 1.667 2.037 1.857 2.654l-6.23 2.546-2.04.16c.66 3.41 2.94 5.391 5.458 5.391 1.258 0 2.191-.415 3.048-.843 0 0 .172-.091.05.033zm-3.759-6.78l-4.824 2.119c-.026-.482-.08-.963-.08-1.415 0-2.897 1.988-3.732 3.046-3.732 1.43 0 2.627 1.238 2.627 2.309 0 .373-.263.533-.769.72zm-9.267 6.573c0 1.041.184 1.203 1.055 1.285.454.054.906.078 1.354.132l-.98.59h-4.67c.612-.804.718-.884.718-1.42v-.598l-.01-15.94h-2.063l1.985-.969h3.79c-.821.482-1.067.775-1.172 1.713l-.007 15.207zm-7.242-9.17c.608.507 1.878 1.581 1.878 3.618 0 1.986-1.106 2.922-2.222 3.808-.342.348-.743.727-.743 1.311 0 .594.4.916.689 1.156l.957.747c1.164.994 2.225 1.906 2.225 3.757 0 2.522-2.413 5.065-6.971 5.065-3.84 0-5.697-1.85-5.697-3.835 0-.965.476-2.332 2.043-3.269 1.643-1.016 3.868-1.152 5.06-1.231-.372-.487-.797-.996-.797-1.827 0-.455.135-.725.266-1.045-.29.028-.582.057-.848.057-2.81 0-4.399-2.122-4.399-4.212 0-1.233.556-2.601 1.698-3.593 1.51-1.259 3.312-1.475 4.744-1.475h5.46l-1.697.969h-1.646zm-1.878 11.904c-.217-.03-.348-.03-.61-.03-.24 0-1.672.053-2.78.43-.587.217-2.282.858-2.282 2.763 0 1.9 1.83 3.27 4.662 3.27 2.544 0 3.895-1.233 3.895-2.895 0-1.367-.874-2.088-2.885-3.538zm.762-5.095c-.42.424-1.134.75-1.798.75-2.277 0-3.312-2.977-3.312-4.773 0-.696.135-1.42.583-1.98.422-.539 1.167-.888 1.854-.888 2.203 0 3.339 3.004 3.339 4.932 0 .485-.053 1.34-.666 1.96zm-15.313 4.715c-4.213 0-6.466-3.319-6.466-6.324 0-3.51 2.833-6.515 6.863-6.515 3.896 0 6.335 3.086 6.335 6.326 0 3.165-2.411 6.513-6.732 6.513zm3.313-2.17c-.61.857-1.668 1.365-2.704 1.365-3.212 0-4.506-4.37-4.506-7.018 0-1.157.185-2.336 1.22-3.274a3.671 3.671 0 0 1 2.388-.91c3.287 0 4.399 4.503 4.399 6.865 0 1.044-.156 2.115-.797 2.973zm-17.416 2.17c-4.213 0-6.463-3.319-6.463-6.324 0-3.51 2.834-6.515 6.863-6.515 3.893 0 6.33 3.086 6.33 6.326 0 3.165-2.408 6.513-6.73 6.513zm3.315-2.17c-.612.857-1.668 1.365-2.703 1.365-3.206 0-4.505-4.37-4.505-7.018 0-1.157.183-2.336 1.22-3.274a3.656 3.656 0 0 1 2.384-.91c3.283 0 4.398 4.503 4.398 6.865 0 1.044-.158 2.115-.794 2.973zm-11.462 1.24l-3.553.823c-1.44.23-2.732.43-4.1.43-6.853 0-9.464-5.102-9.464-9.096 0-4.878 3.7-9.4 10.035-9.4 1.34 0 2.63.2 3.805.523 1.862.53 2.733 1.182 3.277 1.564l-2.064 1.983-.87.197.62-1c-.84-.83-2.385-2.363-5.316-2.363-3.92 0-6.876 3.014-6.876 7.415 0 4.727 3.376 9.173 8.79 9.173 1.592 0 2.41-.323 3.154-.625V29.85l-3.751.204 1.988-1.08h5.265l-.644.626c-.174.15-.197.2-.246.4-.026.23-.05.957-.05 1.213v3.064zm66.585-1.103v6.83h-1.34V22.626h1.34v1.98c.873-1.28 2.469-2.293 4.322-2.293 3.324 0 5.563 2.55 5.563 6.59 0 4.01-2.239 6.615-5.563 6.615-1.75 0-3.317-.913-4.322-2.344zm8.445-4.272c0 3.049-1.569 5.39-4.35 5.39-1.726 0-3.377-1.423-4.095-2.622v-5.563c.718-1.197 2.37-2.57 4.096-2.57 2.78 0 4.349 2.321 4.349 5.365zm3.27-11.074h1.34v17.377h-1.34V17.83zm16.381 21.052c.287.13.776.209 1.086.209.82 0 1.39-.34 1.903-1.538l.978-2.24-5.28-12.685h1.495l4.53 10.992 4.485-10.992h1.516l-6.44 15.346c-.668 1.58-1.72 2.341-3.163 2.341-.434 0-1.006-.078-1.34-.182l.23-1.251zm-3.915-3.712c-.09-.436-.157-.82-.207-1.142a7.747 7.747 0 0 1-.064-.98c-.46.682-1.11 1.25-1.942 1.698-.833.45-1.623.67-2.708.67-1.306 0-2.32-.324-3.043-.983-.72-.66-1.083-1.551-1.083-2.68 0-1.128.525-2.043 1.572-2.743 1.048-.703 2.402-1.053 4.078-1.053h3.126v-1.563c0-.9-.303-1.608-.909-2.12-.608-.515-1.46-.775-2.566-.775-1.01 0-1.83.238-2.455.7-.619.472-.93 1.057-.93 1.762h-1.372l-.029-.068c-.049-.95.38-1.784 1.294-2.503.91-.72 2.1-1.081 3.567-1.081 1.46 0 2.644.356 3.535 1.066.89.703 1.337 1.72 1.337 3.048v6.205c0 .446.021.877.076 1.296.057.42.147.84.267 1.246h-1.544zm-4.757-.989c1.139 0 1.957-.257 2.793-.766.831-.506 1.397-1.167 1.693-1.966v-2.415h-3.141c-1.2 0-2.194.268-2.975.81-.783.54-1.18 1.194-1.18 1.955 0 .717.252 1.29.751 1.725.501.44 1.186.657 2.06.657z"/>
    </g>
</svg>
