<?xml version="1.0" encoding="UTF-8"?>
<svg width="31px" height="28px" viewBox="0 0 31 28" version="1.1" xmlns="http://www.w3.org/2000/svg" xmlns:xlink="http://www.w3.org/1999/xlink">
    <!-- Generator: Sketch 48.2 (47327) - http://www.bohemiancoding.com/sketch -->
    <title>gps-selected</title>
    <desc>Created with Sketch.</desc>
    <defs></defs>
    <g id="Page-1" stroke="none" stroke-width="1" fill="none" fill-rule="evenodd">
        <g id="gps-selected" transform="translate(1.000000, 0.000000)" fill="#07E2BD" fill-rule="nonzero" stroke="#07E2BD" stroke-width="0.3">
            <path d="M14.21,24.331 L14.5,24.524 L14.79,24.331 C15.177,24.041 24.167,17.717 24.167,9.848 C24.167,4.538 19.865,0.241 14.548,0.241 C9.232,0.241 4.93,4.538 4.93,9.848 C4.882,17.718 13.823,24.09 14.21,24.331 Z M14.5,1.207 C16.7938847,1.20328205 18.9950474,2.11212481 20.6181024,3.73311625 C22.2411574,5.35410769 23.1527997,7.55411246 23.152,9.848 C23.152,16.462 15.998,22.207 14.5,23.366 C13.002,22.206 5.848,16.462 5.848,9.896 C5.848,5.117 9.715,1.206 14.5,1.206 L14.5,1.207 Z M20.058,10.09 C20.058,7.048 17.545,4.538 14.5,4.538 C11.455,4.538 8.942,7.048 8.942,10.09 C8.942,13.131 11.455,15.641 14.5,15.641 C17.545,15.641 20.058,13.131 20.058,10.09 Z M9.908,10.09 C9.908,7.58 11.987,5.503 14.5,5.503 C17.013,5.503 19.092,7.579 19.092,10.09 C19.092,12.6 17.013,14.676 14.5,14.676 C11.987,14.676 9.908,12.6 9.908,10.09 Z M29,24.186 C29,26.793 20.348,27.759 14.5,27.759 C8.652,27.759 0,26.793 0,24.186 C0,22.352 4.35,21.338 8.942,20.903 C9.232,21.193 9.473,21.483 9.763,21.773 C3.963,22.255 0.967,23.463 0.967,24.186 C0.967,25.103 5.607,26.793 14.5,26.793 C23.393,26.793 28.033,25.103 28.033,24.186 C28.033,23.462 25.037,22.206 19.237,21.772 C19.527,21.482 19.768,21.193 20.058,20.903 C24.65,21.29 29,22.303 29,24.186 Z" id="Shape"></path>
        </g>
    </g>
</svg>