<svg xmlns="http://www.w3.org/2000/svg" width="31" height="28" viewBox="0 0 31 28">
    <path fill="#666" fill-rule="nonzero" stroke="#666" stroke-width=".3" d="M15.21 24.331l.29.193.29-.193c.387-.29 9.377-6.614 9.377-14.483 0-5.31-4.302-9.607-9.619-9.607-5.316 0-9.618 4.297-9.618 9.607-.048 7.87 8.893 14.242 9.28 14.483zm.29-23.124a8.638 8.638 0 0 1 8.652 8.641c0 6.614-7.154 12.359-8.652 13.518-1.498-1.16-8.652-6.904-8.652-13.47 0-4.779 3.867-8.69 8.652-8.69zm5.558 8.883c0-3.042-2.513-5.552-5.558-5.552s-5.558 2.51-5.558 5.552c0 3.041 2.513 5.551 5.558 5.551s5.558-2.51 5.558-5.551zm-10.15 0c0-2.51 2.079-4.587 4.592-4.587 2.513 0 4.592 2.076 4.592 4.587 0 2.51-2.079 4.586-4.592 4.586-2.513 0-4.592-2.076-4.592-4.586zM30 24.186c0 2.607-8.652 3.573-14.5 3.573-5.848 0-14.5-.966-14.5-3.573 0-1.834 4.35-2.848 8.942-3.283.29.29.531.58.821.87-5.8.482-8.796 1.69-8.796 2.413 0 .917 4.64 2.607 13.533 2.607s13.533-1.69 13.533-2.607c0-.724-2.996-1.98-8.796-2.414.29-.29.531-.579.821-.869 4.592.387 8.942 1.4 8.942 3.283z" opacity=".5"/>
</svg>
