<svg xmlns="http://www.w3.org/2000/svg" xmlns:xlink="http://www.w3.org/1999/xlink" width="329" height="247" viewBox="0 0 329 247">
    <defs>
        <path id="szu5tq627a" d="M0.035 0L328.035 0 328.035 247 0.035 247z"/>
    </defs>
    <g fill="none" fill-rule="evenodd">
        <g>
            <g>
                <g transform="translate(-602 -64) translate(602 64)"/>
                <path fill="#E5EAEB" d="M99.006 233.903c0 3.016-11.338 5.461-25.325 5.461s-25.326-2.445-25.326-5.46c0-3.017 11.339-5.462 25.326-5.462s25.325 2.445 25.325 5.461M239.448 233.903c0 3.016-13.84 5.461-30.916 5.461-17.074 0-30.915-2.445-30.915-5.46 0-3.017 13.841-5.462 30.915-5.462 17.075 0 30.916 2.445 30.916 5.461" transform="translate(-602 -64) translate(602 64)"/>
                <g>
                    <path fill="#E5EAEB" d="M228.309 216.154c0 1.832-19.51 3.318-43.576 3.318s-43.576-1.486-43.576-3.318 19.51-3.317 43.576-3.317 43.576 1.485 43.576 3.317" transform="translate(-602 -64) translate(602 64) translate(21.888 12.288)"/>
                    <path fill="#E4F6FE" d="M63.828 52.224s-44.412-9.216-58.236 15.36C-8.232 92.16 8.664 113.5 14.808 132.206c6.144 18.706-6.912 29.196-7.68 53.902-.768 24.708 21.326 22.493 79.728 22.493 58.403 0 130.704-.84 138.384-.84 7.68 0 22.806-26.016-3.38-46.424-26.188-20.409-11.966-32.497 8.572-46.229 20.536-13.732 41.038-74.02-8.573-103.204-49.61-29.184-97.92 2.304-109.67 27.264-11.749 24.96-48.361 13.056-48.361 13.056" transform="translate(-602 -64) translate(602 64) translate(21.888 12.288)"/>
                </g>
                <path fill="#F7F8F9" d="M192.358 59.464c-2.96 0-5.358-2.399-5.358-5.358 0-2.96 2.398-5.358 5.358-5.358 2.959 0 5.358 2.398 5.358 5.358 0 2.96-2.399 5.358-5.358 5.358m-92.72 0c-2.959 0-5.357-2.399-5.357-5.358 0-2.96 2.398-5.358 5.358-5.358 2.96 0 5.358 2.398 5.358 5.358 0 2.96-2.399 5.358-5.358 5.358M231.62 42.932H60.376c-5.4 0-9.776 4.377-9.776 9.776v155.161c0 5.4 4.377 9.776 9.776 9.776H231.62c5.398 0 9.775-4.376 9.775-9.776V52.708c0-5.4-4.377-9.776-9.775-9.776" transform="translate(-602 -64) translate(602 64)"/>
                <path fill="#E5EAEB" d="M151.368 137.681L174.86 137.681 174.86 120.267 151.368 120.267z" transform="translate(-602 -64) translate(602 64)"/>
                <path fill="#E05466" d="M192.264 131.921L215.756 131.921 215.756 114.507 192.264 114.507z" transform="translate(-602 -64) translate(602 64)"/>
                <path fill="#E5EAEB" d="M151.368 110.609L174.86 110.609 174.86 93.195 151.368 93.195z" transform="translate(-602 -64) translate(602 64)"/>
                <path fill="#E05466" d="M151.368 164.177L174.86 164.177 174.86 146.763 151.368 146.763z" transform="translate(-602 -64) translate(602 64)"/>
                <path fill="#E5EAEB" d="M151.368 191.249L174.86 191.249 174.86 173.835 151.368 173.835zM192.264 110.609L215.756 110.609 215.756 93.195 192.264 93.195z" transform="translate(-602 -64) translate(602 64)"/>
                <path fill="#E05466" d="M192.264 164.177L215.756 164.177 215.756 146.763 192.264 146.763z" transform="translate(-602 -64) translate(602 64)"/>
                <path fill="#E5EAEB" d="M192.264 191.249L215.756 191.249 215.756 173.835 192.264 173.835zM73.608 110.609L97.1 110.609 97.1 93.195 73.608 93.195zM73.608 164.177L97.1 164.177 97.1 146.763 73.608 146.763zM73.608 191.249L97.1 191.249 97.1 173.835 73.608 173.835zM73.608 137.681L97.1 137.681 97.1 120.267 73.608 120.267z" transform="translate(-602 -64) translate(602 64)"/>
                <path fill="#8ABD38" d="M112.2 137.681L135.692 137.681 135.692 120.267 112.2 120.267z" transform="translate(-602 -64) translate(602 64)"/>
                <path fill="#E5EAEB" d="M112.2 110.609L135.692 110.609 135.692 93.195 112.2 93.195zM112.2 164.177L135.692 164.177 135.692 146.763 112.2 146.763zM112.2 191.249L135.692 191.249 135.692 173.835 112.2 173.835z" transform="translate(-602 -64) translate(602 64)"/>
                <path fill="#FFB442" d="M192.358 59.464c-2.96 0-5.358-2.399-5.358-5.358 0-2.96 2.398-5.358 5.358-5.358 2.959 0 5.358 2.398 5.358 5.358 0 2.96-2.399 5.358-5.358 5.358zm-92.72 0c-2.959 0-5.357-2.399-5.357-5.358 0-2.96 2.398-5.358 5.358-5.358 2.96 0 5.358 2.398 5.358 5.358 0 2.96-2.399 5.358-5.358 5.358zm131.983-16.532H60.376c-5.4 0-9.776 4.377-9.776 9.776v14.677h190.796V52.708c0-5.4-4.377-9.776-9.775-9.776z" transform="translate(-602 -64) translate(602 64)"/>
                <text fill="#DC3E62" font-family="Montserrat-Regular, Montserrat" font-size="6.989" letter-spacing="-.001" transform="translate(-602 -64) translate(602 64)">
                    <tspan x="166.444" y="196.877">0</tspan> <tspan x="171.055" y="196.877" letter-spacing="16.266">1</tspan> <tspan x="189.844" y="196.877">0</tspan> <tspan x="194.455" y="196.877" letter-spacing="15.585">2</tspan> <tspan x="213.982" y="196.877" letter-spacing="-.057">0</tspan> <tspan x="218.481" y="196.877">3</tspan>
                </text>
                <path fill="#00A49E" d="M99.755 58.299c-2.018 0-3.669-1.65-3.669-3.67V34.538c0-2.018 1.651-3.67 3.67-3.67 2.017 0 3.668 1.652 3.668 3.67V54.63c0 2.018-1.651 3.669-3.669 3.669M192.474 58.299c-2.018 0-3.67-1.65-3.67-3.67V34.538c0-2.018 1.652-3.67 3.67-3.67s3.669 1.652 3.669 3.67V54.63c0 2.018-1.65 3.669-3.67 3.669" transform="translate(-602 -64) translate(602 64)"/>
                <path fill="#F2B5A7" d="M75.838 133.272s.122 4.052.142 4.62c-.932 1.276-2.593 1.965-2.593 1.965s-2.776-1.317-3.93-3.525c.04-2.128.202-5.876 0-6.686 1.924 1.742 6.381 3.626 6.381 3.626" transform="translate(-602 -64) translate(602 64)"/>
                <path fill="#F2B5A7" d="M76.201 123.417s3.446 5.059 2.727 9.901c-.546 1.19-5.67 2.76-8.304-.55-1.407.618-2.1-2.021-2.193-2.748-.092-.729 1.268-.502 1.664.097-.672-2.895-1.5-5.056-.591-5.665s6.108-2.012 6.697-1.035" transform="translate(-602 -64) translate(602 64)"/>
                <path fill="#262C46" d="M75.704 118.956c-.706.584-2.32 1.554-2.515 1.614.555-.467.602-1.479.196-1.492-.406-.013-.974.743-2.195 1.382-1.222.638-6.199-.034-5.664 2.609-1.148.398-2.138 1.822-1.265 4.003v.007c.156 1.632 2.855 6.248 3.955 6.978 1.634 1.082 3.366-.256 3.897-.61.532-.355.877-1.121.404-2.39-.471-1.27-.767-3.07 0-3.1.768-.03 1.418 1.506 1.418 1.506l.484-.178c-.283-.65-.307-1.506-.042-2.716.266-1.21.185-2.45.185-2.45l-.123-.048c.864-.397 1.628-.95 2.003-1.716 1.172-2.395-.032-3.983-.738-3.399M68.136 217.916s-2.41 1.256-3.264 1.606c-.853.352.1 4.469.653 4.67.552.2 1.065.953.809 1.907-.257.954.55 6.672 2.709 8.254 2.159 1.58 2.115-.129 1.89-2.087-.227-1.957-1.015-8.501.416-10.308 1.43-1.808-3.213-4.042-3.213-4.042M72.955 230.216s-.652 3.956-.3 4.86c.35.904 3.76.671 4.746.462.641-.137.686-.802.686-.802v-.803s2.272.745 4.507-.928c1.255-1.384.866-3.907-1.497-3.05-1.202.435-2.413 1.616-3.696-.04-.882-.503-4.446.3-4.446.3" transform="translate(-602 -64) translate(602 64)"/>
                <path fill="#012E40" d="M85.556 173.939s2.008 22.792 1.707 26.206c-.301 3.413-8.664 16.803-16.225 23.27-1.908-2.309-3.53-5.175-3.53-5.175s9.112-13.979 10.919-16.087c1.807-2.109-3.715-19.478-5.12-24.399-1.406-4.92 12.25-3.815 12.25-3.815" transform="translate(-602 -64) translate(602 64)"/>
                <path fill="#012E40" d="M64.872 177.052s1.657 14.352 2.636 21.684c.979 7.333 4.443 30.376 4.443 31.731 2.56 1.205 6.777 0 6.777 0s-2.456-23.236-2.607-27.369c-.15-4.133 1.28-21.92 1.28-21.92l-.78-5.985-11.749 1.859" transform="translate(-602 -64) translate(602 64)"/>
                <path fill="#99ABB2" d="M60.856 140.905s-4.606 15.234-4.921 18.147c-.315 2.912 8.188 17.437 8.188 17.437l4.014-4.69-6.105-12.314 2.84-7.675-4.016-10.905" transform="translate(-602 -64) translate(602 64)"/>
                <path fill="#F5F5F2" d="M68.426 136.733s.272-1.586.45-1.787c.177-.2 2.43-1.47 7.104-.195.69.242 1.044 1.982 1.044 1.982h-8.598" transform="translate(-602 -64) translate(602 64)"/>
                <path fill="#99ABB2" d="M60.856 140.905s6.125-3.514 7.556-4.568c1.43-1.055 6.651-.965 8.02-.587 1.719.472 9.3 1.264 9.6 1.264 1.13 4.142.754 8.887 0 10.995-.752 2.108-2.384 13.178-1.882 15.688s3.414 9.94 3.715 10.442c-4.016 5.322-16.265 5.925-24.6 4.62.403-8.435 2.009-12.05 2.21-16.568.2-4.518-1.276-7.168-2.121-8.77-3.128-5.922-2.498-12.516-2.498-12.516" transform="translate(-602 -64) translate(602 64)"/>
                <path fill="#F2B5A7" d="M108.744 129.116s1.984-1.132 2.137-1.843c.153-.712.858-2.524 1.17-2.937.313-.412 1.117-1.294 1.782-1.737.243-.163.743.62-.173 1.507-.56.543-.424.826-.36.823.062-.004 2.774-2.944 4.268-3.687.242-.161.975.202.245.912-.869.846-2.048 2.02-2.048 2.02.629.174.918.782.777 1 .646.2.702.703.565.979.516.165.5.872.28 1.242-.2.335-.746 1.498-3.355 2.062-1.32.01-3.063 1.724-3.063 1.724l-2.225-2.065" transform="translate(-602 -64) translate(602 64)"/>
                <path fill="#F5F5F2" d="M109.865 127.87L110.831 126.989 113.16 130.101 112.005 130.826 109.865 127.87" transform="translate(-602 -64) translate(602 64)"/>
                <path fill="#99ABB2" d="M85.992 137.023s11.345-.826 12.994-1.52c1.648-.692 11.062-8.107 11.062-8.107s2.326 2.906 2.44 3.334c-4.302 5.647-9.901 9.762-11.613 10.467-1.711.705-15.493 5.771-16.66 5.835.812-2.658 1.814-5.79 1.777-10.01" transform="translate(-602 -64) translate(602 64)"/>
                <path fill="#FFB442" d="M140.686 169.872c-.26 33.037 26.312 60.03 59.349 60.29 33.037.258 60.03-26.313 60.289-59.35.259-33.038-26.312-60.03-59.35-60.289-33.036-.26-60.029 26.312-60.288 59.35" transform="translate(-602 -64) translate(602 64)"/>
                <path fill="#E5EAEB" d="M148.692 169.935c-.225 28.615 22.79 51.995 51.406 52.22 28.615.224 51.995-22.79 52.22-51.407.225-28.615-22.79-51.994-51.406-52.22-28.616-.224-51.996 22.791-52.22 51.407" transform="translate(-602 -64) translate(602 64)"/>
                <path fill="#F7F8F9" d="M177.437 193.356c-6.078 0-11.822-1.057-16.601-3.049-.329-.138-.702-.105-1.055-.155-2.967-6.088-4.618-12.933-4.56-20.166.195-24.89 20.431-44.93 45.277-44.93l.362.001c8.23.065 15.92 2.331 22.54 6.22 3.632 10.481 2.865 30.162-4.361 41.082-9.661 14.6-26.645 20.997-41.602 20.997" transform="translate(-602 -64) translate(602 64)"/>
                <path fill="#67818C" d="M200.78 135.416c.87.006 1.588-.7 1.595-1.571l.076-9.699c.007-.87-.7-1.59-1.571-1.596-.87-.006-1.59.7-1.596 1.571l-.076 9.699c-.007.87.7 1.59 1.571 1.596M200.13 218.133c.87.008 1.589-.7 1.596-1.57l.076-9.699c.007-.871-.7-1.589-1.572-1.596-.87-.007-1.589.7-1.595 1.571l-.077 9.699c-.007.87.7 1.588 1.571 1.595M235.43 170.616c-.006.871.7 1.59 1.572 1.596l9.698.076c.872.007 1.59-.7 1.596-1.57.007-.872-.7-1.59-1.571-1.597l-9.698-.076c-.871-.007-1.59.7-1.596 1.571M152.713 169.966c-.007.872.7 1.59 1.57 1.597l9.7.075c.87.007 1.589-.699 1.596-1.57.007-.871-.7-1.59-1.572-1.596l-9.698-.076c-.87-.007-1.589.7-1.596 1.57M220.685 132.89c-.444.754-.192 1.725.562 2.168.754.443 1.725.192 2.168-.562.443-.754.191-1.725-.563-2.168-.754-.443-1.724-.192-2.167.563M177.595 206.188c-.443.754-.192 1.725.562 2.168.754.443 1.725.191 2.168-.563.443-.754.192-1.724-.562-2.168-.754-.443-1.725-.191-2.168.563M236.706 147.998c-.76.431-1.028 1.398-.596 2.158.431.761 1.398 1.029 2.158.597.761-.431 1.028-1.398.597-2.158-.432-.762-1.397-1.029-2.159-.597M162.741 189.93c-.76.432-1.028 1.398-.596 2.16.431.76 1.398 1.027 2.158.596.76-.431 1.028-1.398.597-2.159-.432-.76-1.398-1.028-2.159-.597M237.956 190.521c-.753-.443-1.725-.19-2.168.563-.443.754-.191 1.725.563 2.168.754.443 1.724.191 2.168-.563.443-.754.192-1.725-.563-2.168M164.658 147.432c-.753-.444-1.724-.191-2.167.563-.444.754-.191 1.724.563 2.167.753.444 1.724.191 2.168-.562.443-.754.19-1.724-.564-2.168M222.85 206.543c-.432-.76-1.399-1.027-2.16-.596-.761.431-1.028 1.398-.597 2.159.431.76 1.398 1.028 2.159.596.761-.431 1.029-1.398.597-2.159M180.916 132.578c-.431-.76-1.398-1.027-2.158-.596-.762.43-1.029 1.398-.597 2.158.431.761 1.397 1.028 2.159.597.76-.431 1.027-1.398.596-2.159" transform="translate(-602 -64) translate(602 64)"/>
                <path fill="#F1A656" d="M216.583 158.434c4.736-1.848 26.84-11.357 26.84-11.357l.082.151.16.3.082.151s-20.118 13.202-24.27 16.135c-4.153 2.933-18.876 7.52-18.876 7.52l-.269-.498-.16-.3-.269-.498s11.943-9.756 16.68-11.604M185.475 173.556c-3.624-.561-20.83-2.4-20.83-2.4l-.003-.171-.005-.34-.002-.172s17.142-2.355 20.749-3.025c3.606-.67 14.497 2.1 14.497 2.1l.008.567.014.907s-10.803 3.097-14.428 2.534" transform="translate(-602 -64) translate(602 64)"/>
                <path fill="#42B8B8" d="M197.338 170.317c-.014 1.75 1.393 3.178 3.142 3.192 1.75.014 3.178-1.393 3.192-3.142.014-1.75-1.393-3.179-3.142-3.193-1.75-.013-3.179 1.394-3.192 3.143" transform="translate(-602 -64) translate(602 64)"/>
                <path fill="#012E40" d="M216.867 205.517s-12.356-14.742-18.69-12.78c-6.334 1.961 3.728 32.897 3.728 32.897l6.082-.502-1.888-14.248s1.998 11.726 11.991 10.463c9.993-1.264 11.699-6.72 11.225-10.66-.473-3.94-12.448-5.17-12.448-5.17" transform="translate(-602 -64) translate(602 64)"/>
                <path fill="#343E5D" d="M229.315 210.687c-.473-3.94-12.448-5.17-12.448-5.17l-.117-.138-7.33 12.675c1.823 2.145 4.574 3.81 8.67 3.293 9.993-1.264 11.699-6.72 11.225-10.66" transform="translate(-602 -64) translate(602 64)"/>
                <path fill="#262C46" d="M224.111 222.003s4.809-.837 6.249-1.105c.172-.033.352.032.455.174 1.324 1.84.993 4.635.993 4.635l-.822.274s1.236 3.688.695 6.315c-.245 1.193-1.564 3.563-5.91 3.242-.753-1.04.14-1.864 1.073-2.952 1.39-1.622 1.014-5.582-1.38-5.504-1.391-1.158-1.353-5.079-1.353-5.079" transform="translate(-602 -64) translate(602 64)"/>
                <path fill="#414975" d="M230.36 220.897c-.28.053-.687.126-1.162.211-.121.153-.2.353-.21.615-.06 1.39.405 3.447.752 4.634.348 1.189.232 5.794-.608 7.271-.84 1.478-2.578 1.4-3.49 1.7.037.069.079.139.13.21 4.345.32 5.664-2.05 5.909-3.242.54-2.627-.695-6.315-.695-6.315l.822-.274s.33-2.795-.993-4.635c-.103-.142-.282-.207-.454-.175" transform="translate(-602 -64) translate(602 64)"/>
                <path fill="#5E658B" d="M230.083 220.949c-.135.144-.237.341-.237.63 0 .946.619 3.745.889 3.958.212.167.606.225 1.073.168.004-.027.325-2.803-.993-4.633-.103-.142-.282-.207-.454-.175l-.278.052M231.023 225.969c-.34-.071-.935-.19-.935-.19s.454 1.747.377 3.987c-.078 2.24-.643 4.145-1.435 4.782-.606.488-1.284.824-2.073 1.003 3.4-.153 4.503-2.18 4.724-3.255.54-2.627-.695-6.315-.695-6.315l.037-.012" transform="translate(-602 -64) translate(602 64)"/>
                <path fill="#012E40" d="M208.43 207.443s-14.018 14.985-16.896 20.237c-2.878 5.253 2.627 10.042 8.449 6.334 5.822-3.707 8.511-10.543 15.11-11.547 3.788-.577 10.62-.58 11.104-12.768.378-9.571-17.766-2.256-17.766-2.256" transform="translate(-602 -64) translate(602 64)"/>
                <path fill="#012E40" d="M192.51 234.218s6.381 3.697 19.01-1.285c10.776-4.056 14.721-4.866 14.721-4.866l-1.788-6.72c-4.359 1.622-21.522.02-31.942 12.871" transform="translate(-602 -64) translate(602 64)"/>
                <path fill="#F2B5A7" d="M212.827 170.197s.257 3.97.29 4.525c1.03 1.16 2.717 1.679 2.717 1.679s2.588-1.545 3.511-3.81c-.237-2.073-.744-5.72-.622-6.53-1.718 1.88-5.896 4.136-5.896 4.136" transform="translate(-602 -64) translate(602 64)"/>
                <path fill="#F2B5A7" d="M211.556 160.605s-2.895 5.261-1.743 9.925c.645 1.109 5.795 2.168 8.06-1.31 1.432.473 1.864-2.17 1.886-2.889.023-.72-1.285-.371-1.615.25.387-2.89.995-5.078.05-5.588-.944-.51-6.154-1.397-6.638-.388" transform="translate(-602 -64) translate(602 64)"/>
                <path fill="#262C46" d="M211.626 156.202c.745.504 2.412 1.3 2.607 1.342-.585-.405-.725-1.388-.33-1.44.395-.05 1.02.636 2.273 1.146 1.252.51 6.052-.61 5.775 2.022 1.158.281 2.258 1.581 1.607 3.793l.001.006c0 1.609-2.207 6.369-3.214 7.183-1.496 1.21-3.311.064-3.863-.233-.552-.297-.961-1.013-.617-2.297.342-1.283.463-3.07-.289-3.028-.752.043-1.244 1.603-1.244 1.603l-.49-.129c.216-.66.16-1.498-.212-2.656-.372-1.158-.408-2.376-.408-2.376l.116-.058c-.881-.308-1.678-.776-2.116-1.49-1.367-2.231-.34-3.893.404-3.388" transform="translate(-602 -64) translate(602 64)"/>
                <path fill="#F5F5F2" d="M220.388 172.888s-.413-1.523-.605-1.703c-.192-.18-2.51-1.21-6.957.47-.651.3-.835 2.033-.835 2.033l8.397-.8" transform="translate(-602 -64) translate(602 64)"/>
                <path fill="#CCD5D9" d="M227.63 173.263s-5.768.133-7.264-.763c-1.496-.897-6.586-.324-7.89.172-1.633.621-8.965 2.101-9.259 2.13-.717 4.15.091 8.748 1.023 10.738.931 1.99 5.608 10.61 5.35 13.11-.255 2.497-4.127 10.546-4.374 11.065 4.417 4.824 17.346 4.007 25.364 1.957.173-6.903-1.265-9.136-1.265-13.573 0-4.603.095-7.887 0-9.965-.34-7.459-1.686-14.871-1.686-14.871" transform="translate(-602 -64) translate(602 64)"/>
                <path fill="#F2B5A7" d="M185.747 173.025s-1.15-1.923-.937-2.606c.213-.681.484-2.57.416-3.074-.068-.502-.247-2.155-.6-2.855-.13-.256-1.017.683-.663 1.883.216.735-.036.91-.088.877-.052-.034.618-.606-.3-1.961-.13-.254-1.106-.266-1.21.174-.032.138-.234-.047-.234-.047-.621-.154-1.161.225-1.146.48-.649-.14-.94.262-.954.563-.521-.107-.849.504-.84.927.01.382-.085 1.64 1.873 3.38 1.122.645 1.786 2.95 1.786 2.95l2.897-.691" transform="translate(-602 -64) translate(602 64)"/>
                <path fill="#F5F5F2" d="M185.747 172.148L185.182 171.004 181.691 172.539 182.328 173.716 185.747 172.148" transform="translate(-602 -64) translate(602 64)"/>
                <path fill="#CCD5D9" d="M203.217 174.801s-9.624 9.61-10.699 8.223c-1.073-1.387-6.593-11.43-6.593-11.43s-4.11 1.676-4.414 1.987c1.912 6.788 5.207 16.266 6.779 17.177 5.226 3.032 16.143-3.447 16.994-4.58.588-2.662.771-8.937-2.067-11.377" transform="translate(-602 -64) translate(602 64)"/>
                <path fill="#F2B5A7" d="M230.787 160.143s-.871-2.064-1.547-2.296c-.676-.231-2.359-1.13-2.725-1.481-.365-.353-1.592-1.475-1.947-2.174-.13-.255 1.151-.416 1.91.579.464.61.756.51.76.448.003-.062-.855.14-1.406-1.401-.128-.255.44-1.05.856-.873.131.056.102-.217.102-.217.242-.592.868-.803 1.065-.64.27-.606.766-.603 1.018-.436.221-.483.908-.387 1.243-.129.303.234 1.374.901 1.619 3.509-.144 1.286 1.323 3.184 1.323 3.184l-2.27 1.927" transform="translate(-602 -64) translate(602 64)"/>
                <path fill="#F5F5F2" d="M230.264 159.483L229.518 158.439 232.821 156.532 233.462 157.62 230.264 159.483" transform="translate(-602 -64) translate(602 64)"/>
                <path fill="#CCD5D9" d="M227.104 173.263l8.632-3.363-5.895-10.518 3.761-2.22s8.139 9.232 8.912 14.868c-.61 5.056-12.056 10.647-12.575 11.081-.517.434-.776 1.188-.966 2.462-.768-1.622-1.869-12.31-1.869-12.31" transform="translate(-602 -64) translate(602 64)"/>
            </g>
        </g>
    </g>
</svg>
