<svg xmlns="http://www.w3.org/2000/svg" xmlns:xlink="http://www.w3.org/1999/xlink" width="205" height="190" viewBox="0 0 205 190">
    <defs>
        <path id="bdf8d6erqa" d="M4.865 110.503c-2.677 0-4.857-2.17-4.857-4.858V7.888c0-3.645 2.475-6.712 5.836-7.611-.222.354-.35.774-.348 1.228L6.1 103.982c.005.984.747 1.807 1.726 1.91 3.922.41 9.566.572 16.025.572 5.835 0 12.333-.132 18.813-.331v1.289c0 .9.334 1.739.897 2.379l-21.043.382-17.563.32h-.09M83.91 47.8h-4.607L76.992 4.3c-.06-1.133-.999-2.003-2.114-2.003-.054 0-.11.002-.165.007-5.204.4-10.624.565-16.043.565-17.199 0-34.357-1.673-44.36-2.86h60.572c3.696 0 6.744 2.897 6.932 6.589L83.91 47.8"/>
        <path id="w00xckpr4c" d="M18.367 107.293c-6.458 0-12.102-.161-16.025-.572-.978-.102-1.72-.926-1.726-1.91L.013 2.335C.01 1.881.139 1.46.36 1.106.767.457 1.49.031 2.297.031c.102 0 .207.007.312.02l.088.013C4.2.267 6.281.537 8.827.839c10.002 1.186 27.16 2.86 44.36 2.86 5.418 0 10.838-.167 16.042-.566.056-.004.111-.006.166-.006 1.115 0 2.053.87 2.113 2.002l2.312 43.5h-1.739L69.894 7.47c-.058-1.09-.961-1.927-2.034-1.927-.053 0-.106.002-.16.006-5.008.384-10.223.544-15.438.544-20.846 0-41.63-2.554-48.673-3.51-.102-.013-.202-.02-.3-.02-1.2 0-2.206.98-2.198 2.217l.58 98.619c.005.946.72 1.739 1.661 1.837 3.775.396 9.207.55 15.422.55 5.713 0 12.083-.13 18.426-.328v1.505c-6.48.2-12.978.331-18.813.331"/>
        <path id="260jqwuxke" d="M4.78 7.137c-1.048 0-1.896-.849-1.896-1.895 0-1.047.848-1.896 1.895-1.896 1.047 0 1.896.849 1.896 1.896 0 1.046-.849 1.895-1.896 1.895zm3.342-5.625C5.702-.172 3.598-.138 2.117.299.765.698-.11 2.002.018 3.405l.64 6.973 7.6.674s4.61-6.238-.136-9.54z"/>
        <path id="f5qjxli6lg" d="M.005 5.668V2.162c0-1.21 1.003-2.18 2.213-2.138l24.169.828c1.073.037 1.941.884 2.006 1.955l.201 3.368L.005 5.668"/>
        <path id="ewqi3ov4qi" d="M16.868.006S9.182 12.162.043 14.51c0 0 1.78 5.072 3.155 5.653 0 0 11.244-9.382 14.134-18.43L16.868.006"/>
        <path id="c7qshx260j" d="M1.64.717L.063 7.802c-.151.624.418.522 1.049.403 1.033-.194 2.365-.596 2.81-1.4.045-.082.068-.174.081-.267l.677-4.913c.054-.39-.156-.768-.516-.928L2.856.117c-.504-.223-1.087.064-1.216.6"/>
        <path id="qu0c57t6ok" d="M1.822 1.645S1.518-.489.428.121c-1.09.61.393 1.994.988 2.464l.406-.94"/>
        <path id="nw0nd43njl" d="M1.24 7.07c.023.25-.91.424-1.206-.645.082-.464.226-2.496.582-2.812C2.512 1.93 5.891.039 5.891.039c.379.578-.117.957-.117.957L4.086 2.135c.176.583.434 1.098.463 1.764.021.503-.165.997-.499 1.38-.336.383-.788.878-1.195 1.254-.772.712-1.615.537-1.615.537"/>
        <path id="jqkpe0isam" d="M30.332 9.526H7.498v-.293c0-.305-.247-.552-.552-.552H.026V.567C.027.262.275.015.58.015h29.493c.305 0 .552.247.552.552v8.667c0 .161-.131.292-.292.292zm-3.125-1.25h1.098V1.374h-1.098v6.904zm-2.26 0h1.098V1.374h-1.099v6.904zm-2.26 0h1.098V1.374h-1.098v6.904zm-2.26 0h1.098V1.374h-1.099v6.904zm-2.26 0h1.098V1.374h-1.099v6.904zm-2.261 0h1.099V1.374h-1.1v6.904zm-2.26 0h1.099V1.374h-1.099v6.904zm-2.26 0h1.098V1.374h-1.098v6.904zm-2.26 0h1.099V1.374h-1.1v6.904zm-2.26 0h1.098V1.374H6.866v6.904zm-2.26 0h1.098V1.374H4.606v6.904zm-2.26 0h1.098V1.374H2.345v6.904z"/>
        <path id="55o2ns31qo" d="M10.726 47.152c-2.95 0-5.817-.228-7.882-.689-.729-.162-1.363-.54-1.843-1.057l-.064-.071c-.563-.64-.897-1.478-.897-2.38V.026h22.8v42.872c0 .93-.372 1.79-.99 2.417-.44.444-1.001.772-1.642.926-2.528.605-6.06.912-9.482.912M5.163 7.648c-.786 0-1.423.637-1.423 1.423v24.884c0 .785.637 1.422 1.423 1.422h12.984c.786 0 1.423-.637 1.423-1.422V9.07c0-.786-.637-1.423-1.423-1.423H5.163"/>
        <path id="fgrjrzsa6p" d="M14.415 27.774H1.43c-.785 0-1.423-.637-1.423-1.423V1.468C.007.682.645.045 1.43.045h12.985c.786 0 1.423.637 1.423 1.423v24.883c0 .786-.637 1.423-1.423 1.423"/>
        <path id="nkiha68yzq" d="M3.857.001l10.985 1.272c4.594.532 7.917 4.726 7.385 9.32-.532 4.593-4.725 7.916-9.32 7.384l-12.86-1.49c-.1-5.752 1.08-11.396 3.81-16.486"/>
    </defs>
    <g fill="none" fill-rule="evenodd">
        <g>
            <g>
                <path d="M0.165 0H203.165V190H0.165z" transform="translate(-1132 -120) translate(1132.835 120)"/>
                <g>
                    <path fill="#345766" d="M42.97 35.2S12.934 28.966 3.584 45.588c-9.35 16.622 2.078 31.057 6.233 43.708 4.156 12.651-4.675 19.746-5.194 36.456-.52 16.711 14.424 15.213 53.924 15.213s88.402-.568 93.596-.568c5.194 0 15.425-17.596-2.287-31.399-17.711-13.803-8.092-21.979 5.798-31.266 13.89-9.288 27.757-50.064-5.798-69.803-33.554-19.738-66.228 1.559-74.174 18.44-7.947 16.882-32.71 8.83-32.71 8.83" opacity=".1" transform="translate(-1132 -120) translate(1132.835 120) translate(0 25.472)"/>
                    <g>
                        <g transform="translate(-1132 -120) translate(1132.835 120) translate(0 25.472) translate(41.165 19.528) translate(10.513 15.68)">
                            <mask id="p92vepl6eb" fill="#fff">
                                <use xlink:href="#bdf8d6erqa"/>
                            </mask>
                            <path fill="#345766" d="M.008 105.645V7.888c0-3.645 2.475-6.712 5.836-7.611-.222.354-.35.774-.348 1.228L6.1 103.982c.005.984.747 1.807 1.726 1.91 3.922.41 9.566.572 16.025.572 5.835 0 12.333-.132 18.813-.331v1.289c0 .9.334 1.739.897 2.379l-21.043.382-17.563.32h-.09c-2.677 0-4.857-2.17-4.857-4.858zM79.304 47.8L76.992 4.3c-.06-1.133-.999-2.003-2.114-2.003-.054 0-.11.002-.165.007-5.204.4-10.624.565-16.043.565-17.199 0-34.357-1.673-44.36-2.86h60.572c3.696 0 6.744 2.897 6.932 6.589L83.91 47.8h-4.607z" mask="url(#p92vepl6eb)"/>
                        </g>
                        <g transform="translate(-1132 -120) translate(1132.835 120) translate(0 25.472) translate(41.165 19.528) translate(15.996 14.85)">
                            <mask id="dptsoi6a5d" fill="#fff">
                                <use xlink:href="#w00xckpr4c"/>
                            </mask>
                            <path fill="#99ABB2" d="M18.367 107.293c-6.458 0-12.102-.161-16.025-.572-.978-.102-1.72-.926-1.726-1.91L.013 2.335C.01 1.881.139 1.46.36 1.106.767.457 1.49.031 2.297.031c.102 0 .207.007.312.02l.088.013C4.2.267 6.281.537 8.827.839c10.002 1.186 27.16 2.86 44.36 2.86 5.418 0 10.838-.167 16.042-.566.056-.004.111-.006.166-.006 1.115 0 2.053.87 2.113 2.002l2.312 43.5h-1.739L69.894 7.47c-.058-1.09-.961-1.927-2.034-1.927-.053 0-.106.002-.16.006-5.008.384-10.223.544-15.438.544-20.846 0-41.63-2.554-48.673-3.51-.102-.013-.202-.02-.3-.02-1.2 0-2.206.98-2.198 2.217l.58 98.619c.005.946.72 1.739 1.661 1.837 3.775.396 9.207.55 15.422.55 5.713 0 12.083-.13 18.426-.328v1.505c-6.48.2-12.978.331-18.813.331" mask="url(#dptsoi6a5d)"/>
                        </g>
                        <path fill="#F7F8F9" d="M17.087 19.63c-.008-1.34 1.17-2.377 2.498-2.197 8.804 1.194 39.08 4.887 64.112 2.965 1.141-.088 2.132.777 2.193 1.92l4.99 93.891c.069 1.288-.915 2.389-2.202 2.465-10.528.623-53.885 3.031-69.35 1.411-.94-.098-1.655-.89-1.661-1.837l-.58-98.619" transform="translate(-1132 -120) translate(1132.835 120) translate(0 25.472) translate(41.165 19.528)"/>
                        <path fill="#CCD5D9" d="M83.288 54.54H26.88c-.115 0-.267-.073-.339-.163l-1.18-1.483c-.071-.089-.037-.161.076-.161h.002l57.76.455c.115 0 .215.095.222.21l.063.934c.007.114-.081.208-.196.208M83.288 60.463H26.88c-.115 0-.267-.073-.339-.163l-1.18-1.483c-.071-.089-.037-.161.076-.161h.002l57.76.455c.115 0 .215.095.222.21l.063.934c.007.114-.081.208-.196.208M69.337 67.892H27.12c-.114 0-.267-.073-.338-.163l-1.18-1.483c-.072-.089-.037-.161.076-.161h.002l43.657.344v1.463" transform="translate(-1132 -120) translate(1132.835 120) translate(0 25.472) translate(41.165 19.528)"/>
                        <g transform="translate(-1132 -120) translate(1132.835 120) translate(0 25.472) translate(41.165 19.528) translate(47.93 .934)">
                            <mask id="81i3yfcaef" fill="#fff">
                                <use xlink:href="#260jqwuxke"/>
                            </mask>
                            <path fill="#345766" d="M4.78 7.137c-1.048 0-1.896-.849-1.896-1.895 0-1.047.848-1.896 1.895-1.896 1.047 0 1.896.849 1.896 1.896 0 1.046-.849 1.895-1.896 1.895zm3.342-5.625C5.702-.172 3.598-.138 2.117.299.765.698-.11 2.002.018 3.405l.64 6.973 7.6.674s4.61-6.238-.136-9.54z" mask="url(#81i3yfcaef)"/>
                        </g>
                        <g transform="translate(-1132 -120) translate(1132.835 120) translate(0 25.472) translate(41.165 19.528) translate(38.207 10.15)">
                            <mask id="p5onu9elkh" fill="#fff">
                                <use xlink:href="#f5qjxli6lg"/>
                            </mask>
                            <path fill="#345766" d="M.005 5.668V2.162c0-1.21 1.003-2.18 2.213-2.138l24.169.828c1.073.037 1.941.884 2.006 1.955l.201 3.368L.005 5.668" mask="url(#p5onu9elkh)"/>
                        </g>
                        <path fill="#CCD5D9" d="M28.364 16.703c.058-1.214 1.06-2.168 2.275-2.168l42.265-.001c1.52 0 2.818 1.093 3.078 2.59l.036.207c.284 1.64-.98 3.14-2.644 3.14H30.013c-.996 0-1.79-.832-1.743-1.827l.094-1.941" transform="translate(-1132 -120) translate(1132.835 120) translate(0 25.472) translate(41.165 19.528)"/>
                        <path fill="#0074A3" d="M49.26 37.279c0 6.056-4.908 10.965-10.964 10.965S27.33 43.334 27.33 37.279c0-6.057 4.91-10.966 10.966-10.966 6.056 0 10.965 4.91 10.965 10.966" transform="translate(-1132 -120) translate(1132.835 120) translate(0 25.472) translate(41.165 19.528)"/>
                        <path fill="#FFF" d="M44.573 34.249H40.93V31.11c0-.737-.598-1.334-1.334-1.334h-2.67c-.738 0-1.335.597-1.335 1.334v3.139h-3.643c-.737 0-1.334.597-1.334 1.334v3.103c0 .736.597 1.334 1.334 1.334h3.643v3.139c0 .736.597 1.334 1.334 1.334h2.67c.737 0 1.335-.598 1.335-1.334V40.02h3.643c.737 0 1.334-.598 1.334-1.334v-3.103c0-.737-.597-1.334-1.334-1.334" transform="translate(-1132 -120) translate(1132.835 120) translate(0 25.472) translate(41.165 19.528)"/>
                        <g transform="translate(-1132 -120) translate(1132.835 120) translate(0 25.472) translate(41.165 19.528) translate(5.075 46.738)"/>
                        <g transform="translate(-1132 -120) translate(1132.835 120) translate(0 25.472) translate(41.165 19.528) translate(.56 54.848)"/>
                        <g transform="translate(-1132 -120) translate(1132.835 120) translate(0 25.472) translate(41.165 19.528) translate(.744 52.037)"/>
                        <g transform="translate(-1132 -120) translate(1132.835 120) translate(0 25.472) translate(41.165 19.528) translate(20.65 42.176)"/>
                        <path fill="#0074A3" d="M73.142 77.098L96.13 77.098 96.13 71.045 73.142 71.045z" transform="translate(-1132 -120) translate(1132.835 120) translate(0 25.472) translate(41.165 19.528)"/>
                        <path fill="#0074A3" d="M66.034 125.46h37.205c.92 0 1.666-.747 1.666-1.667V76.117c0-.92-.746-1.666-1.666-1.666H66.034c-.92 0-1.666.746-1.666 1.666v47.676c0 .92.746 1.666 1.666 1.666" transform="translate(-1132 -120) translate(1132.835 120) translate(0 25.472) translate(41.165 19.528)"/>
                        <path fill="#CCD5D9" d="M99.077 117.497H69.774v-32.44h29.303c.385 0 .697.248.697.554v31.333c0 .305-.312.553-.697.553" transform="translate(-1132 -120) translate(1132.835 120) translate(0 25.472) translate(41.165 19.528)"/>
                        <g transform="translate(-1132 -120) translate(1132.835 120) translate(0 25.472) translate(41.165 19.528) translate(69.31 63.465)">
                            <mask id="z5joggza6n" fill="#fff">
                                <use xlink:href="#jqkpe0isam"/>
                            </mask>
                            <path fill="#004662" d="M7.498 9.526H.872c-.467 0-.845-.378-.845-.845V.567c0-.305.247-.552.552-.552h29.493c.305 0 .552.247.552.552v8.667c0 .161-.131.292-.292.292H7.498zm19.709-1.25h1.098V1.374h-1.098v6.904zm-2.26 0h1.098V1.374h-1.099v6.904zm-2.26 0h1.098V1.374h-1.098v6.904zm-2.26 0h1.098V1.374h-1.099v6.904zm-2.26 0h1.098V1.374h-1.099v6.904zm-2.261 0h1.099V1.374h-1.1v6.904zm-2.26 0h1.099V1.374h-1.099v6.904zm-2.26 0h1.098V1.374h-1.098v6.904zm-2.26 0h1.099V1.374h-1.1v6.904zm-2.26 0h1.098V1.374H6.866v6.904zm-2.26 0h1.098V1.374H4.606v6.904zm-2.26 0h1.098V1.374H2.345v6.904z" mask="url(#z5joggza6n)"/>
                        </g>
                        <path fill="#002A3C" d="M96.517 71.742L97.616 71.742 97.616 64.837 96.517 64.837zM94.257 71.742L95.356 71.742 95.356 64.837 94.257 64.837zM91.997 71.742L93.096 71.742 93.096 64.837 91.997 64.837zM89.737 71.742L90.836 71.742 90.836 64.837 89.737 64.837zM87.477 71.742L88.575 71.742 88.575 64.837 87.477 64.837zM85.217 71.742L86.316 71.742 86.316 64.837 85.217 64.837zM82.957 71.742L84.055 71.742 84.055 64.837 82.957 64.837zM80.697 71.742L81.795 71.742 81.795 64.837 80.697 64.837zM78.436 71.742L79.535 71.742 79.535 64.837 78.436 64.837zM76.177 71.742L77.275 71.742 77.275 64.837 76.177 64.837zM73.916 71.742L75.015 71.742 75.015 64.837 73.916 64.837zM71.656 71.742L72.755 71.742 72.755 64.837 71.656 64.837z" transform="translate(-1132 -120) translate(1132.835 120) translate(0 25.472) translate(41.165 19.528)"/>
                        <g transform="translate(-1132 -120) translate(1132.835 120) translate(0 25.472) translate(41.165 19.528) translate(53.137 80.146)"/>
                        <g transform="translate(-1132 -120) translate(1132.835 120) translate(0 25.472) translate(41.165 19.528) translate(56.87 87.749)"/>
                        <path fill="#E5EAEB" d="M36.83 107.792l13.16 1.524c-2.73 5.09-3.91 10.733-3.81 16.486l-11.284-1.307c-4.594-.531-7.917-4.725-7.385-9.318.532-4.594 4.726-7.917 9.32-7.385" transform="translate(-1132 -120) translate(1132.835 120) translate(0 25.472) translate(41.165 19.528)"/>
                        <g transform="translate(-1132 -120) translate(1132.835 120) translate(0 25.472) translate(41.165 19.528) translate(46.132 109.314)">
                            <mask id="0irn6vuovr" fill="#fff">
                                <use xlink:href="#nkiha68yzq"/>
                            </mask>
                            <path fill="#5DAF41" d="M3.857.001l10.985 1.272c4.594.532 7.917 4.726 7.385 9.32-.532 4.593-4.725 7.916-9.32 7.384l-12.86-1.49c-.1-5.752 1.08-11.396 3.81-16.486" mask="url(#0irn6vuovr)"/>
                        </g>
                    </g>
                </g>
            </g>
        </g>
    </g>
</svg>
