<svg xmlns="http://www.w3.org/2000/svg" width="23" height="31" viewBox="0 0 23 31">
    <g fill="none" fill-rule="evenodd" stroke="#666" opacity=".5" transform="translate(1 1)">
        <path fill="#666" fill-rule="nonzero" stroke-width=".3" d="M6.945 8.781h1.681v1.553c0 .46.354.854.774.854h1.106c.42 0 .774-.372.774-.854V8.781h1.615c.53 0 .95-.35.95-.765V7.14c0-.416-.42-.766-.95-.766H11.28V4.844c0-.525-.354-.94-.774-.94H9.4c-.42 0-.774.415-.774.94v1.531h-1.68c-.465 0-.864.35-.864.766v.875c0 .415.376.765.863.765zm-.42-1.64c0-.175.199-.329.42-.329h2.123V4.845c0-.307.177-.503.332-.503h1.106c.155 0 .332.196.332.503v1.968h2.057c.31 0 .509.175.509.329v.875c0 .153-.2.328-.51.328h-2.056v1.99c0 .22-.155.416-.332.416H9.4c-.177 0-.332-.175-.332-.416v-1.99H6.945c-.221 0-.42-.153-.42-.328V7.14z"/>
        <path fill="#666" fill-rule="nonzero" stroke-width=".2" d="M18.137 0H1.769C.796 0 0 .787 0 1.75v24.5C0 27.212.796 28 1.77 28h16.367c.973 0 1.77-.788 1.77-1.75V1.75c0-.963-.797-1.75-1.77-1.75zm.885 26.25a.882.882 0 0 1-.885.875H1.769a.882.882 0 0 1-.884-.875V1.75c0-.481.398-.875.884-.875h16.368c.486 0 .885.394.885.875v24.5z"/>
        <circle cx="17.5" cy="25.5" r="3.5" fill="#FFF" stroke-width=".7"/>
        <path fill="#666" fill-rule="nonzero" stroke-width=".2" d="M17.913 23.546c-.044 0-.11-.022-.154-.022v-.306c0-.13-.089-.218-.221-.218-.133 0-.221.087-.221.218v.306c-.376.044-.773.197-.994.524a1.01 1.01 0 0 0 0 1.158c.22.35.618.502.994.612v1.42a1.255 1.255 0 0 1-.265-.088c-.31-.131-.53-.35-.619-.612-.044-.109-.176-.174-.287-.13-.11.043-.176.174-.132.283.132.372.442.678.861.874.155.066.31.11.464.131v.328c0 .13.088.218.22.218.133 0 .222-.087.222-.218v-.306a1.75 1.75 0 0 0 .486-.11c.485-.196.86-.676.684-1.244-.177-.546-.684-.721-1.17-.852v-1.55h.088c.375.065.707.349.817.676a.24.24 0 0 0 .265.153c.11-.044.177-.153.155-.262a1.606 1.606 0 0 0-1.193-.983zm-1.215 1.442a.664.664 0 0 1 0-.7c.133-.196.376-.305.64-.327v1.42c-.286-.088-.507-.197-.64-.393zm1.811 1.507c.11.327-.154.59-.42.699a1.64 1.64 0 0 1-.308.087v-1.31c.33.109.618.218.728.524z"/>
        <rect width="11.3" height="1.3" x="4.35" y="14.35" stroke-width=".7" rx=".65"/>
        <rect width="8.3" height="1.3" x="4.35" y="17.35" stroke-width=".7" rx=".65"/>
        <rect width="6.3" height="1.3" x="4.35" y="20.35" stroke-width=".7" rx=".65"/>
    </g>
</svg>
