<svg xmlns="http://www.w3.org/2000/svg" xmlns:xlink="http://www.w3.org/1999/xlink" width="20" height="20" viewBox="0 0 20 20">
    <defs>
        <path id="p23i8rhioa" d="M0 0H20V20H0z"/>
    </defs>
    <g fill="none" fill-rule="evenodd">
        <g>
            <g>
                <g transform="translate(-150 -673) translate(130 615) translate(20 58)">
                    <mask id="vkgu05tjzb" fill="#fff">
                        <use xlink:href="#p23i8rhioa"/>
                    </mask>
                    <path fill="#99ABB2" d="M10 10.833c-1.38 0-2.5-1.119-2.5-2.5 0-1.38 1.12-2.5 2.5-2.5s2.5 1.12 2.5 2.5c0 1.381-1.12 2.5-2.5 2.5zm-5.833-2.5c0 2.917 1.944 5.973 5.833 9.167 3.889-3.194 5.833-6.25 5.833-9.167C15.833 5.108 13.225 2.5 10 2.5S4.167 5.108 4.167 8.333c0 2.917 0 2.917 0 0zm1.666 0c0-2.304 1.862-4.166 4.167-4.166 2.305 0 4.167 1.862 4.167 4.166 0 1.55-1.097 3.442-2.53 5.155-.578.692-1.16 1.296-1.637 1.76-.478-.464-1.06-1.068-1.638-1.76-1.432-1.713-2.529-3.604-2.529-5.155 0-1.536 0-1.536 0 0z" mask="url(#vkgu05tjzb)"/>
                </g>
            </g>
        </g>
    </g>
</svg>
