<svg xmlns="http://www.w3.org/2000/svg" width="30" height="29" viewBox="0 0 30 29">
    <g fill="none" fill-rule="nonzero">
        <path fill="#07E2BD" d="M20.817 15.366l-4.628 4.92a1.098 1.098 0 0 0 1.599 1.504l6.358-6.768c.019-.022.033-.044.052-.066.023-.028.045-.057.065-.088.02-.03.036-.062.052-.095 0-.03.033-.058.044-.088.014-.038.026-.077.036-.117 0-.029 0-.055.022-.084.014-.067.021-.136.022-.205 0-.069-.008-.137-.022-.205 0-.029 0-.054-.022-.084a1.098 1.098 0 0 0-.036-.117c0-.03-.03-.058-.044-.088a1.076 1.076 0 0 0-.052-.098c-.02-.03-.042-.06-.065-.088 0-.022-.033-.048-.052-.066l-6.358-6.787a1.098 1.098 0 1 0-1.599 1.504l4.628 4.92H1.387a1.098 1.098 0 1 0 0 2.196h19.43z"/>
        <path fill="#656582" d="M27.15.102H7.683a2.561 2.561 0 0 0-2.561 2.561v4.654a1.098 1.098 0 0 0 2.195 0V2.663c0-.202.164-.365.366-.365H27.15c.202 0 .366.163.366.365v23.21a.366.366 0 0 1-.366.366H7.683a.366.366 0 0 1-.366-.366V21.22a1.098 1.098 0 1 0-2.195 0v4.653a2.561 2.561 0 0 0 2.56 2.561H27.15a2.561 2.561 0 0 0 2.561-2.56V2.663A2.561 2.561 0 0 0 27.15.101z"/>
    </g>
</svg>
