<svg xmlns="http://www.w3.org/2000/svg" width="178" height="36" viewBox="0 0 178 36">
    <defs>
        <linearGradient id="lnsrclct4a" x1="6.422%" x2="58.863%" y1="91.277%" y2="52.263%">
            <stop offset="0%" stop-color="#259DE2"/>
            <stop offset="100%" stop-color="#00619B"/>
        </linearGradient>
        <linearGradient id="koeuoqhsdb" x1="20.493%" x2="67.833%" y1="67.65%" y2="37.025%">
            <stop offset="0%" stop-color="#259DE2"/>
            <stop offset="100%" stop-color="#00619B"/>
        </linearGradient>
        <linearGradient id="fqvw43aj0c" x1="21.755%" x2="60.14%" y1="64.208%" y2="44.829%">
            <stop offset="0%" stop-color="#3D9B3B"/>
            <stop offset="100%" stop-color="#8ABD38"/>
        </linearGradient>
    </defs>
    <g fill="none" fill-rule="evenodd">
        <g fill-rule="nonzero">
            <g>
                <g>
                    <g>
                        <g>
                            <g fill="#5DAF41">
                                <path d="M12.834.799c-1.092-.517-2.425-.776-4-.776-1.657 0-3.158.394-4.503 1.182-1.345.788-2.404 1.86-3.175 3.214C.385 5.773 0 7.263 0 8.888v.05c0 1.624.381 3.118 1.144 4.48.763 1.363 1.829 2.442 3.2 3.239 1.369.796 2.916 1.194 4.638 1.194 1.526 0 2.822-.226 3.889-.677 1.066-.452 2.034-1.113 2.904-1.983l-2.412-2.782c-.706.64-1.411 1.124-2.116 1.453-.706.328-1.469.492-2.29.492-.95 0-1.808-.242-2.571-.726-.763-.485-1.358-1.133-1.784-1.945-.427-.813-.64-1.712-.64-2.697v-.049c0-.985.213-1.892.64-2.72.426-.83 1.017-1.487 1.772-1.97.754-.485 1.615-.727 2.584-.727.918 0 1.714.164 2.387.492.672.328 1.386.837 2.14 1.527L15.899 3.1C14.946 2.083 13.925 1.316 12.834.8" transform="translate(-130 -15) translate(0 1) translate(130 14) matrix(1 0 0 -1 54.87 27.9) translate(.123) translate(.008 .217)"/>
                            </g>
                            <g fill="#5DAF41">
                                <path d="M6.202 6.144c-.804 0-1.436-.156-1.895-.468-.46-.312-.69-.763-.69-1.354v-.05c0-.492.19-.882.567-1.169.377-.287.87-.43 1.477-.43.869 0 1.575.216 2.116.652.542.434.812.989.812 1.662v.665c-.705.328-1.501.492-2.387.492m2.313-4.383C7.515.645 6.185.087 4.53.087c-1.297 0-2.375.357-3.237 1.07C.431 1.873 0 2.862 0 4.126v.05C0 5.568.48 6.62 1.44 7.325s2.252 1.059 3.876 1.059c1.1 0 2.174-.18 3.224-.542v.222c0 .788-.238 1.387-.714 1.797-.476.41-1.18.616-2.116.616-.673 0-1.284-.058-1.834-.172-.55-.116-1.153-.296-1.809-.542l-.935 2.856c.804.361 1.596.628 2.375.8.78.173 1.694.259 2.744.259 2.002 0 3.482-.489 4.442-1.465.96-.977 1.44-2.385 1.44-4.223V.333H8.515V1.76z" transform="translate(-130 -15) translate(0 1) translate(130 14) matrix(1 0 0 -1 54.87 27.9) translate(.123) translate(17.75 .203)"/>
                            </g>
                            <g fill="#5DAF41">
                                <path d="M10.07.737C9.25.327 8.225.122 6.995.122c-1.296 0-2.465.303-3.507.91-1.042.608-1.862 1.433-2.46 2.475C.426 4.55.127 5.695.127 6.943v.049c0 1.247.295 2.397.886 3.447.59 1.05 1.415 1.884 2.473 2.5 1.058.615 2.244.923 3.556.923 1.198 0 2.211-.189 3.04-.566.828-.378 1.57-.928 2.227-1.65L10.02 9.184c-.46.492-.919.857-1.378 1.095-.46.238-1 .357-1.624.357-.607 0-1.153-.164-1.637-.492-.484-.329-.865-.768-1.144-1.318-.28-.55-.419-1.145-.419-1.785v-.05c0-1.033.308-1.9.923-2.597.616-.698 1.424-1.047 2.425-1.047.59 0 1.12.115 1.587.345.467.23.947.583 1.44 1.06l2.19-2.217c-.722-.788-1.493-1.387-2.313-1.798" transform="translate(-130 -15) translate(0 1) translate(130 14) matrix(1 0 0 -1 54.87 27.9) translate(.123) translate(32.34 .119)"/>
                            </g>
                            <g fill="#5DAF41">
                                <path d="M5.465 0c-1.23 0-2.178.3-2.842.899-.665.6-.997 1.62-.997 3.066v6.254H.051v3.201h1.575v3.374h3.74V13.42h3.102v-3.2H5.367V4.58c0-.427.098-.747.295-.96.197-.214.5-.32.91-.32.657 0 1.272.156 1.846.468V.763C7.565.254 6.58 0 5.465 0" transform="translate(-130 -15) translate(0 1) translate(130 14) matrix(1 0 0 -1 54.87 27.9) translate(.123) translate(46.15 .314)"/>
                            </g>
                            <g fill="#5DAF41">
                                <path d="M8.351 2.212C7.842 1.555 7.29 1.038 6.69.66 6.091.283 5.357.094 4.488.094 3.076.094 1.978.53 1.19 1.4.402 2.27.008 3.467.008 4.994v8.545H3.75V6.176c0-.87.197-1.535.59-1.994.394-.46.952-.69 1.674-.69s1.292.23 1.71.69c.42.46.628 1.124.628 1.994v7.363h3.74V.34h-3.74v1.872z" transform="translate(-130 -15) translate(0 1) translate(130 14) matrix(1 0 0 -1 54.87 27.9) translate(.123) translate(57.266 .196)"/>
                            </g>
                            <g fill="#5DAF41">
                                <path d="M9.334 1.229C8.407.515 7.188.158 5.679.158c-.968 0-1.944.164-2.929.492C1.766.978.855 1.48.02 2.152l1.6 2.463c.705-.51 1.418-.9 2.14-1.17.722-.271 1.395-.406 2.019-.406.524 0 .918.086 1.18.258.263.172.395.415.395.727v.049c0 .312-.177.562-.53.751-.353.189-.923.398-1.71.628L4.62 5.6c-1.198.344-2.154.804-2.867 1.379-.714.574-1.07 1.436-1.07 2.585v.05c0 .87.212 1.62.64 2.253.426.631 1.004 1.111 1.734 1.44.73.328 1.546.492 2.449.492.836 0 1.686-.135 2.547-.406.861-.27 1.653-.644 2.375-1.12L9 9.687c-.656.394-1.296.698-1.92.911-.623.213-1.172.32-1.648.32-.443 0-.784-.086-1.021-.258-.238-.172-.357-.39-.357-.653v-.049c0-.23.114-.43.344-.603.23-.173.562-.341.997-.505.434-.164.882-.32 1.341-.468 1.214-.41 2.182-.899 2.904-1.465.722-.566 1.083-1.383 1.083-2.45v-.05c0-1.412-.464-2.474-1.39-3.188" transform="translate(-130 -15) translate(0 1) translate(130 14) matrix(1 0 0 -1 54.87 27.9) translate(.123) translate(71.653 .132)"/>
                            </g>
                            <g fill="#0074A3">
                                <path d="M13.509 11.305L8.661 3.942 8.563 3.942 3.764 11.231 3.764 0.052 0.047 0.052 0.047 17.288 4.133 17.288 8.661 10 13.189 17.288 17.275 17.288 17.275 0.052 13.509 0.052z" transform="translate(-130 -15) translate(0 1) translate(130 14) matrix(1 0 0 -1 54.87 27.9) translate(.123) translate(85.406 .484)"/>
                            </g>
                            <g fill="#0074A3">
                                <path d="M11.299 11.305c-.435.788-1.046 1.403-1.834 1.847-.787.443-1.69.665-2.707.665H3.83V3.425h2.928c1.017 0 1.92.218 2.707.653.788.435 1.399 1.042 1.834 1.822.434.78.652 1.67.652 2.672v.049c0 1.001-.218 1.896-.652 2.684m3.445-7.067c-.78-1.314-1.862-2.348-3.248-3.103C10.109.38 8.53.003 6.758.003H.04v17.236h6.718c1.772 0 3.35-.373 4.738-1.12 1.386-.747 2.469-1.773 3.248-3.078.78-1.305 1.17-2.762 1.17-4.37v-.05c0-1.61-.39-3.07-1.17-4.383" transform="translate(-130 -15) translate(0 1) translate(130 14) matrix(1 0 0 -1 54.87 27.9) translate(.123) translate(106.775 .534)"/>
                            </g>
                        </g>
                    </g>
                    <g>
                        <g fill="url(#lnsrclct4a)" transform="translate(-130 -15) translate(0 1) translate(130 14) matrix(1 0 0 -1 0 36) translate(4.851)">
                            <path d="M8.331 16.385H.036C5.137 6.477 18.483.045 18.483.045V.043s8.1 3.905 14.091 10.316c1.671 1.787 3.18 3.773 4.3 5.921H30.87l-1.888 3.49-2.288-3.385H20.49L15.202 5.89 10.03 20.226l-1.7-3.84z"/>
                        </g>
                        <g fill="url(#koeuoqhsdb)" transform="translate(-130 -15) translate(0 1) translate(130 14) matrix(1 0 0 -1 0 36) translate(2.886 15.974)">
                            <path d="M20.448 12.856C13.978 25.483-2.428 18.557.359 4.97c.038-.182.078-.363.123-.542h7.2l4.69 10.612L17.78.054l2.202 4.374 6.542.001 4.8 7.1 3.9-7.205h5.163c.055.214.105.429.149.646 1.763 8.596-4.155 14.525-10.379 14.525-3.614 0-7.333-2-9.71-6.64"/>
                        </g>
                        <g fill="url(#fqvw43aj0c)" transform="translate(-130 -15) translate(0 1) translate(130 14) matrix(1 0 0 -1 0 36) translate(0 7.68)">
                            <path d="M11.031 12.011L0 12.011 0 9.416 12.72 9.416 14.948 14.455 20.161 0.004 24.904 9.416 31.165 9.416 33.897 13.458 36.143 9.311 46.667 9.311 46.667 11.908 37.688 11.908 34.144 18.456 29.789 12.013 23.305 12.011 20.557 6.555 15.193 21.426z"/>
                        </g>
                    </g>
                </g>
            </g>
        </g>
    </g>
</svg>
