<svg xmlns="http://www.w3.org/2000/svg" width="21" height="22" viewBox="0 0 21 22">
    <g fill="#656582" fill-rule="nonzero" stroke="#F4F1F1" stroke-width=".8">
        <path d="M20.425 3.832A2.832 2.832 0 0 0 17.593 1H11.22A2.832 2.832 0 0 0 8.39 3.832v2.643a.944.944 0 1 0 1.888 0V3.832c0-.521.423-.944.944-.944h6.372c.521 0 .944.423.944.944v14.16a.944.944 0 0 1-.944.943H11.22a.944.944 0 0 1-.944-.944v-2.596a.944.944 0 1 0-1.888 0v2.596a2.832 2.832 0 0 0 2.832 2.832h6.372a2.832 2.832 0 0 0 2.832-2.832V3.831z"/>
        <path d="M7.134 5.248a.944.944 0 0 0-1.336 0L.842 10.204a.944.944 0 0 0 0 1.415l4.956 4.956a.944.944 0 1 0 1.336-1.335l-3.396-3.385H14.29a.944.944 0 1 0 0-1.887H3.74l3.395-3.394a.944.944 0 0 0 0-1.326z"/>
    </g>
</svg>
