<svg xmlns="http://www.w3.org/2000/svg" width="40" height="32" viewBox="0 0 40 32">
    <g fill="none" fill-rule="evenodd">
        <g fill="#FFF" fill-rule="nonzero">
            <g>
                <g>
                    <g>
                        <path d="M7.088 13.933H.03C4.37 5.508 15.725.038 15.725.038V.036s6.892 3.32 11.99 8.772c1.422 1.52 2.705 3.209 3.658 5.036h-5.11l-1.606 2.967-1.946-2.878h-5.278l-4.5-8.926L8.536 17.2l-1.447-3.266z" transform="translate(-30 -24) translate(30 24) matrix(1 0 0 -1 0 31.64) translate(4.127)"/>
                    </g>
                    <g>
                        <path d="M17.397 10.932C11.893 21.67-2.066 15.78.306 4.226c.032-.154.066-.308.104-.461h6.125l3.992 9.024 4.6-12.743 1.874 3.719 5.566.001 4.084 6.038 3.319-6.127h4.391c.047.182.09.364.128.549 1.5 7.31-3.535 12.352-8.83 12.351-3.076 0-6.24-1.7-8.262-5.645" transform="translate(-30 -24) translate(30 24) matrix(1 0 0 -1 0 31.64) translate(2.456 13.584)"/>
                    </g>
                    <g>
                        <path d="M9.385 10.213L0 10.213 0 8.007 10.822 8.007 12.718 12.291 17.153 0.003 21.189 8.007 26.516 8.007 28.84 11.444 30.751 7.918 39.705 7.918 39.705 10.126 32.066 10.126 29.05 15.694 25.345 10.215 19.828 10.213 17.49 5.574 12.926 18.219z" transform="translate(-30 -24) translate(30 24) matrix(1 0 0 -1 0 31.64) translate(0 6.53)"/>
                    </g>
                </g>
            </g>
        </g>
    </g>
</svg>
