<svg xmlns="http://www.w3.org/2000/svg" width="16" height="16" viewBox="0 0 16 16">
    <g fill="none" fill-rule="evenodd">
        <g fill="#99ABB2" fill-rule="nonzero">
            <g>
                <g>
                    <path d="M15.991.58c-.007-.057-.02-.112-.04-.164l-.002-.005c-.023-.055-.055-.105-.09-.151l-.027-.032c-.038-.043-.08-.083-.128-.115L15.7.111c-.046-.03-.098-.054-.151-.072-.014-.005-.027-.01-.04-.013C15.452.011 15.394 0 15.333 0h-4.666C10.299 0 10 .299 10 .667c0 .368.299.666.667.666h3.057l-3.98 3.98C8.685 4.462 7.378 4 6 4c-3.308 0-6 2.692-6 6s2.692 6 6 6 6-2.692 6-6c0-1.377-.463-2.683-1.313-3.745l3.98-3.979v3.057c0 .368.298.667.666.667.368 0 .667-.299.667-.667V.667c0-.014-.003-.028-.004-.041L15.99.58zM6 14.668c-2.573 0-4.667-2.094-4.667-4.667S3.427 5.333 6 5.333c1.246 0 2.419.485 3.3 1.364.882.884 1.367 2.057 1.367 3.303 0 2.573-2.094 4.667-4.667 4.667z" transform="translate(-14 -488) translate(10 484) translate(4 4)"/>
                </g>
            </g>
        </g>
    </g>
</svg>
