<svg xmlns="http://www.w3.org/2000/svg" xmlns:xlink="http://www.w3.org/1999/xlink" width="18" height="18" viewBox="0 0 18 18">
    <defs>
        <path id="86ez4yrx3a" d="M0 0H24V24H0z"/>
    </defs>
    <g fill="none" fill-rule="evenodd">
        <g>
            <g>
                <g transform="translate(-162 -237) translate(129 216) translate(30 18)">
                    <mask id="rooozothtb" fill="#fff">
                        <use xlink:href="#86ez4yrx3a"/>
                    </mask>
                    <g fill="#99ABB2" fill-rule="nonzero" stroke="#99ABB2" stroke-width=".5" mask="url(#rooozothtb)">
                        <g>
                            <path d="M13.657 2.343C12.146.833 10.137 0 8 0S3.854.832 2.343 2.343C.833 3.854 0 5.863 0 8s.832 4.146 2.343 5.657C3.854 15.167 5.863 16 8 16s4.146-.832 5.657-2.343C15.167 12.146 16 10.137 16 8s-.832-4.146-2.343-5.657zm-.663 10.65c-1.334 1.335-3.108 2.07-4.994 2.07-1.886 0-3.66-.735-4.994-2.07C1.672 11.66.938 9.887.938 8c0-1.886.734-3.66 2.068-4.994C4.34 1.672 6.114.938 8 .938c1.886 0 3.66.734 4.994 2.068C14.328 4.34 15.063 6.114 15.063 8c0 1.886-.735 3.66-2.07 4.994z" transform="translate(4 4)"/>
                            <path d="M9.977 6.023v-2.76H6.023v2.76h-2.76v3.954h2.76v2.76h3.954v-2.76h2.76V6.023h-2.76zm1.822 3.016H9.04v2.76H6.961V9.04H4.2V6.961h2.76V4.2h2.078v2.76h2.76v2.078z" transform="translate(4 4)"/>
                        </g>
                    </g>
                </g>
            </g>
        </g>
    </g>
</svg>
