<svg xmlns="http://www.w3.org/2000/svg" xmlns:xlink="http://www.w3.org/1999/xlink" width="24" height="24" viewBox="0 0 24 24">
    <defs>
        <path id="27x5uhfpfa" d="M0 0H24V24H0z"/>
    </defs>
    <g fill="none" fill-rule="evenodd">
        <g>
            <g>
                <g>
                    <g transform="translate(-1051 -28) translate(1039 15) translate(0 1) translate(12 12)">
                        <mask id="rb2v4698vb" fill="#fff">
                            <use xlink:href="#27x5uhfpfa"/>
                        </mask>
                        <path fill="#67818C" stroke="#F7F8F9" stroke-dasharray="0 0" stroke-width=".5" d="M18.8 16.8v-6.6c0-3.684-1.356-6.768-4.8-7.584V0H9.2v2.616c-3.432.816-4.8 3.888-4.8 7.584v6.6L2 18v2.4h19.2V18l-2.4-1.2h0zM11.6 24c1.32 0 2.4-1.08 2.4-2.4H9.2c0 1.32 1.08 2.4 2.4 2.4.88 0 .88 0 0 0zm-4.8-6h9.6v-7.8c0-2.976-1.2-5.7-4.8-5.7-3.6 0-4.8 2.724-4.8 5.7V18h0z" mask="url(#rb2v4698vb)"/>
                    </g>
                </g>
            </g>
        </g>
    </g>
</svg>
