<svg xmlns="http://www.w3.org/2000/svg" xmlns:xlink="http://www.w3.org/1999/xlink" width="20" height="20" viewBox="0 0 20 20">
    <defs>
        <path id="r2zjvycgma" d="M0 0H30V30H0z"/>
    </defs>
    <g fill="none" fill-rule="evenodd">
        <g>
            <g>
                <g transform="translate(-115 -135) translate(80 95) translate(30 35)">
                    <mask id="2nrtq59yqb" fill="#fff">
                        <use xlink:href="#r2zjvycgma"/>
                    </mask>
                    <path fill="#FFF" d="M15 17c2.21 0 4-1.79 4-4s-1.79-4-4-4-4 1.79-4 4 1.79 4 4 4c1.473 0 1.473 0 0 0zm0-2c1.105 0 2-.895 2-2s-.895-2-2-2-2 .895-2 2 .895 2 2 2c.736 0 .736 0 0 0zm5.926 8.056C23.397 21.235 25 18.305 25 15c0-5.523-4.477-10-10-10S5 9.477 5 15c0 3.305 1.603 6.235 4.074 8.056l.137.1c.449.318.925.601 1.425.844 1.319.64 2.8 1 4.364 1 1.565 0 3.045-.36 4.364-1l.08-.04c.522-.259 1.017-.562 1.482-.904 1.647-1.214 1.647-1.214 0 0zm-.697-2.001C21.926 19.588 23 17.419 23 15c0-4.418-3.582-8-8-8s-8 3.582-8 8c0 2.42 1.074 4.588 2.771 6.055C10.801 19.231 12.757 18 15 18s4.2 1.231 5.229 3.055c1.131-.978 1.131-.978 0 0zm-1.672 1.113C17.892 20.88 16.549 20 15 20s-2.892.88-3.557 2.168C12.515 22.7 13.723 23 15 23c1.278 0 2.485-.3 3.557-.832-.443-.859-.443-.859 0 0z" mask="url(#2nrtq59yqb)"/>
                </g>
            </g>
        </g>
    </g>
</svg>
