<svg xmlns="http://www.w3.org/2000/svg" width="20" height="20" viewBox="0 0 20 20">
    <g fill="none" fill-rule="evenodd">
        <g fill="#656566">
            <g>
                <path d="M354.707 29.293c.391.391.391 1.023 0 1.414-.195.195-.451.293-.707.293-.256 0-.512-.098-.707-.293L352 29.414l-1.293 1.293c-.195.195-.451.293-.707.293-.256 0-.512-.098-.707-.293-.391-.391-.391-1.023 0-1.414L350.586 28l-1.293-1.293c-.391-.391-.391-1.023 0-1.414s1.023-.391 1.414 0L352 26.586l1.293-1.293c.391-.391 1.023-.391 1.414 0s.391 1.023 0 1.414L353.414 28l1.293 1.293zM352 18c-5.514 0-10 4.486-10 10s4.486 10 10 10 10-4.486 10-10-4.486-10-10-10z" transform="translate(-799 -329) translate(457 311)"/>
            </g>
        </g>
    </g>
</svg>
