<svg xmlns="http://www.w3.org/2000/svg" width="16" height="36" viewBox="0 0 16 36">
    <g fill="none" fill-rule="evenodd">
        <path fill="#656582" fill-rule="nonzero" stroke="#656582" stroke-width=".5" d="M8 9.953c2.389 0 4.389-1.983 4.389-4.476C12.389 2.983 10.389 1 8 1 5.611 1 3.611 2.983 3.611 5.477c0 2.493 2 4.476 4.389 4.476zm0-7.82c1.778 0 3.278 1.474 3.278 3.344C11.278 7.29 9.833 8.82 8 8.82c-1.778 0-3.278-1.473-3.278-3.343 0-1.87 1.5-3.344 3.278-3.344zm5.333 9.124H2.667c-.945 0-1.667.736-1.667 1.7v10.37c0 .226.167.453.389.566l2.444.68v9.86c0 .34.223.567.556.567h7.278c.333 0 .555-.227.555-.567v-9.86l2.39-.68c.221-.056.388-.283.388-.566v-10.37c0-.907-.722-1.7-1.667-1.7zm.556 11.673l-2.389.68c-.222.057-.389.283-.389.567v9.69H4.944v-9.69c0-.227-.166-.454-.388-.567l-2.445-.68v-9.973c0-.284.222-.567.556-.567h10.666c.278 0 .556.227.556.567v9.973z"/>
        <path fill="#07E2BD" d="M12.404 16.293h-2.027v-1.76c0-.32-.238-.533-.596-.533H7.22c-.358 0-.596.213-.596.533v1.76H4.596c-.358 0-.596.214-.596.534v2.346c0 .32.238.534.596.534h2.027v1.76c0 .32.238.533.596.533H9.78c.358 0 .596-.213.596-.533v-1.76h2.027c.358 0 .596-.214.596-.534v-2.346c0-.267-.238-.534-.596-.534z"/>
        <path fill="#FFF" d="M11 18.655H9.162c-.324 0-.54.218-.54.545V21H7.378v-1.8c0-.327-.216-.545-.54-.545H5v-1.31h1.838c.324 0 .54-.218.54-.545V15h1.244v1.8c0 .327.216.545.54.545H11v1.31z"/>
    </g>
</svg>
