<svg xmlns="http://www.w3.org/2000/svg" width="28" height="28" viewBox="0 0 28 28">
    <g fill="#666" fill-rule="nonzero" opacity=".5">
        <path d="M25.14 17.613c-.895 0-1.75.428-2.288 1.144l-.27.361-.272-.361a2.856 2.856 0 0 0-1.108-.883 5.553 5.553 0 0 1-1.331-3.604V6.92a4.408 4.408 0 0 0-2.809-4.112A4.408 4.408 0 0 0 12.95 0h-1.208c-4.482 0-8.13 3.647-8.13 8.129v6.141c0 1.7-.76 3.283-2.088 4.345l-.226.181.07.281c.146.583.672 1.568 1.714 1.97a5.545 5.545 0 0 0-1.304 2.189L.289 28h19.582v-.014a1.345 1.345 0 0 0 1.5-1.046l.55-2.477c.07-.31.341-.528.66-.528a.67.67 0 0 1 .658.528l.55 2.477c.139.624.683 1.06 1.322 1.06.566 0 1.078-.358 1.271-.891l.87-2.394c.496-1.363.748-2.79.748-4.242a2.863 2.863 0 0 0-2.86-2.86zm-5.238.006a2.862 2.862 0 0 0-2.536 1.798c-.044-.008-.087-.02-.131-.027l-2.332-.358v-.468a6.337 6.337 0 0 0 3.02-4.144c.39-.054.745-.205 1.045-.431v.28c0 1.19.326 2.346.934 3.35zm-11.99 2.43l.834-.129 2.137 5.344-2.724-1.012L9.84 22.99l-2.505-1.502.576-1.44zm9.25-7.042l-3.547-.645a10.52 10.52 0 0 0-3.745 0l-3.547.645V9.032c0-.996.81-1.806 1.806-1.806h4.695a5.812 5.812 0 0 0 2.998-.83 2.798 2.798 0 0 1 1.34 2.398v4.213zm-7.13.244a9.598 9.598 0 0 1 3.422 0l3.64.662c-.397 2.601-2.642 4.603-5.352 4.603-2.71 0-4.956-2.002-5.351-4.603l3.64-.662zm1.71 6.168c.796 0 1.556-.154 2.258-.424v.337l-2.258 5.645-2.258-5.645v-.337c.702.27 1.462.424 2.258.424zm.452 7.08l1.522-.608-.335-.84-.828.332 2.185-5.463.834.128.575 1.44-2.504 1.502 1.701 1.276-1.06.424.335.839 2.553-1.021-1.912-1.434 1.99-1.195c.08.694.216 1.379.41 2.05l-.495.062.388 3.106h-5.36v-.598zm5.044-4.717l-.63-1.574.49.075.072.015c-.003.058-.009.116-.009.175 0 .44.031.876.077 1.31zm1.062 4.01l.474 1.305h-.31l-.164-1.305zm-.254-12.32c.007-.125.019-.249.019-.375v-2.175c.524.187.903.684.903 1.272 0 .594-.388 1.096-.922 1.277zM11.742.902h1.208c1.514 0 2.852.965 3.331 2.401l.071.214.215.071a3.507 3.507 0 0 1 2.4 3.332v3.477c-.263-.2-.567-.349-.903-.417V8.794a3.7 3.7 0 0 0-2.056-3.327l-.235-.117-.218.145a4.906 4.906 0 0 1-2.731.828H8.129a2.712 2.712 0 0 0-2.71 2.71v.948c-.335.069-.64.218-.903.417V8.13c0-3.984 3.242-7.226 7.226-7.226zM5.419 10.922v2.175c0 .126.012.25.02.374a1.352 1.352 0 0 1-.923-1.277c0-.588.379-1.085.903-1.272zm-3.083 8.19a6.435 6.435 0 0 0 2.18-4.842v-.281c.3.227.655.377 1.045.431a6.337 6.337 0 0 0 3.02 4.144v.468l-2.332.358a5.55 5.55 0 0 0-2.301.921c-.98-.057-1.438-.795-1.612-1.198zm.304 4.393a4.698 4.698 0 0 1 3.746-3.222l.49-.075-.664 1.659 2.012 1.207-1.93 1.448 4.996 1.857v.718H5.931l.388-3.106-.896-.112-.402 3.218H1.517l1.123-3.592zm23.764.902l-.87 2.394a.451.451 0 0 1-.863-.056l-.55-2.478a1.57 1.57 0 0 0-1.54-1.235c-.745 0-1.379.508-1.54 1.235l-.55 2.477a.448.448 0 0 1-.44.353.452.452 0 0 1-.423-.296l-.87-2.394a11.467 11.467 0 0 1-.694-3.934 1.96 1.96 0 0 1 1.957-1.957c.613 0 1.198.293 1.566.783l.994 1.325.993-1.325c.368-.49.953-.783 1.566-.783a1.96 1.96 0 0 1 1.957 1.957c0 1.346-.233 2.67-.693 3.934z"/>
        <path d="M8.806 9.032a1.13 1.13 0 0 0-1.129 1.13 1.13 1.13 0 0 0 1.13 1.128 1.13 1.13 0 0 0 1.128-1.129 1.13 1.13 0 0 0-1.129-1.129zm0 1.355a.226.226 0 1 1 0-.452.226.226 0 0 1 0 .452zM14.677 9.032a1.13 1.13 0 0 0-1.129 1.13 1.13 1.13 0 0 0 1.13 1.128 1.13 1.13 0 0 0 1.128-1.129 1.13 1.13 0 0 0-1.129-1.129zm0 1.355a.226.226 0 1 1 0-.452.226.226 0 0 1 0 .452z"/>
    </g>
</svg>
