<svg xmlns="http://www.w3.org/2000/svg" width="12" height="14" viewBox="0 0 12 14">
    <g fill="none" fill-rule="evenodd">
        <g fill="#E5757B" fill-rule="nonzero" stroke="#E5757B" stroke-width=".3">
            <g>
                <g>
                    <g>
                        <g>
                            <path d="M6.581.467H5.18v.876h.963v1.65c0 1.449-1.179 2.627-2.628 2.627S.888 4.442.888 2.993v-1.65h.934V.467H.45C.208.467.012.663.012.905v2.088c0 1.932 1.571 3.503 3.503 3.503 1.932 0 3.504-1.571 3.504-3.503V.905c0-.242-.196-.438-.438-.438z" transform="translate(-347 -537) translate(130 513) translate(117 19) translate(101 4) translate(0 2)"/>
                            <path d="M8.29 6.861v2.073c0 1.208-.983 2.19-2.19 2.19-1.208 0-2.19-.982-2.19-2.19V6.073h-.876v2.861c0 1.69 1.375 3.066 3.065 3.066s3.066-1.375 3.066-3.066V6.861h-.876z" transform="translate(-347 -537) translate(130 513) translate(117 19) translate(101 4) translate(0 2)"/>
                            <path d="M8.727 4.03c-.894 0-1.62.726-1.62 1.62 0 .893.726 1.62 1.62 1.62.894 0 1.62-.727 1.62-1.62 0-.894-.726-1.62-1.62-1.62zm0 2.364c-.41 0-.745-.334-.745-.744s.334-.745.745-.745c.41 0 .745.334.745.745 0 .41-.334.744-.745.744zM1.807 0c-.242 0-.438.196-.438.438v.934c0 .242.196.438.438.438s.438-.196.438-.438V.438C2.245.196 2.05 0 1.807 0zM5.194 0c-.242 0-.438.196-.438.438v.934c0 .242.196.438.438.438s.438-.196.438-.438V.438C5.632.196 5.436 0 5.194 0z" transform="translate(-347 -537) translate(130 513) translate(117 19) translate(101 4) translate(0 2)"/>
                        </g>
                    </g>
                </g>
            </g>
        </g>
    </g>
</svg>
