<svg xmlns="http://www.w3.org/2000/svg" width="40" height="40" viewBox="0 0 40 40">
    <g fill="none" fill-rule="evenodd">
        <g fill="#8ABD38">
            <g>
                <g>
                    <path d="M6 0h28c3.314 0 6 2.686 6 6v28c0 3.314-2.686 6-6 6H6c-3.314 0-6-2.686-6-6V6c0-3.314 2.686-6 6-6z" opacity=".1" transform="translate(-393 -203) translate(363 173) translate(30 30)"/>
                    <g>
                        <path d="M2 0h12c1.105 0 2 .895 2 2v12c0 1.105-.895 2-2 2H2c-1.105 0-2-.895-2-2V2C0 .895.895 0 2 0z" opacity=".4" transform="translate(-393 -203) translate(363 173) translate(30 30) translate(10 10)"/>
                        <path d="M7 5h12c1.105 0 2 .895 2 2v12c0 1.105-.895 2-2 2H7c-1.105 0-2-.895-2-2V7c0-1.105.895-2 2-2z" transform="translate(-393 -203) translate(363 173) translate(30 30) translate(10 10)"/>
                    </g>
                </g>
            </g>
        </g>
    </g>
</svg>
