<svg xmlns="http://www.w3.org/2000/svg" width="20" height="20" viewBox="0 0 20 20">
    <g fill="none" fill-rule="evenodd">
        <g fill="#656566">
            <g>
                <g>
                    <path d="M355 46h-4c-.552 0-1-.447-1-1v-4c0-.553.448-1 1-1s1 .447 1 1v3h3c.553 0 1 .447 1 1 0 .553-.447 1-1 1m-4-11c-5.514 0-10 4.486-10 10s4.486 10 10 10 10-4.486 10-10-4.486-10-10-10" transform="translate(-474 -360) translate(109 104) translate(24 221)"/>
                </g>
            </g>
        </g>
    </g>
</svg>
