<svg xmlns="http://www.w3.org/2000/svg" xmlns:xlink="http://www.w3.org/1999/xlink" width="18" height="15" viewBox="0 0 18 15">
    <defs>
        <path id="5zes1qdz1a" d="M0 0H24V24H0z"/>
    </defs>
    <g fill="none" fill-rule="evenodd">
        <g>
            <g>
                <g transform="translate(-162 -298) translate(129 275) translate(30 18)">
                    <mask id="dyxpbmwfhb" fill="#fff">
                        <use xlink:href="#5zes1qdz1a"/>
                    </mask>
                    <path fill="#99ABB2" stroke="#FFF" stroke-dasharray="0 0" stroke-width=".5" d="M11.772 10.8c0-.92-.68-1.6-1.6-1.6s-1.6.68-1.6 1.6.678 1.6 1.6 1.6c.92 0 1.6-.68 1.6-1.6zM13.6 10v1.6h3.2V10h-3.2zm.8 3.2v1.6h2.4v-1.6h-2.4zm-1.256 2.4H7.2c0-1.1 1.34-2.6 2.972-2.6 1.631 0 2.972 1.5 2.972 2.6zM18.4 6H5.6C4.718 6 4 6.673 4 7.5v9.8c0 .827.718 1.5 1.6 1.5h12.8c.882 0 1.6-.673 1.6-1.5V7.5c0-.827-.718-1.5-1.6-1.5h0zm0 11.2l-12.8-.009V7.6l12.8.009V17.2h0z" mask="url(#dyxpbmwfhb)"/>
                </g>
            </g>
        </g>
    </g>
</svg>
