<svg xmlns="http://www.w3.org/2000/svg" xmlns:xlink="http://www.w3.org/1999/xlink" width="18" height="18" viewBox="0 0 18 18">
    <defs>
        <path id="vmo0qugz8a" d="M0 0H24V24H0z"/>
    </defs>
    <g fill="none" fill-rule="evenodd">
        <g>
            <g>
                <g transform="translate(-162 -177) translate(129 156) translate(30 18)">
                    <mask id="7913d5r0wb" fill="#fff">
                        <use xlink:href="#vmo0qugz8a"/>
                    </mask>
                    <path fill="#99ABB2" stroke="#FFF" stroke-dasharray="0 0" stroke-width=".4" d="M12 13.6c1.767 0 3.2-1.433 3.2-3.2 0-1.767-1.433-3.2-3.2-3.2-1.767 0-3.2 1.433-3.2 3.2 0 1.767 1.433 3.2 3.2 3.2 1.178 0 1.178 0 0 0zm0-1.6c.884 0 1.6-.716 1.6-1.6 0-.884-.716-1.6-1.6-1.6-.884 0-1.6.716-1.6 1.6 0 .884.716 1.6 1.6 1.6.59 0 .59 0 0 0zm4.74 6.445C18.719 16.988 20 14.644 20 12c0-4.418-3.582-8-8-8s-8 3.582-8 8c0 2.644 1.282 4.988 3.26 6.445l.109.079c.359.255.74.482 1.14.676 1.055.513 2.24.8 3.491.8 1.252 0 2.436-.287 3.491-.8.022-.01.043-.02.064-.032.418-.207.814-.45 1.186-.723 1.318-.971 1.318-.971 0 0zm-.557-1.601C17.541 15.67 18.4 13.936 18.4 12c0-3.535-2.865-6.4-6.4-6.4S5.6 8.465 5.6 12c0 1.936.86 3.67 2.217 4.844C8.641 15.385 10.205 14.4 12 14.4s3.36.985 4.183 2.444c.905-.782.905-.782 0 0zm-1.338.89C14.314 16.704 13.24 16 12 16c-1.24 0-2.314.704-2.845 1.734.857.426 1.823.666 2.845.666 1.022 0 1.988-.24 2.845-.666-.354-.686-.354-.686 0 0z" mask="url(#7913d5r0wb)"/>
                </g>
            </g>
        </g>
    </g>
</svg>
