<svg xmlns="http://www.w3.org/2000/svg" width="18" height="12" viewBox="0 0 18 12">
    <g fill="none" fill-rule="evenodd">
        <g>
            <g>
                <g>
                    <path d="M0 0H20V20H0z" transform="translate(-1235 -689) translate(540 587) translate(694 98)"/>
                    <g fill="#99ABB2" fill-rule="nonzero" stroke="#99ABB2" stroke-width=".3">
                        <path d="M15.898 4.814C15.755 4.618 12.35.026 8 .026S.244 4.618.102 4.814c-.136.185-.136.437 0 .622.142.196 3.548 4.788 7.898 4.788s7.755-4.592 7.898-4.788c.136-.185.136-.437 0-.622zM8 9.169c-3.204 0-5.98-3.048-6.8-4.044C2.02 4.127 4.788 1.08 8 1.08c3.204 0 5.979 3.047 6.8 4.044-.82.998-3.59 4.044-6.8 4.044z" transform="translate(-1235 -689) translate(540 587) translate(694 98) translate(2 5)"/>
                        <path d="M8 1.96c-1.745 0-3.165 1.42-3.165 3.165S6.255 8.29 8 8.29s3.165-1.42 3.165-3.165S9.745 1.96 8 1.96zm0 5.275c-1.164 0-2.11-.947-2.11-2.11 0-1.163.947-2.11 2.11-2.11 1.163 0 2.11.947 2.11 2.11 0 1.163-.947 2.11-2.11 2.11z" transform="translate(-1235 -689) translate(540 587) translate(694 98) translate(2 5)"/>
                    </g>
                </g>
            </g>
        </g>
    </g>
</svg>
