<svg xmlns="http://www.w3.org/2000/svg" width="20" height="19" viewBox="0 0 20 19">
    <g fill="none" fill-rule="evenodd">
        <path d="M0 0H24V24H0z" transform="translate(-2 -3)"/>
        <path fill="#8792A3" fill-rule="nonzero" d="M17.727 3.044c-.873.112-1.668.565-2.29 1.188l-9.254 9.253c-.408.408-.72.92-.814 1.49-.291 1.772 1.225 3.29 2.999 3.003.569-.092 1.082-.403 1.49-.81L18.3 8.723c.163-.162.163-.426 0-.589l-.589-.59c-.162-.162-.426-.162-.589 0l-8.527 8.528c-.177.176-.411.273-.662.273-.514 0-.933-.42-.933-.935 0-.249.097-.483.273-.66L16.726 5.3c.4-.4.93-.62 1.494-.62 1.165 0 2.113.949 2.113 2.143 0 .55-.21 1.072-.594 1.469L9.886 18.484c-.596.617-1.37 1.066-2.222 1.169-2.259.274-4.17-1.582-3.985-3.88.07-.872.5-1.677 1.118-2.295l9.164-9.165c.163-.162.163-.426 0-.589l-.589-.589c-.163-.163-.426-.163-.59 0L3.53 12.388C2.543 13.375 2 14.685 2 16.124c0 1.348.55 2.658 1.496 3.619 2.271 2.307 5.597 1.959 7.48.01L20.939 9.45C21.623 8.74 22 7.807 22 6.793c0-2.247-1.97-4.042-4.273-3.749z" transform="translate(-2 -3)"/>
    </g>
</svg>
