<svg xmlns="http://www.w3.org/2000/svg" xmlns:xlink="http://www.w3.org/1999/xlink" width="60" height="60" viewBox="0 0 60 60">
    <defs>
        <path id="pggq9y3yua" d="M35.4 40C26.908 40 20 33.092 20 24.6c0-2.537 2.064-4.6 4.6-4.6.26 0 .517.022.766.065.243.039.488.101.725.183.326.113.57.386.647.722l1.37 5.964c.075.328-.02.672-.253.916-.137.142-.14.145-1.38.794 1.004 2.174 2.749 3.913 4.88 4.883.649-1.241.653-1.245.795-1.381.245-.234.59-.325.917-.253l5.964 1.369c.335.077.608.321.721.646.082.236.143.48.184.731.042.247.064.503.064.761 0 2.537-2.063 4.6-4.6 4.6"/>
    </defs>
    <g fill="none" fill-rule="evenodd">
        <g>
            <g transform="translate(-171 -550) translate(171 550)">
                <path fill="#0074A3" fill-rule="nonzero" d="M51.21 8.784C39.493-2.93 20.498-2.928 8.784 8.79-2.93 20.508-2.928 39.502 8.79 51.216c11.718 11.714 30.713 11.712 42.426-.006 5.626-5.627 8.786-13.26 8.784-21.216-.002-7.956-3.163-15.586-8.79-21.21z"/>
                <use fill="#FFF" xlink:href="#pggq9y3yua"/>
            </g>
        </g>
    </g>
</svg>
