<svg xmlns="http://www.w3.org/2000/svg" width="64" height="54" viewBox="0 0 64 54">
    <g fill="none" fill-rule="evenodd">
        <path fill="#B7BDC8" d="M0 0h54c5.523 0 10 4.477 10 10v34c0 5.523-4.477 10-10 10H0V0z"/>
        <g fill="#FFF" fill-rule="nonzero">
            <path d="M18.574.001H2.637C1.177.001 0 1.18 0 2.638v10.547c0 1.459 1.178 2.637 2.637 2.637h.879v2.636c0 .635.657 1.095 1.3.774.018-.018.053-.018.07-.035 4.836-3.243 3.752-2.52 4.835-3.235.14-.088.299-.14.474-.14h8.38c1.458 0 2.636-1.178 2.636-2.637V2.638c0-1.459-1.178-2.637-2.637-2.637zm-7.031 10.547H4.395c-1.159 0-1.164-1.758 0-1.758h7.148c1.159 0 1.163 1.758 0 1.758zm5.273-3.515H4.395c-1.159 0-1.164-1.758 0-1.758h12.421c1.159 0 1.164 1.758 0 1.758z" transform="translate(17 14)"/>
            <path d="M27.363 7.033H22.97v6.152c0 2.426-1.969 4.394-4.395 4.394H10.46l-1.67 1.108v1.53c0 1.458 1.178 2.636 2.637 2.636h8.642l5.045 3.375c.689.382 1.371-.083 1.371-.738v-2.637h.88c1.458 0 2.636-1.178 2.636-2.637V9.67c0-1.459-1.178-2.636-2.637-2.636z" transform="translate(17 14)"/>
        </g>
    </g>
</svg>
