<svg xmlns="http://www.w3.org/2000/svg" width="62" height="62" viewBox="0 0 62 62">
    <g fill="none" fill-rule="evenodd">
        <g fill-rule="nonzero">
            <g>
                <g>
                    <path fill="#FFF" stroke="#0074A3" d="M51.21 8.784C39.493-2.93 20.498-2.928 8.784 8.79-2.93 20.508-2.928 39.502 8.79 51.216c11.718 11.714 30.713 11.712 42.426-.006 5.626-5.627 8.786-13.26 8.784-21.216-.002-7.956-3.163-15.586-8.79-21.21z" transform="translate(-410 -549) translate(171 550) translate(240)"/>
                    <path fill="#0074A3" d="M37.852 20h-15.71C20.96 20 20 20.96 20 22.142v11.426c0 1.183.96 2.142 2.142 2.142h2.535l-.388 3.492c-.043.392.24.745.631.788.203.022.405-.043.556-.18l4.558-4.1h7.818c1.183 0 2.142-.96 2.142-2.142V22.142c0-1.183-.959-2.142-2.142-2.142z" transform="translate(-410 -549) translate(171 550) translate(240)"/>
                </g>
            </g>
        </g>
    </g>
</svg>
