<svg xmlns="http://www.w3.org/2000/svg" width="42" height="42" viewBox="0 0 42 42">
    <g fill="none" fill-rule="evenodd">
        <g>
            <g transform="translate(-451 -113) translate(452 114)">
                <rect width="40" height="40" fill="#000" fill-opacity=".2" stroke="#FFF" rx="4"/>
                <g fill="#FFF" fill-rule="nonzero">
                    <path d="M6.888 5.402c-.007-.01-.006-.023-.016-.032L3.657 2.154l1.747.003c.413 0 .772-.359.771-.772V.798c0-.428-.347-.775-.774-.775H.841C.628.023.43.112.282.26.138.406.051.601.051.812V5.47c0 .427.347.775.774.775h.588c.427 0 .774-.347.774-.774l-.001-1.75 2.786 2.787.004.004.36.358c.301.303.787.296 1.09-.006l.415-.416c.286-.287.303-.74.047-1.045zM19.952 14.575c0-.428-.348-.776-.775-.776h-.587c-.413 0-.773.36-.773.773l.002 1.747-3.202-3.203c-.01-.01-.028-.015-.04-.022-.303-.257-.764-.246-1.05.04l-.416.416c-.302.302-.297.8.006 1.103l.358.359.004.004 2.774 2.774-1.749-.001c-.412 0-.774.36-.774.774l.002.589c0 .427.348.775.774.774l4.658.002c.207 0 .402-.078.55-.225l.02-.021c.142-.142.22-.338.22-.543l-.002-4.564zM6.833 13.564l-.416-.416c-.286-.286-.75-.293-1.053-.036-.011.007-.032.016-.042.026l-3.189 3.19.002-1.749c0-.206-.079-.399-.225-.545-.147-.147-.341-.228-.547-.227H.775c-.214 0-.407.086-.548.227-.14.14-.227.334-.227.547v4.56c0 .212.085.41.239.558.142.148.34.232.55.232h4.657c.428 0 .775-.347.775-.773v-.589c0-.206-.08-.4-.227-.546-.146-.147-.34-.227-.546-.227l-1.748.002 2.76-2.76.004-.004.312-.312.047-.047c.302-.302.312-.809.01-1.11zM19.908.814c0-.21-.085-.408-.239-.556-.142-.148-.34-.233-.55-.233h-4.562c-.213 0-.407.087-.547.227-.14.14-.227.333-.227.547v.588c0 .206.08.4.227.547.146.146.34.226.546.226l1.747-.002-3.206 3.207c-.01.01-.018.029-.025.04-.257.304-.248.765.038 1.05l.416.417c.302.302.805.295 1.108-.007l.358-.359.004-.004 2.778-2.778-.001 1.749c0 .206.079.399.225.545.147.147.341.228.547.227h.588c.428 0 .775-.347.775-.774V.814z" transform="translate(10 10)"/>
                </g>
            </g>
        </g>
    </g>
</svg>
