<svg xmlns="http://www.w3.org/2000/svg" xmlns:xlink="http://www.w3.org/1999/xlink" width="736" height="776" viewBox="0 0 736 776">
    <defs>
        <path id="4jxxhy2m0a" d="M29.677 59.754C13.317 59.754.055 46.492.055 30.132S13.317.51 29.677.51 59.3 13.772 59.3 30.132 46.037 59.754 29.677 59.754z"/>
    </defs>
    <g fill="none" fill-rule="evenodd">
        <g>
            <g>
                <g>
                    <path fill="#FFF" stroke="#E5EAEB" stroke-dasharray="0 0" d="M0 0h728c3.314 0 6 2.686 6 6v762c0 3.314-2.686 6-6 6H6c-3.314 0-6-2.686-6-6V0h0z" transform="translate(-571 -162) translate(542 94) translate(30 69)"/>
                    <g>
                        <g>
                            <text fill="#0074A3" font-family="Nunito, sans-serif" font-size="18" font-weight="bold" transform="translate(-571 -162) translate(542 94) translate(30 69) translate(16 17) translate(79 9)">
                                <tspan x="0" y="18">Sam D’Silva</tspan>
                            </text>
                            <text fill="#67818C" font-family="Nunito, sans-serif" font-size="14" font-style="italic" font-weight="500" transform="translate(-571 -162) translate(542 94) translate(30 69) translate(16 17) translate(79 9)">
                                <tspan x="3" y="38">5”6inches | 148.033 lbs</tspan>
                            </text>
                        </g>
                        <g transform="translate(-571 -162) translate(542 94) translate(30 69) translate(16 17) translate(1)">
                            <mask id="frudfaqltb" fill="#fff">
                                <use xlink:href="#4jxxhy2m0a"/>
                            </mask>
                            <use fill="#F7F8F9" xlink:href="#4jxxhy2m0a"/>
                            <path fill="#F3B799" d="M24.005 47.528L35.35 47.528 35.35 39.885 24.005 39.885z" mask="url(#frudfaqltb)"/>
                            <path fill="#DCA78D" d="M32.28 46.517h-.098c-1.84-.015-3.717-.426-5.425-1.104-.938-.372-1.955-.874-2.752-1.575v-3.953H35.35v6.325c-1.008.178-2.048.307-3.07.307" mask="url(#frudfaqltb)"/>
                            <path fill="#F3B799" d="M41.52 25.73c.037-.277.498-.73.7-.883.45-.34.902.01 1.034.453.118.396.128.842.156 1.253.07 1.002-.08 1.987-.52 2.891-.295.604-.757 1.1-1.303 1.473 0 0-.588.3-.705-.39l.639-4.797" mask="url(#frudfaqltb)"/>
                            <path fill="#D4A289" d="M41.427 26.332c.026-.199.356-.522.5-.632.322-.243.646.007.74.324.084.284.091.602.112.897.05.717-.057 1.422-.373 2.069-.21.432-.54.786-.932 1.054 0 0-.421.215-.505-.278l.458-3.434" mask="url(#frudfaqltb)"/>
                            <path fill="#F3B799" d="M17.545 25.73c-.037-.277-.498-.73-.7-.883-.449-.34-.901.01-1.033.453-.117.396-.129.842-.157 1.253-.069 1.002.08 1.987.522 2.891.294.604.755 1.1 1.301 1.473 0 0 .589.3.706-.39l-.64-4.797" mask="url(#frudfaqltb)"/>
                            <path fill="#D4A289" d="M17.639 26.332c-.027-.199-.356-.522-.501-.632-.322-.243-.645.007-.74.324-.084.284-.091.602-.111.897-.05.717.057 1.422.372 2.069.211.432.541.786.932 1.054 0 0 .421.215.505-.278l-.457-3.434" mask="url(#frudfaqltb)"/>
                            <path fill="#F3B799" d="M41.88 26.633c0 3.163-.533 6.362-1.99 9.1-1.274 2.393-3.186 4.31-5.238 5.841-1.664 1.242-3.45 2.69-5.556 2.512-2.196-.184-3.906-2.1-5.51-3.595-2.257-2.103-4.038-4.715-5.135-7.788-.676-1.894-.987-4.03-.987-6.07 0-10.226 5.466-16.659 12.208-16.659s12.208 6.433 12.208 16.66M49.487 50.985L35.35 47.287H24.005L9.868 50.985s-6.552 2.426-7.28 10.11h54.178c-.728-7.684-7.279-10.11-7.279-10.11" mask="url(#frudfaqltb)"/>
                            <path fill="#CCD5D9" d="M49.487 50.985L35.35 47.287H24.005L9.868 50.985s-6.552 2.426-7.28 10.11h54.178c-.728-7.684-7.279-10.11-7.279-10.11" mask="url(#frudfaqltb)"/>
                            <path fill="#00080C" d="M49.487 50.985l-10.463-2.737-9.347 12.847-9.246-12.873-10.563 2.763s-6.552 2.426-7.28 10.11h54.178c-.728-7.684-7.279-10.11-7.279-10.11" mask="url(#frudfaqltb)"/>
                            <path fill="#8ABD38" d="M28.437 54.659L25.832 61.095 33.233 61.095 30.695 54.659 28.437 54.659" mask="url(#frudfaqltb)"/>
                            <path fill="#8ABD38" d="M29.506 47.414L26.191 51.862 28.495 54.677 29.624 54.658 30.753 54.64 32.965 51.752 29.506 47.414" mask="url(#frudfaqltb)"/>
                            <path fill="#CBCCCB" d="M29.593 54.659h-.002.033l1.129-.02 2.212-2.887-2.212 2.888-1.16.019m-3.402-2.797l3.178-4.264-3.178 4.264" mask="url(#frudfaqltb)"/>
                            <path fill="#239382" d="M28.495 54.677L28.481 54.659 28.495 54.677 29.591 54.659 29.593 54.659 28.495 54.677" mask="url(#frudfaqltb)"/>
                            <path fill="#608721" d="M28.495 54.677l-.014-.018-2.29-2.797 3.178-4.264c-.373.982-1.042 1.845-1.292 2.883-.256 1.065.254 2.112 1.36 2.355.113.025.222.036.328.036.905 0 1.578-.843 1.957-1.593.115-.227.216-.462.307-.701l.936 1.174-2.212 2.888-1.13.018h-.032l-1.096.019" mask="url(#frudfaqltb)"/>
                            <path fill="#002F41" d="M29.677 61.095L20.431 48.222 13.038 50.156 22.486 56.807 20.059 57.877 24.426 61.095 29.677 61.095M29.677 61.113L38.924 48.24 46.316 50.173 36.869 56.825 39.295 57.895 34.927 61.113 29.677 61.113" mask="url(#frudfaqltb)"/>
                            <path fill="#F7F8F9" d="M18.441 47.558L23.986 44.958 29.638 47.318 35.291 44.958 41.216 47.558 32.839 53.167 29.638 48.582 26.191 53.167 18.441 47.558" mask="url(#frudfaqltb)"/>
                            <path fill="#140800" d="M36.824 39.726s3.065-2.899 3.742-5.457c0 0-3.617 3.263-4.877 2.916l1.135 2.54M23.382 40.593s-3.553-3.044-4.53-6.86c0 0 4.054 4.68 5.314 4.332l-.784 2.528" mask="url(#frudfaqltb)"/>
                            <path fill="#190E05" d="M31.838 35.574c2.007.027 3.099.72 3.099.72 1.763.83 2.213 3.091 2.213 3.091s-1.213 1.342-2.692 2.291c-3.345 2.773-4.88 2.422-4.88 2.422-1.903.003-3.239-1.187-3.239-1.187l-3.13-2.453c-.39-2.787 2.043-4.164 2.043-4.164 1.458-.709 1.722-.614 1.722-.614s2.184-.255 2.72.613c0 0 .548-.72 2.034-.72" mask="url(#frudfaqltb)"/>
                            <path fill="#F3B799" d="M29.97 37.867s-1.374-.686-3.372.052c0 0 3.033 3.217 6.477.042 0 0-1.846-.862-3.106-.094" mask="url(#frudfaqltb)"/>
                            <path fill="#140800" d="M41.99 11.549c2.75-2.002 2.45-5.083 2.45-5.083-1.6 1.759-3.947 1.988-3.947 1.988C42.92 7 41.715 3.966 41.715 3.966c-.758 1.698-4.134 2.67-4.134 2.67 1.638-1.093.617-3.58.617-3.58-1.14 1.941-4.56 2.79-4.56 2.79 2.245-1.274 2.487-3.093 2.487-3.093-2.002 1.758-7.461 2.608-7.461 2.608s-6.015.547-7.509 5.545c-4.398.633-4.439 8.07-4.134 12.084l.279 4.857h.977c-.438-2.326 0-5.48 0-5.48.671-2.26 1.016-3.597 1.45-4.542 1.043-2.276 2.667-2.967 3.705-3.17l.985-.073c4.307-.63 5.577 2.426 5.577 2.426.667-1.759 2.917-2.183 2.917-2.183 6.55-.874 7.49 4.307 7.49 4.307l.74 3.296c.102 1.098.279 3.64-.056 5.419h.977l.279-4.856c.007-.15.006-.282-.001-.402.493-2.707.93-7.12-.35-11.04" mask="url(#frudfaqltb)"/>
                        </g>
                        <g>
                            <g fill="#345766" font-family="Nunito, sans-serif" font-size="12" font-weight="bold">
                                <g>
                                    <text transform="translate(-571 -162) translate(542 94) translate(30 69) translate(16 17) translate(0 80)">
                                        <tspan x="0" y="12">Current Medication</tspan>
                                    </text>
                                </g>
                            </g>
                            <path fill="#FFF" stroke="#67818C" stroke-dasharray="0 0" d="M4 24h693c2.21 0 4 1.79 4 4v184c0 2.21-1.79 4-4 4H4c-2.21 0-4-1.79-4-4V28c0-2.21 1.79-4 4-4z" opacity=".2" transform="translate(-571 -162) translate(542 94) translate(30 69) translate(16 17) translate(0 80)"/>
                            <path fill="#F7F8F9" d="M4 24h693c2.21 0 4 1.79 4 4v36H0V28c0-2.21 1.79-4 4-4z" transform="translate(-571 -162) translate(542 94) translate(30 69) translate(16 17) translate(0 80)"/>
                            <text fill="#67818C" font-family="Nunito, sans-serif" font-size="14" font-style="italic" font-weight="500" transform="translate(-571 -162) translate(542 94) translate(30 69) translate(16 17) translate(0 80)">
                                <tspan x="24" y="49">Medication Name</tspan>
                            </text>
                            <text fill="#67818C" font-family="Nunito, sans-serif" font-size="14" font-style="italic" font-weight="500" transform="translate(-571 -162) translate(542 94) translate(30 69) translate(16 17) translate(0 80)">
                                <tspan x="195" y="49">Pack per day, per week</tspan>
                            </text>
                            <text fill="#67818C" font-family="Nunito, sans-serif" font-size="14" font-style="italic" font-weight="500" transform="translate(-571 -162) translate(542 94) translate(30 69) translate(16 17) translate(0 80)">
                                <tspan x="366" y="49">Frequency</tspan>
                            </text>
                            <text fill="#67818C" font-family="Nunito, sans-serif" font-size="14" font-style="italic" font-weight="500" transform="translate(-571 -162) translate(542 94) translate(30 69) translate(16 17) translate(0 80)">
                                <tspan x="537" y="49">Mg</tspan>
                            </text>
                            <g>
                                <path fill="#F7F8F9" d="M4 0h143c2.21 0 4 1.79 4 4v32c0 2.21-1.79 4-4 4H4c-2.21 0-4-1.79-4-4V4c0-2.21 1.79-4 4-4z" transform="translate(-571 -162) translate(542 94) translate(30 69) translate(16 17) translate(0 80) translate(24 88)"/>
                                <text fill="#012E40" font-family="Nunito, sans-serif" font-size="14" font-weight="500" transform="translate(-571 -162) translate(542 94) translate(30 69) translate(16 17) translate(0 80) translate(24 88)">
                                    <tspan x="24" y="25">Crocin</tspan>
                                </text>
                            </g>
                            <g>
                                <path fill="#F7F8F9" d="M4 0h143c2.21 0 4 1.79 4 4v32c0 2.21-1.79 4-4 4H4c-2.21 0-4-1.79-4-4V4c0-2.21 1.79-4 4-4z" transform="translate(-571 -162) translate(542 94) translate(30 69) translate(16 17) translate(0 80) translate(24 152)"/>
                                <text fill="#012E40" font-family="Nunito, sans-serif" font-size="14" font-weight="500" transform="translate(-571 -162) translate(542 94) translate(30 69) translate(16 17) translate(0 80) translate(24 152)">
                                    <tspan x="24" y="25">Liv 52</tspan>
                                </text>
                            </g>
                            <g>
                                <path fill="#F7F8F9" d="M4 0h143c2.21 0 4 1.79 4 4v32c0 2.21-1.79 4-4 4H4c-2.21 0-4-1.79-4-4V4c0-2.21 1.79-4 4-4z" transform="translate(-571 -162) translate(542 94) translate(30 69) translate(16 17) translate(0 80) translate(366 88)"/>
                                <text fill="#012E40" font-family="Nunito, sans-serif" font-size="14" font-weight="500" transform="translate(-571 -162) translate(542 94) translate(30 69) translate(16 17) translate(0 80) translate(366 88)">
                                    <tspan x="24" y="25">Daily</tspan>
                                </text>
                            </g>
                            <g>
                                <path fill="#F7F8F9" d="M4 0h143c2.21 0 4 1.79 4 4v32c0 2.21-1.79 4-4 4H4c-2.21 0-4-1.79-4-4V4c0-2.21 1.79-4 4-4z" transform="translate(-571 -162) translate(542 94) translate(30 69) translate(16 17) translate(0 80) translate(366 152)"/>
                                <text fill="#012E40" font-family="Nunito, sans-serif" font-size="14" font-weight="500" transform="translate(-571 -162) translate(542 94) translate(30 69) translate(16 17) translate(0 80) translate(366 152)">
                                    <tspan x="24" y="25">Daily</tspan>
                                </text>
                            </g>
                            <g fill="#F7F8F9">
                                <path d="M4 0h144c2.21 0 4 1.79 4 4v32c0 2.21-1.79 4-4 4H4c-2.21 0-4-1.79-4-4V4c0-2.21 1.79-4 4-4z" transform="translate(-571 -162) translate(542 94) translate(30 69) translate(16 17) translate(0 80) translate(537 88)"/>
                            </g>
                            <g fill="#F7F8F9">
                                <path d="M4 0h144c2.21 0 4 1.79 4 4v32c0 2.21-1.79 4-4 4H4c-2.21 0-4-1.79-4-4V4c0-2.21 1.79-4 4-4z" transform="translate(-571 -162) translate(542 94) translate(30 69) translate(16 17) translate(0 80) translate(537 152)"/>
                            </g>
                            <g>
                                <path fill="#F7F8F9" d="M4 0h143c2.21 0 4 1.79 4 4v32c0 2.21-1.79 4-4 4H4c-2.21 0-4-1.79-4-4V4c0-2.21 1.79-4 4-4z" transform="translate(-571 -162) translate(542 94) translate(30 69) translate(16 17) translate(0 80) translate(195 88)"/>
                                <text fill="#012E40" font-family="Nunito, sans-serif" font-size="14" font-weight="500" transform="translate(-571 -162) translate(542 94) translate(30 69) translate(16 17) translate(0 80) translate(195 88)">
                                    <tspan x="25" y="25">3</tspan>
                                </text>
                            </g>
                            <g>
                                <path fill="#F7F8F9" d="M4 0h143c2.21 0 4 1.79 4 4v32c0 2.21-1.79 4-4 4H4c-2.21 0-4-1.79-4-4V4c0-2.21 1.79-4 4-4z" transform="translate(-571 -162) translate(542 94) translate(30 69) translate(16 17) translate(0 80) translate(195 152)"/>
                                <text fill="#012E40" font-family="Nunito, sans-serif" font-size="14" font-weight="500" transform="translate(-571 -162) translate(542 94) translate(30 69) translate(16 17) translate(0 80) translate(195 152)">
                                    <tspan x="25" y="25">2</tspan>
                                </text>
                            </g>
                            <text fill="#012E40" font-family="Nunito, sans-serif" font-size="14" font-weight="500" transform="translate(-571 -162) translate(542 94) translate(30 69) translate(16 17) translate(0 80)">
                                <tspan x="561" y="113">50</tspan>
                            </text>
                            <text fill="#012E40" font-family="Nunito, sans-serif" font-size="14" font-weight="500" transform="translate(-571 -162) translate(542 94) translate(30 69) translate(16 17) translate(0 80)">
                                <tspan x="561" y="177">25</tspan>
                            </text>
                        </g>
                        <g>
                            <g fill="#345766" font-family="Nunito, sans-serif" font-size="12" font-weight="bold">
                                <g>
                                    <text transform="translate(-571 -162) translate(542 94) translate(30 69) translate(16 17) translate(0 320) translate(1)">
                                        <tspan x="0" y="12">Allergy Type</tspan>
                                    </text>
                                </g>
                            </g>
                            <path fill="#FFF" stroke="#67818C" stroke-dasharray="0 0" d="M4 24h693c2.21 0 4 1.79 4 4v184c0 2.21-1.79 4-4 4H4c-2.21 0-4-1.79-4-4V28c0-2.21 1.79-4 4-4z" opacity=".2" transform="translate(-571 -162) translate(542 94) translate(30 69) translate(16 17) translate(0 320)"/>
                            <path fill="#F7F8F9" d="M5 24h693c2.21 0 4 1.79 4 4v36H1V28c0-2.21 1.79-4 4-4z" transform="translate(-571 -162) translate(542 94) translate(30 69) translate(16 17) translate(0 320)"/>
                            <text fill="#67818C" font-family="Nunito, sans-serif" font-size="14" font-style="italic" font-weight="500" transform="translate(-571 -162) translate(542 94) translate(30 69) translate(16 17) translate(0 320)">
                                <tspan x="24" y="49">Medication Name</tspan>
                            </text>
                            <text fill="#67818C" font-family="Nunito, sans-serif" font-size="14" font-style="italic" font-weight="500" transform="translate(-571 -162) translate(542 94) translate(30 69) translate(16 17) translate(0 320)">
                                <tspan x="249" y="49">Allergy</tspan>
                            </text>
                            <text fill="#67818C" font-family="Nunito, sans-serif" font-size="14" font-style="italic" font-weight="500" transform="translate(-571 -162) translate(542 94) translate(30 69) translate(16 17) translate(0 320)">
                                <tspan x="472" y="49">Reaction</tspan>
                            </text>
                            <g>
                                <path fill="#F7F8F9" d="M4 0h197c2.21 0 4 1.79 4 4v32c0 2.21-1.79 4-4 4H4c-2.21 0-4-1.79-4-4V4c0-2.21 1.79-4 4-4z" transform="translate(-571 -162) translate(542 94) translate(30 69) translate(16 17) translate(0 320) translate(24 88)"/>
                                <text fill="#012E40" font-family="Nunito, sans-serif" font-size="14" font-weight="500" transform="translate(-571 -162) translate(542 94) translate(30 69) translate(16 17) translate(0 320) translate(24 88)">
                                    <tspan x="25" y="25">Drug</tspan>
                                </text>
                            </g>
                            <g>
                                <path fill="#F7F8F9" d="M4 0h197c2.21 0 4 1.79 4 4v32c0 2.21-1.79 4-4 4H4c-2.21 0-4-1.79-4-4V4c0-2.21 1.79-4 4-4z" transform="translate(-571 -162) translate(542 94) translate(30 69) translate(16 17) translate(0 320) translate(24 152)"/>
                                <text fill="#012E40" font-family="Nunito, sans-serif" font-size="14" font-weight="500" transform="translate(-571 -162) translate(542 94) translate(30 69) translate(16 17) translate(0 320) translate(24 152)">
                                    <tspan x="25" y="25">Drug</tspan>
                                </text>
                            </g>
                            <g fill="#F7F8F9">
                                <path d="M4 0h198c2.21 0 4 1.79 4 4v32c0 2.21-1.79 4-4 4H4c-2.21 0-4-1.79-4-4V4c0-2.21 1.79-4 4-4z" transform="translate(-571 -162) translate(542 94) translate(30 69) translate(16 17) translate(0 320) translate(472 88)"/>
                            </g>
                            <g fill="#F7F8F9">
                                <path d="M4 0h198c2.21 0 4 1.79 4 4v32c0 2.21-1.79 4-4 4H4c-2.21 0-4-1.79-4-4V4c0-2.21 1.79-4 4-4z" transform="translate(-571 -162) translate(542 94) translate(30 69) translate(16 17) translate(0 320) translate(472 152)"/>
                            </g>
                            <g>
                                <path fill="#F7F8F9" d="M4 0h195c2.21 0 4 1.79 4 4v32c0 2.21-1.79 4-4 4H4c-2.21 0-4-1.79-4-4V4c0-2.21 1.79-4 4-4z" transform="translate(-571 -162) translate(542 94) translate(30 69) translate(16 17) translate(0 320) translate(249 88)"/>
                                <text fill="#012E40" font-family="Nunito, sans-serif" font-size="14" font-weight="500" transform="translate(-571 -162) translate(542 94) translate(30 69) translate(16 17) translate(0 320) translate(249 88)">
                                    <tspan x="24" y="25">ABC Plus Senior</tspan>
                                </text>
                            </g>
                            <g>
                                <path fill="#F7F8F9" d="M4 0h195c2.21 0 4 1.79 4 4v32c0 2.21-1.79 4-4 4H4c-2.21 0-4-1.79-4-4V4c0-2.21 1.79-4 4-4z" transform="translate(-571 -162) translate(542 94) translate(30 69) translate(16 17) translate(0 320) translate(249 152)"/>
                                <text fill="#012E40" font-family="Nunito, sans-serif" font-size="14" font-weight="500" transform="translate(-571 -162) translate(542 94) translate(30 69) translate(16 17) translate(0 320) translate(249 152)">
                                    <tspan x="24" y="25">XYZ Plus Senior</tspan>
                                </text>
                            </g>
                        </g>
                        <text fill="#012E40" font-family="Nunito, sans-serif" font-size="14" font-weight="500" transform="translate(-571 -162) translate(542 94) translate(30 69) translate(16 17)">
                            <tspan x="496" y="433">Itching</tspan>
                        </text>
                        <text fill="#012E40" font-family="Nunito, sans-serif" font-size="14" font-weight="500" transform="translate(-571 -162) translate(542 94) translate(30 69) translate(16 17)">
                            <tspan x="496" y="497">Dry scalp</tspan>
                        </text>
                        <g font-family="Nunito, sans-serif" font-weight="500">
                            <g>
                                <g fill="#012E40" font-size="14">
                                    <text transform="translate(-571 -162) translate(542 94) translate(30 69) translate(16 17) translate(0 560) translate(0 69) translate(0 20)">
                                        <tspan x="0" y="14">5 times</tspan>
                                    </text>
                                </g>
                                <g fill="#345766" font-size="12">
                                    <g>
                                        <text transform="translate(-571 -162) translate(542 94) translate(30 69) translate(16 17) translate(0 560) translate(0 69)">
                                            <tspan x="0" y="12">Smoke (per day)</tspan>
                                        </text>
                                    </g>
                                </g>
                            </g>
                            <g>
                                <g fill="#012E40" font-size="14">
                                    <text transform="translate(-571 -162) translate(542 94) translate(30 69) translate(16 17) translate(0 560) translate(367 69) translate(0 20)">
                                        <tspan x="0" y="14"> 9 Jan, 2021</tspan>
                                    </text>
                                </g>
                                <g fill="#345766" font-size="12">
                                    <g>
                                        <text transform="translate(-571 -162) translate(542 94) translate(30 69) translate(16 17) translate(0 560) translate(367 69)">
                                            <tspan x="0" y="12">Last visit to the doctor on</tspan>
                                        </text>
                                    </g>
                                </g>
                            </g>
                            <g>
                                <g fill="#012E40" font-size="14">
                                    <text transform="translate(-571 -162) translate(542 94) translate(30 69) translate(16 17) translate(0 560) translate(0 138) translate(0 20)">
                                        <tspan x="0" y="14">Anxiety, Cancer</tspan>
                                    </text>
                                </g>
                                <g fill="#345766" font-size="12">
                                    <g>
                                        <text transform="translate(-571 -162) translate(542 94) translate(30 69) translate(16 17) translate(0 560) translate(0 138)">
                                            <tspan x="0" y="12">Health Problems</tspan>
                                        </text>
                                    </g>
                                </g>
                            </g>
                            <g>
                                <g fill="#012E40" font-size="14">
                                    <text transform="translate(-571 -162) translate(542 94) translate(30 69) translate(16 17) translate(0 560) translate(367 138) translate(0 20)">
                                        <tspan x="0" y="14">Cancer, Diabetes</tspan>
                                    </text>
                                </g>
                                <g fill="#345766" font-size="12">
                                    <g>
                                        <text transform="translate(-571 -162) translate(542 94) translate(30 69) translate(16 17) translate(0 560) translate(367 138)">
                                            <tspan x="0" y="12">Family History</tspan>
                                        </text>
                                    </g>
                                </g>
                            </g>
                            <g>
                                <g fill="#012E40" font-size="14">
                                    <text transform="translate(-571 -162) translate(542 94) translate(30 69) translate(16 17) translate(0 560) translate(0 20)">
                                        <tspan x="0" y="14">India</tspan>
                                    </text>
                                </g>
                                <g fill="#345766" font-size="12">
                                    <g>
                                        <text transform="translate(-571 -162) translate(542 94) translate(30 69) translate(16 17) translate(0 560)">
                                            <tspan x="0" y="12">Travelled overseas in the past 2 months to</tspan>
                                        </text>
                                    </g>
                                </g>
                            </g>
                            <g>
                                <g fill="#012E40" font-size="14">
                                    <text transform="translate(-571 -162) translate(542 94) translate(30 69) translate(16 17) translate(0 560) translate(367) translate(0 20)">
                                        <tspan x="0" y="14">2 times</tspan>
                                    </text>
                                </g>
                                <g fill="#345766" font-size="12">
                                    <g>
                                        <text transform="translate(-571 -162) translate(542 94) translate(30 69) translate(16 17) translate(0 560) translate(367)">
                                            <tspan x="0" y="12">Consumes Alcohol (per day, per week)</tspan>
                                        </text>
                                    </g>
                                </g>
                            </g>
                        </g>
                    </g>
                </g>
            </g>
        </g>
    </g>
</svg>
