<svg xmlns="http://www.w3.org/2000/svg" width="16" height="24" viewBox="0 0 16 24">
    <g fill="#FFF">
        <path d="M7.998 15.995c1.222 0 2.268-.435 3.138-1.305.87-.87 1.305-1.916 1.305-3.138V4.443c0-1.222-.435-2.268-1.305-3.138C10.266.435 9.22 0 7.998 0S5.73.435 4.86 1.305c-.87.87-1.305 1.916-1.305 3.138v7.11c0 1.221.435 2.267 1.305 3.137.87.87 1.916 1.305 3.138 1.305z"/>
        <path d="M15.731 9.15c-.175-.176-.384-.264-.624-.264s-.45.088-.625.264c-.176.176-.264.384-.264.625v1.777c0 1.713-.609 3.177-1.826 4.395-1.217 1.217-2.682 1.826-4.394 1.826-1.713 0-3.178-.609-4.395-1.826-1.217-1.217-1.826-2.682-1.826-4.395V9.775c0-.24-.088-.449-.263-.625-.176-.176-.384-.264-.625-.264s-.45.088-.625.264C.088 9.326 0 9.534 0 9.775v1.777c0 2.046.683 3.826 2.048 5.339 1.365 1.513 3.052 2.38 5.061 2.603v1.833H3.555c-.241 0-.45.088-.625.264-.176.176-.264.384-.264.625 0 .24.088.449.264.624.176.176.384.264.625.264h8.886c.24 0 .449-.088.624-.264.176-.175.265-.384.265-.624s-.089-.45-.265-.625c-.175-.176-.384-.264-.624-.264H8.887v-1.833c2.008-.222 3.695-1.09 5.06-2.603 1.366-1.513 2.049-3.293 2.049-5.339V9.775c0-.24-.088-.449-.265-.625z"/>
    </g>
</svg>
