<svg xmlns="http://www.w3.org/2000/svg" width="62" height="62" viewBox="0 0 62 62">
    <g fill="none" fill-rule="evenodd">
        <path fill="#FFF" fill-rule="nonzero" stroke="#FFF" d="M51.206 8.784C39.488-2.93 20.493-2.928 8.779 8.79c-11.714 11.718-11.71 30.712.007 42.426 11.717 11.714 30.712 11.712 42.426-.006 5.626-5.627 8.786-13.26 8.784-21.216-.002-7.956-3.164-15.586-8.79-21.21z" transform="translate(1 1)"/>
        <path fill="#AFAFAF" fill-rule="nonzero" d="M29.998 33.995c1.222 0 2.268-.435 3.138-1.305.87-.87 1.305-1.916 1.305-3.138v-7.109c0-1.222-.435-2.268-1.305-3.138-.87-.87-1.916-1.305-3.138-1.305s-2.268.435-3.138 1.305c-.87.87-1.305 1.916-1.305 3.138v7.11c0 1.221.435 2.267 1.305 3.137.87.87 1.916 1.305 3.138 1.305z" transform="translate(1 1)"/>
        <path fill="#AFAFAF" fill-rule="nonzero" d="M37.731 27.15c-.175-.176-.384-.264-.624-.264s-.45.088-.625.264c-.176.176-.264.384-.264.625v1.777c0 1.713-.609 3.177-1.826 4.395-1.217 1.217-2.682 1.826-4.394 1.826-1.713 0-3.178-.609-4.395-1.826-1.217-1.217-1.826-2.682-1.826-4.395v-1.777c0-.24-.088-.449-.263-.625-.176-.176-.384-.264-.625-.264s-.45.088-.625.264c-.176.176-.264.384-.264.625v1.777c0 2.046.683 3.826 2.048 5.339 1.365 1.513 3.052 2.38 5.061 2.603v1.833h-3.554c-.241 0-.45.088-.625.264-.176.176-.264.384-.264.625 0 .24.088.449.264.624.176.176.384.264.625.264h8.886c.24 0 .449-.088.624-.264.176-.175.265-.384.265-.624s-.089-.45-.265-.625c-.175-.176-.384-.264-.624-.264h-3.554v-1.833c2.008-.222 3.695-1.09 5.06-2.603 1.366-1.513 2.049-3.293 2.049-5.339v-1.777c0-.24-.088-.449-.265-.625z" transform="translate(1 1)"/>
        <path stroke="#DC4437" stroke-linecap="round" stroke-linejoin="round" stroke-width="2" d="M23.425 19.691L37 39" transform="translate(1 1)"/>
    </g>
</svg>
