<svg xmlns="http://www.w3.org/2000/svg" width="60" height="60" viewBox="0 0 60 60">
    <g fill="none" fill-rule="evenodd">
        <circle cx="30" cy="30" r="20" fill="#FFF"/>
        <path fill="#DC4437" fill-rule="nonzero" d="M51.21 8.784C39.493-2.93 20.498-2.928 8.784 8.79-2.93 20.508-2.928 39.502 8.79 51.216c11.718 11.714 30.713 11.712 42.426-.006 5.626-5.627 8.786-13.26 8.784-21.216-.002-7.956-3.163-15.586-8.79-21.21zM15.35 33.6v-.004l.006.005.034-1.626c.023-2.124 1.155-4.08 2.984-5.16 1.884-1.046 3.923-1.782 6.04-2.183 1.946-.393 3.93-.57 5.915-.53 1.815.025 3.622.231 5.396.615 1.921.4 3.778 1.066 5.517 1.976 2.03 1.08 3.275 3.216 3.216 5.516l-.033 1.91c-.008.533-.447.958-.98.95h-.003l-6.033-.106c-.532-.008-.958-.446-.95-.978v-.005l.063-3.542c.023-1.01-.697-1.886-1.693-2.059-1.516-.265-3.05-.41-4.589-.434-1.721-.034-3.443.085-5.144.355-.981.158-1.71.995-1.731 1.989l-.033 3.452c-.008.532-.447.957-.979.949h-.004l-6.05-.111c-.532-.008-.956-.446-.948-.979z"/>
    </g>
</svg>
