<svg xmlns="http://www.w3.org/2000/svg" width="40" height="40" viewBox="0 0 40 40">
    <g fill="none" fill-rule="evenodd">
        <g>
            <g>
                <g>
                    <path fill="rgb(0, 116, 163, 50%)" d="M20 40c11.046 0 20-8.954 20-20S31.046 0 20 0 0 8.954 0 20s8.954 20 20 20z" transform="translate(-1276 -477) translate(996 100) translate(280 377)"/>
                    <g fill="#FFF" fill-rule="nonzero">
                        <path d="M18.809 6.845L2.672.149C1.992-.133 1.225-.009.668.473.112.955-.12 1.697.061 2.41l1.436 5.633H8.53c.324 0 .586.262.586.586 0 .323-.262.586-.586.586H1.497L.061 14.847c-.182.713.05 1.456.607 1.937.558.483 1.326.606 2.004.324l16.137-6.696C19.544 10.107 20 9.424 20 8.63c0-.796-.456-1.48-1.191-1.784z" transform="translate(-1276 -477) translate(996 100) translate(280 377) translate(11 11)"/>
                    </g>
                </g>
            </g>
        </g>
    </g>
</svg>
