<svg xmlns="http://www.w3.org/2000/svg" width="22" height="16" viewBox="0 0 22 16">
    <path fill="#FFF" d="M3.25.25C2.29.25 1.5 1.04 1.5 2v10.25H.453c-.258.024-.454.241-.453.5v1c0 1.1.9 2 2 2h18c1.1 0 2-.9 2-2v-1c0-.276-.224-.5-.5-.5h-1V2c0-.96-.79-1.75-1.75-1.75H3.25zm0 1h15.5c.424 0 .75.326.75.75v10.25h-17V2c0-.424.326-.75.75-.75zm9.044 2.253c.064.009.124.035.174.077l3.41 2.813c.077.064.122.158.122.258s-.045.194-.122.258l-3.41 2.813c-.102.083-.242.1-.36.046-.12-.055-.196-.173-.198-.303V8.238c-.111.003-.127 0-.306.015-.367.03-.865.091-1.428.214-1.124.246-2.501.74-3.613 1.702-.116.098-.283.108-.41.025-.127-.083-.183-.24-.137-.384.956-2.915 3.835-4.103 5.894-4.651V3.84c0-.097.041-.19.114-.255.074-.064.172-.095.27-.082zm.298 1.054v.858c0 .154-.105.289-.256.327-1.675.42-3.921 1.273-5.116 3.14.953-.558 1.952-.889 2.807-1.076.598-.13 1.128-.193 1.52-.225.394-.032.625-.033.722-.028.181.01.323.158.323.337v.855l2.54-2.092-2.54-2.096zM1 13.25h20v.5c0 .563-.437 1-1 1H2c-.563 0-1-.437-1-1v-.5z"/>
</svg>
