<svg xmlns="http://www.w3.org/2000/svg" width="22" height="16" viewBox="0 0 22 16">
    <path fill="#FFF" d="M18.75.25c.96 0 1.75.79 1.75 1.75v10.25h1c.276 0 .5.224.5.5v1c0 1.1-.9 2-2 2H2c-1.1 0-2-.9-2-2v-1c-.001-.259.195-.476.453-.5H1.5V2c0-.96.79-1.75 1.75-1.75zm2.25 13H1v.5c0 .563.437 1 1 1h18c.563 0 1-.437 1-1v-.5zm-2.25-12H3.25c-.424 0-.75.326-.75.75v10.25h17V2c0-.424-.326-.75-.75-.75zM7.074 2.544l5.008 5.008h.002l.508.51.374.374.48.479 1.76 1.76c.146.147.146.385 0 .531-.146.146-.384.146-.53 0L6.544 3.074c-.146-.146-.146-.384 0-.53.146-.146.384-.146.53 0zm1.977 3.744l.504.505c-.904.497-1.747 1.17-2.335 2.089.953-.558 1.952-.889 2.807-1.076.156-.034.308-.064.453-.09l.592.594c-.268.036-.571.086-.896.157-1.124.246-2.501.74-3.613 1.702-.116.098-.283.108-.41.025-.127-.083-.183-.24-.137-.384.55-1.676 1.735-2.781 3.035-3.522zm2.859 2.859l.567.567-.01.008c-.1.083-.24.1-.36.046-.119-.055-.195-.173-.197-.303v-.318zm.384-5.644c.064.009.124.035.174.077l3.41 2.813c.077.064.122.158.122.258s-.045.194-.122.258l-2.045 1.687-.479-.479 1.778-1.464-2.54-2.096v.858c0 .154-.105.289-.256.327-.332.083-.687.184-1.051.306l-.531-.531c.4-.144.791-.261 1.156-.358V3.84c0-.097.041-.19.114-.255.074-.064.172-.095.27-.082z"/>
</svg>
