<svg xmlns="http://www.w3.org/2000/svg" width="30" height="30" viewBox="0 0 30 30">
    <g fill="none" fill-rule="evenodd" stroke="#25D9BB">
        <rect width="18" height="16" x="6" y="7" stroke-width="2" rx="2.222"/>
        <path fill="#25D9BB" d="M15.848 14.786l-2.183-2.303a.257.257 0 0 1 .017-.373l.029-.025a.28.28 0 0 1 .383.013.257.257 0 0 1 .02-.369l.029-.025a.28.28 0 0 1 .386.017l2.183 2.303-2.183-2.303a.257.257 0 0 1 .017-.373l.03-.025a.28.28 0 0 1 .385.017l2.184 2.303.077-.068 10.682-9.501a.3.3 0 0 1 .413.018l.4.422c.11.115.101.293-.018.399L14.266 17.72a.3.3 0 0 1-.414-.018l-.597-.63-2.183-2.304a.257.257 0 0 1 .017-.373l.028-.025a.28.28 0 0 1 .387.017l2.183 2.304-2.183-2.304a.257.257 0 0 1 .017-.373l.029-.025a.28.28 0 0 1 .382.013.257.257 0 0 1 .021-.369l.029-.025a.28.28 0 0 1 .386.017l.396.417-.396-.417a.257.257 0 0 1 .017-.373l.03-.025a.28.28 0 0 1 .385.017l1.27 1.34-1.27-1.34a.257.257 0 0 1 .018-.373l.028-.025a.28.28 0 0 1 .385.015.257.257 0 0 1 .019-.37l.028-.026a.28.28 0 0 1 .387.017l2.183 2.303zm-.432.381l-.435-.459.003.84.432-.38zM14.12 16.31l-1.129-1.19 1.128 1.19zm2.16-1.905l-1.347-1.42 1.347 1.42z"/>
    </g>
</svg>
