<svg xmlns="http://www.w3.org/2000/svg" width="24" height="24" viewBox="0 0 24 24">
    <g fill="none" fill-rule="evenodd">
        <g>
            <g>
                <path d="M0 0H24V24H0z" transform="translate(-10 -10) translate(10 10)"/>
                <g fill-rule="nonzero" stroke="#CCD5D9" stroke-dasharray="0 0" stroke-width="1.754">
                    <path d="M.113 4.886c.073-.13.179-.24.307-.319L7.893 0l7.473 4.567c.128.079.234.188.307.32.074.13.113.277.113.428v8.717c0 .232-.093.456-.257.62-.164.164-.388.257-.62.257H.877c-.233 0-.456-.093-.62-.257-.165-.164-.257-.388-.257-.62V5.315c0-.15.039-.298.113-.429z" transform="translate(-10 -10) translate(10 10) translate(4 5)"/>
                    <path stroke-linecap="round" d="M0 5.7l7.893 4.824L15.786 5.7" transform="translate(-10 -10) translate(10 10) translate(4 5)"/>
                </g>
            </g>
        </g>
    </g>
</svg>
