<svg xmlns="http://www.w3.org/2000/svg" width="24" height="24" viewBox="0 0 24 24">
    <g fill="none" fill-rule="evenodd">
        <g>
            <g>
                <g>
                    <g>
                        <g>
                            <g>
                                <path d="M0 0H24V24H0z" transform="translate(-1187 -291) translate(791 85) translate(0 94) translate(30 40) translate(0 64) translate(366 8)"/>
                                <path fill="#CCD5D9" d="M13.77 15.278c0-.965-.79-1.754-1.754-1.754-.965 0-1.754.79-1.754 1.754 0 .965.79 1.754 1.754 1.754.965 0 1.754-.79 1.754-1.754zm2.63-6.14V7.386C16.4 4.965 14.437 3 12.017 3 9.596 3 7.63 4.964 7.63 7.385h1.666c0-1.5 1.22-2.719 2.719-2.719 1.5 0 2.719 1.22 2.719 2.719v1.754H6.754c-.965 0-1.754.79-1.754 1.754v8.77c0 .965.79 1.754 1.754 1.754h10.524c.965 0 1.754-.79 1.754-1.754v-8.77c0-.965-.79-1.754-1.754-1.754H16.4zM6.755 19.664v-8.77h10.524v8.77H6.754z" transform="translate(-1187 -291) translate(791 85) translate(0 94) translate(30 40) translate(0 64) translate(366 8)"/>
                            </g>
                        </g>
                    </g>
                </g>
            </g>
        </g>
    </g>
</svg>
