<svg xmlns="http://www.w3.org/2000/svg" xmlns:xlink="http://www.w3.org/1999/xlink" width="626" height="442" viewBox="0 0 626 442">
    <defs>
        <path id="34f6zclala" d="M0 0H626V442H0z"/>
    </defs>
    <g fill="none" fill-rule="evenodd">
        <g>
            <g transform="translate(-104 -173) translate(104 173)">
                <mask id="5gqrda4b0b" fill="#fff">
                    <use xlink:href="#34f6zclala"/>
                </mask>
                <path fill="#E4F6FE" d="M537.832 209.42c-53.452-26.447-98.313-51.303-180.524-163.643-45.616-62.333-192.952-73.407-239.939 46.15-21.681 55.165-1.845 87.461 23.759 134.827 25.606 47.367-52.949 78.388-29.806 149.395 28.073 86.136 125.745 69.162 213.642 52.189 47.949-9.26 92.99-18.518 122.237-11.041 167.416 42.804 206.96-150.315 90.631-207.876" mask="url(#5gqrda4b0b)"/>
                <g mask="url(#5gqrda4b0b)">
                    <g>
                        <g>
                            <path fill="#0074A3" d="M542.195 144.764L527.214 144.764 527.214 162.491 509.486 162.491 509.486 177.473 527.214 177.473 527.214 195.2 542.195 195.2 542.195 177.473 559.922 177.473 559.922 162.491 542.195 162.491 542.195 144.764" transform="translate(10 20)"/>
                            <path fill="#E5757B" d="M33.403 94.879L18.42 94.879 18.42 112.605 0.693 112.605 0.693 127.588 18.42 127.588 18.42 145.315 33.403 145.315 33.403 127.588 51.129 127.588 51.129 112.605 33.403 112.605 33.403 94.879" transform="translate(10 20)"/>
                            <path fill="#0074A3" d="M593.344 110.61L581.848 110.61 581.848 99.113 572.132 99.113 572.132 110.61 560.635 110.61 560.635 120.326 572.132 120.326 572.132 131.823 581.848 131.823 581.848 120.326 593.344 120.326 593.344 110.61" transform="translate(10 20)"/>
                            <path fill="#E5757B" d="M76.754 128.96L67.037 128.96 67.037 140.456 55.541 140.456 55.541 150.172 67.037 150.172 67.037 161.669 76.754 161.669 76.754 150.172 88.25 150.172 88.25 140.456 76.754 140.456 76.754 128.96" transform="translate(10 20)"/>
                            <path fill="#0074A3" d="M154.556 105.577c-2.155 0-3.902 1.747-3.902 3.902 0 2.155 1.747 3.902 3.902 3.902 2.156 0 3.902-1.747 3.902-3.902 0-2.155-1.746-3.902-3.902-3.902" transform="translate(10 20)"/>
                            <path fill="#83B4D6" d="M367.955 101.675c-2.155 0-3.902 1.747-3.902 3.902 0 2.155 1.747 3.902 3.902 3.902 2.155 0 3.903-1.747 3.903-3.902 0-2.155-1.748-3.902-3.903-3.902" transform="translate(10 20)"/>
                            <path fill="#0074A3" d="M259.195 77.765c-3.697 0-6.692 2.996-6.692 6.693 0 3.695 2.995 6.691 6.692 6.691 3.696 0 6.691-2.996 6.691-6.691 0-3.697-2.995-6.693-6.691-6.693M518.63 118.495c0-3.696-2.997-6.692-6.693-6.692-3.695 0-6.691 2.996-6.691 6.692s2.996 6.692 6.691 6.692c3.696 0 6.692-2.996 6.692-6.692" transform="translate(10 20)"/>
                            <path fill="#132529" d="M486.222 378.874H111.378V147.377c0-7.453 6.041-13.495 13.494-13.495H472.73c7.452 0 13.493 6.042 13.493 13.495v231.497" transform="translate(10 20)"/>
                            <path fill="#F7F8F9" d="M129.378 360.874L468.222 360.874 468.222 151.882 129.378 151.882z" transform="translate(10 20)"/>
                            <path fill="#E5EAEB" d="M468.222 328.19c-31.513-15.51-64.864-65.296-104.17-65.565-46.861-.322-112.02 104.205-153.13 23.406-28.122-55.273-62.578-85.07-81.544-98.383v173.226h338.844V328.19" opacity=".3" transform="translate(10 20)"/>
                            <path fill="#334F55" d="M534.267 371.95v9.161c0 11.196-9.072 20.27-20.268 20.27H83.601c-11.196 0-20.268-9.074-20.268-20.27v-9.162h209.664c1.548 4.05 5.472 6.922 10.062 6.922h31.482c2.979 0 5.67-1.206 7.614-3.16 1.062-1.053 1.899-2.33 2.448-3.762h209.664" transform="translate(10 20)"/>
                            <path fill="#0D0206" d="M95.942 372.85h177.055v-.9h-.9c0 4.321 3.503 7.823 7.824 7.824h37.745c1.208-.005 2.27-.557 3.183-1.276 1.37-1.088 2.48-2.614 3.283-3.877.799-1.262 1.274-2.264 1.284-2.286l-.813-.386v.9h53.014c.496 0 .9-.402.9-.9 0-.497-.404-.9-.9-.9h-53.584l-.244.515-.031.066c-.171.349-1.022 2.021-2.21 3.555-.592.767-1.269 1.497-1.95 2.005-.687.515-1.35.788-1.932.784H279.92c-1.666-.001-3.166-.673-4.26-1.765-1.09-1.093-1.763-2.593-1.764-4.26v-.9H95.942c-.498 0-.9.404-.9.9 0 .498.402.9.9.9" transform="translate(10 20)"/>
                            <path fill="#F7F8F9" d="M465.39.61h107.156c4.037 0 7.31 3.272 7.31 7.31v71.234c0 4.038-3.273 7.31-7.31 7.31h-75.793c-.928 1.866-1.958 3.621-3.12 5.201-2.64 3.642-5.72 6.502-8.888 8.828-3.19 2.304-6.476 4.111-9.808 5.55-3.35 1.444-6.647 2.543-10.154 3.341-.59.13-1.243-.029-1.707-.482-.73-.716-.742-1.888-.027-2.618l.11-.114c2.201-2.247 4.272-4.808 5.987-7.384 1.733-2.583 3.139-5.277 4.127-7.91.553-1.503.951-2.988 1.192-4.411h-9.074c-4.038 0-7.31-3.273-7.31-7.31V7.92c0-4.038 3.272-7.31 7.31-7.31" transform="translate(10 20)"/>
                            <path fill="#E5757B" d="M475.359 27.509L563.449 27.509 563.449 21.892 475.359 21.892zM475.359 40.217L563.449 40.217 563.449 34.6 475.359 34.6zM475.359 52.925L563.449 52.925 563.449 47.308 475.359 47.308zM475.359 65.632L563.449 65.632 563.449 60.016 475.359 60.016z" transform="translate(10 20)"/>
                            <path fill="#F7F8F9" d="M115.16 238.862H8.003c-4.038 0-7.311 3.275-7.311 7.311v71.235c0 4.037 3.273 7.31 7.31 7.31h75.794c.928 1.865 1.958 3.62 3.12 5.2 2.64 3.643 5.72 6.503 8.887 8.83 3.192 2.302 6.477 4.11 9.808 5.55 3.35 1.442 6.648 2.542 10.156 3.34.59.129 1.243-.03 1.705-.482.731-.716.744-1.888.028-2.62l-.11-.113c-2.202-2.247-4.272-4.807-5.987-7.384-1.734-2.583-3.138-5.276-4.128-7.91-.551-1.502-.95-2.987-1.19-4.41h9.073c4.038 0 7.311-3.274 7.311-7.31v-71.236c0-4.036-3.273-7.31-7.31-7.31" transform="translate(10 20)"/>
                            <path fill="#0074A3" d="M19.286 264.19L107.377 264.19 107.377 258.574 19.286 258.574zM19.286 276.898L107.377 276.898 107.377 271.282 19.286 271.282zM19.286 289.606L107.377 289.606 107.377 283.989 19.286 283.989zM19.286 302.313L107.377 302.313 107.377 296.697 19.286 296.697z" transform="translate(10 20)"/>
                            <path fill="#FFFFFE" d="M242.148 274.006c-.127-1.528-22.733-14.277-22.733-14.277v-44.841c0-2.519-2.042-4.56-4.56-4.56h-67.334c-2.518 0-4.56 2.041-4.56 4.56v55.554c0 2.518 2.042 4.56 4.56 4.56h67.334c.085 0 .164-.021.248-.026 9.308-.182 27.162.435 27.045-.97" transform="translate(10 20)"/>
                            <path fill="#E5757B" d="M182.496 265.07l-17.78-17.792-1.558-1.557c-4.92-4.908-4.92-12.873 0-17.792 2.455-2.455 5.67-3.681 8.885-3.681 3.227 0 6.442 1.226 8.897 3.68l1.556 1.557 1.557-1.556c2.465-2.455 5.68-3.681 8.896-3.681 3.227 0 6.441 1.226 8.896 3.68 4.908 4.92 4.908 12.885 0 17.793l-19.35 19.349z" transform="translate(10 20)"/>
                            <path fill="#FFF" d="M155.941 244.464h10.416c.418 0 .78-.285.876-.693l1.368-5.793 6.252 11.961c.17.328.522.516.89.478.367-.038.672-.293.773-.649l3.394-11.946 4.72 8.916c.157.297.47.482.805.478.336-.003.644-.196.795-.495l4.218-8.405 3.162 4.66c.167.247.447.396.745.396h13.665c.496 0 .9-.404.9-.9 0-.498-.403-.9-.9-.9h-13.188l-3.756-5.535c-.179-.264-.486-.413-.803-.393-.318.021-.602.21-.746.494l-4.122 8.215-4.953-9.353c-.171-.324-.525-.513-.89-.474-.364.038-.67.296-.77.648l-3.39 11.93-6.325-12.1c-.174-.333-.538-.523-.91-.477-.372.047-.677.322-.763.687l-1.76 7.45h-9.703c-.498 0-.9.404-.9.9 0 .498.403.9.9.9" transform="translate(10 20)"/>
                        </g>
                        <g>
                            <path fill="#132529" d="M208.404 33.174c.135-4.705-4.217-8.34-8.597-10.063-4.378-1.724-9.247-2.374-13.152-5.002-3.457-2.327-5.78-5.956-8.707-8.923-7.179-7.277-18.387-10.294-28.25-7.604-9.862 2.69-17.986 10.983-20.474 20.897-1.682 6.7-.534 14.622 4.747 19.075 6.13 5.168 15.218 4.02 23.073 2.412 7.854-1.607 16.744-3.193 23.302 1.42 3.955 2.78 6.22 7.306 8.639 11.493 2.418 4.187 5.451 8.463 10.023 10.038 4.572 1.573 10.78-1.145 10.958-5.976" transform="translate(10 20) matrix(-1 0 0 1 521.1 4.5)"/>
                            <path fill="#132529" d="M208.088 35.756c-.519 3.944 2.336 7.474 5.176 10.258 2.84 2.785 6.05 5.736 6.551 9.683.586 4.608-2.779 9.147-1.802 13.689.619 2.883 2.862 5.104 4.221 7.72 1.91 3.675 2.008 8.119.837 12.091-1.17 3.971-3.036 12.84-5.797 15.926-7.633 8.535-19.789 15.9-30.948 18.464-11.16 2.563-22.752 2.579-34.181 1.876-9.356-.576-20.115-.146-27.912-13.018-4.038-6.665-6.038-15.53-8.184-23.023-1.85-6.452-3.446-13.36-1.526-19.791 1.12-3.747 3.374-7.077 4.478-10.828 1.378-4.686.875-9.698 1.43-14.551 1.201-10.506 7.723-20.266 16.968-25.398 9.246-5.132 20.978-5.502 30.53-.962" transform="translate(10 20) matrix(-1 0 0 1 521.1 4.5)"/>
                            <path fill="#F1AD92" d="M124.908 51.924c.876-13.425 9.809-29.882 23.186-28.437L189.85 34.14c4.064.438 7.115 3.914 7.025 8l-4.694 100.739c.1.021.19.042.29.062 0 0-9.517 28.415-37.13 19.735-5.474-1.721-7.974-7.71-9.06-13.87l-.283.035-.028-2.11c-.911-7.109-.165-13.833-.165-13.833-.077-8.134-.069-11.47-.074-11.394 0 0-17.15-2.887-20.654-25.277-1.742-11.136-1.143-29.386-.17-44.303" transform="translate(10 20) matrix(-1 0 0 1 521.1 4.5)"/>
                            <path fill="#132529" d="M131.633 65.415c-.057 1.515 1.18 2.814 2.762 2.901 1.579.089 2.907-1.064 2.964-2.582.058-1.515-1.179-2.814-2.758-2.903-1.582-.088-2.912 1.067-2.968 2.584M128.846 61.428c.355.375 2.533-1.229 5.622-1.215 3.086-.029 5.35 1.565 5.685 1.187.166-.166-.196-.842-1.181-1.564-.97-.717-2.627-1.417-4.55-1.413-1.925.006-3.545.711-4.476 1.434-.951.727-1.275 1.403-1.1 1.571M161.996 65.415c-.057 1.515 1.18 2.814 2.762 2.901 1.579.089 2.907-1.065 2.965-2.58.056-1.516-1.18-2.816-2.759-2.905-1.582-.088-2.911 1.067-2.968 2.584M159.208 62.07c.356.377 2.537-1.228 5.623-1.213 3.086-.03 5.35 1.565 5.686 1.187.164-.166-.193-.843-1.182-1.564-.97-.718-2.625-1.417-4.55-1.414-1.924.007-3.544.712-4.477 1.435-.948.726-1.274 1.402-1.1 1.57M147.948 84.955c.014-.175-1.905-.51-5.016-.916-.788-.083-1.534-.242-1.666-.78-.185-.571.147-1.42.531-2.337l2.346-6.001c3.258-8.544 5.62-15.572 5.275-15.7-.346-.128-3.268 6.694-6.526 15.239-.784 2.107-1.534 4.115-2.248 6.037-.3.895-.816 1.911-.416 3.095.212.59.79 1.018 1.294 1.156.505.155.95.165 1.34.189 3.131.176 5.073.193 5.086.018" transform="translate(10 20) matrix(-1 0 0 1 521.1 4.5)"/>
                            <path fill="#EA8E6C" d="M145.732 121.504s15.056 1.005 29.994-7.93c0 0-7.57 15.478-29.968 13.335l-.026-5.405" transform="translate(10 20) matrix(-1 0 0 1 521.1 4.5)"/>
                            <path fill="#132529" d="M157.83 56.66c.303.84 3.389.45 7.011.894 3.633.373 6.552 1.439 7.035.687.216-.36-.292-1.151-1.472-1.967-1.168-.814-3.036-1.59-5.212-1.837-2.175-.243-4.168.099-5.488.632-1.332.534-2.004 1.193-1.873 1.591M130.001 52.49c.541.703 2.672-.02 5.23-.05 2.558-.117 4.726.483 5.226-.25.22-.356-.121-1.058-1.066-1.726-.931-.663-2.49-1.207-4.25-1.159-1.758.052-3.283.685-4.174 1.401-.906.72-1.204 1.44-.966 1.784" transform="translate(10 20) matrix(-1 0 0 1 521.1 4.5)"/>
                            <path fill="#132529" d="M205.48 107.782c-6.156 1.24-12.86-.651-17.459-4.927-4.6-4.275-6.974-10.824-6.186-17.053.695-5.498 3.659-11.09 1.754-16.294-2.52-6.88-12.164-8.996-14.723-15.861-1.487-3.99-.152-8.657-1.838-12.567-1.585-3.676-5.454-5.794-9.219-7.156-3.765-1.36-7.803-2.3-10.964-4.759-3.161-2.457-5.132-7.094-3.093-10.54 16.698 2 33.156 6 48.911 11.884 3.653 1.364 7.49 3.004 9.65 6.251 2.285 3.437 2.176 7.875 1.983 11.997l-2.814 60.294" transform="translate(10 20) matrix(-1 0 0 1 521.1 4.5)"/>
                            <path fill="#334F55" d="M204.075 115.477c.012.013.133-.066.362-.231.271-.208.598-.456.996-.758.865-.679 2.137-1.686 3.708-3.072 1.56-1.391 3.44-3.159 5.262-5.538 1.804-2.36 3.576-5.436 4.185-9.214.669-3.676.178-8.304-2.885-11.778-1.51-1.702-3.447-2.977-5.217-4.447-1.798-1.438-3.292-3.268-4.067-5.547-1.656-4.565-.918-9.848-1.557-15.248-.708-5.372-2.628-10.92-6.346-15.422-1.856-2.228-4.084-4.156-6.638-5.425-2.54-1.34-5.291-1.893-7.833-2.644-2.566-.71-4.92-1.77-6.874-3.387-1.967-1.583-3.576-3.514-4.988-5.502-2.812-3.993-4.891-8.248-7.569-11.796-1.333-1.773-2.782-3.386-4.411-4.683-1.63-1.298-3.417-2.255-5.23-2.85-3.611-1.231-7.426-.823-9.941.992-2.483 1.89-3.393 4.612-3.53 6.702-.106 2.151.622 3.765 1.346 4.61.354.435.67.717.913.873.227.172.346.251.356.237.01-.014-.09-.12-.292-.314-.218-.178-.503-.477-.82-.917-.648-.853-1.277-2.411-1.121-4.463.183-1.994 1.13-4.573 3.469-6.28 2.361-1.643 5.963-1.999 9.399-.78 1.725.588 3.43 1.525 4.974 2.78 1.549 1.259 2.944 2.837 4.233 4.579 2.595 3.49 4.633 7.735 7.483 11.833 1.431 2.035 3.081 4.04 5.14 5.71 2.035 1.705 4.588 2.86 7.192 3.58 2.594.77 5.268 1.32 7.658 2.59 2.423 1.207 4.543 3.045 6.325 5.18 3.568 4.316 5.449 9.7 6.149 14.918.651 5.22-.105 10.583 1.662 15.436.825 2.424 2.508 4.45 4.367 5.905 1.834 1.498 3.734 2.737 5.16 4.324 2.871 3.198 3.41 7.564 2.808 11.122-.545 3.646-2.208 6.643-3.94 8.996-1.747 2.366-3.569 4.16-5.08 5.585-1.522 1.42-2.753 2.474-3.576 3.202-.827.725-1.253 1.115-1.232 1.142" transform="translate(10 20) matrix(-1 0 0 1 521.1 4.5)"/>
                            <path fill="#132529" d="M208.162 118.254c4.602-4.448 12.462-.582 16.323 4.521 3.861 5.105 6.598 11.682 12.46 14.249 5.86 2.565 13.487.36 18.407 4.446 6.785 5.636 2.975 18.697 10.31 23.595 2.911 1.944 6.751 1.876 9.864 3.48 7.334 3.78 7.247 14.127 6.114 22.3-1.591 11.47-3.334 23.361-9.664 33.057-6.329 9.698-18.65 16.52-29.61 12.778-10.53-3.595-15.935-14.958-20.219-25.229l-17.78-42.63c-3.428-8.22-6.89-16.566-8.007-25.401-1.117-8.837.385-18.38 6.005-25.29" transform="translate(10 20) matrix(-1 0 0 1 521.1 4.5)"/>
                            <path fill="#5DA5A4" d="M211.113 108.453c3.344-.403 5.894 3.693 5.015 6.945-.88 3.252-4.001 5.42-7.182 6.53-1.778.623-3.699 1.005-5.548.642-1.848-.363-3.606-1.592-4.2-3.379-.624-1.881-.142-3.15 1.538-4.2 2.2-1.375 3.49-2.456 5.224-3.413 2.656-1.464 2.498-1.661 5.153-3.125" transform="translate(10 20) matrix(-1 0 0 1 521.1 4.5)"/>
                            <path fill="#73C5C4" d="M134.181 144.472L147.169 134.631 196.1 131.503 198.068 138.065 182.152 237.386 194.709 355.881 126.445 355.881 134.181 144.472" transform="translate(10 20) matrix(-1 0 0 1 521.1 4.5)"/>
                            <path fill="#A2A5A2" d="M129.479 355.903v-.022h.012c-.005.007-.008.015-.012.022" transform="translate(10 20) matrix(-1 0 0 1 521.1 4.5)"/>
                            <path fill="#5DA5A4" d="M129.49 355.88h-.011l1.308-48.402c8.629.19 17.357.735 26.078 1.26l3.332 1.625 8.4.742-.226-1.716c3.947.197 7.884.357 11.8.444 2.282.048 4.843 2.343 6.403 4.01 1.412 1.506 1.547 3.91.733 5.807-.812 1.898-2.416 3.354-4.147 4.48-4.336 2.822-9.59 3.864-14.795 3.864-.85 0-1.699-.028-2.542-.08-6.006-.374-11.872-1.899-17.775-3.065-1.037-.205-2.119-.395-3.174-.395-.9 0-1.78.138-2.596.52-3.133 1.47-3.71 5.573-4.16 9.005-1.029 7.849-4.721 15.015-8.627 21.902" transform="translate(10 20) matrix(-1 0 0 1 521.1 4.5)"/>
                            <path fill="#73C5C4" d="M144.766 146.475l-1.513-14.202c-.267-2.501 1.567-4.736 4.073-4.962l45.044-4.07c1.22-.11 2.281.83 2.318 2.053l.508 16.897-13.044 22.134-13.409 4.266H152.35l-9.43-10.069 1.846-12.047" transform="translate(10 20) matrix(-1 0 0 1 521.1 4.5)"/>
                            <path fill="#132529" d="M188.546 136.772c-.01.047-.646-.067-1.801-.183-1.156-.113-2.838-.206-4.91-.085-2.072.12-4.524.463-7.212 1.038-2.69.565-5.614 1.358-8.713 2.112-3.097.751-6.093 1.365-8.869 1.578-2.77.224-5.308.024-7.352-.496-2.052-.502-3.598-1.282-4.59-1.907-.493-.319-.858-.593-1.095-.791-.235-.202-.351-.313-.34-.328.03-.04.54.36 1.548.93 1.011.559 2.547 1.268 4.567 1.71 2.014.46 4.493.614 7.22.366 2.728-.238 5.692-.86 8.78-1.61 3.087-.75 6.024-1.53 8.74-2.07 2.712-.553 5.2-.86 7.298-.929 2.098-.071 3.798.084 4.955.264.578.095 1.026.181 1.324.26.299.074.453.122.45.141" transform="translate(10 20) matrix(-1 0 0 1 521.1 4.5)"/>
                            <path fill="#5DA5A4" d="M152.929 151.206c-2.193 0-4.38-.678-5.882-2.238-2.394-2.487-2.413-6.472-1.284-9.747.969.535 2.285 1.114 3.926 1.515 1.486.378 3.23.587 5.136.587.717 0 1.458-.03 2.216-.091 2.776-.213 5.772-.827 8.87-1.578 3.098-.754 6.021-1.547 8.712-2.112 2.688-.575 5.14-.919 7.212-1.038.36-.02.706-.035 1.042-.044.095.008.191.017.286.027.204.02.418.048.584.168.374.272.291.896-.04 1.218-.334.324-.814.427-1.266.528-7.045 1.565-13.346 5.387-19.547 9.076-2.471 1.472-5.01 2.955-7.83 3.518-.697.14-1.416.211-2.135.211m1.535-10.373c-1.73 0-3.315-.172-4.685-.484-.994-.218-1.871-.499-2.626-.796 2.157.642 4.387.899 6.643.899 3.617 0 7.3-.661 10.843-1.457 4.327-.971 8.69-2.138 13.082-2.514-1.023.143-2.094.328-3.202.555-2.716.54-5.653 1.32-8.74 2.07-3.088.75-6.052 1.372-8.78 1.61-.872.08-1.72.117-2.535.117" transform="translate(10 20) matrix(-1 0 0 1 521.1 4.5)"/>
                            <path fill="#051317" d="M154.825 141.323c-1.906 0-3.65-.21-5.136-.587-1.64-.4-2.957-.98-3.926-1.515.026-.073.05-.145.077-.217l.276.208c.345.124.69.238 1.037.341.755.297 1.632.578 2.626.796 1.37.312 2.954.484 4.685.484.815 0 1.663-.038 2.534-.117 2.73-.238 5.693-.86 8.78-1.61 3.088-.75 6.025-1.53 8.741-2.07 1.108-.227 2.18-.412 3.202-.555.925-.08 1.85-.123 2.776-.123.793 0 1.586.03 2.38.102-.336.009-.682.024-1.042.044-2.072.12-4.524.463-7.212 1.038-2.69.565-5.614 1.358-8.713 2.112-3.097.751-6.093 1.365-8.869 1.578-.758.061-1.499.091-2.216.091" transform="translate(10 20) matrix(-1 0 0 1 521.1 4.5)"/>
                            <path fill="#132529" d="M154.445 126.855c.045.08-.876.298-1.541 1.474-.71 1.141-.673 3.08-.616 5.175.116 4.204.81 7.563.645 7.597-.071.017-.337-.805-.61-2.172-.273-1.364-.534-3.28-.597-5.408-.023-1.065-.035-2.072.061-3.01.097-.935.363-1.787.779-2.392.407-.608.9-.97 1.271-1.132.372-.165.602-.164.608-.132M166.348 139.202c-.176-.018.227-3.114-.323-6.875-.519-3.767-1.766-6.629-1.602-6.695.064-.028.458.65.921 1.83.464 1.177.964 2.867 1.238 4.785.27 1.92.26 3.682.142 4.942-.116 1.262-.307 2.023-.376 2.013M180.849 124.44c.055-.028.466.571.857 1.674.395 1.095.707 2.714.591 4.503-.122 1.791-.646 3.354-1.181 4.388-.535 1.04-1.021 1.582-1.073 1.544-.163-.078 1.493-2.5 1.693-5.968.26-3.465-1.06-6.084-.887-6.14" transform="translate(10 20) matrix(-1 0 0 1 521.1 4.5)"/>
                            <path fill="#E5EAEB" d="M143.727 137.239L117.692 150.859 111.547 171.051 106.072 229.573 116.379 298.185 98.3 355.671 129.479 355.903 130.22 322.204 133.332 213.126 136.392 143.642 143.727 137.239" transform="translate(10 20) matrix(-1 0 0 1 521.1 4.5)"/>
                            <path fill="#132529" d="M131.118 228.165c-.016.01-.182-.27-.484-.812l-1.294-2.388c-.538-1.05-1.061-2.398-1.737-3.932-.321-.776-.583-1.634-.905-2.528-.311-.899-.66-1.843-.92-2.866-2.451-8.082-4.072-19.756-3.732-32.632.035-.997.072-1.983.14-2.965l.012-.17.16-.067 4.557-1.915-.066.47c-1.565-1.256-3.086-2.479-4.55-3.656l-.095-.077-.006-.11c-.212-4.853.967-9.219 2.074-13.02 1.146-3.808 2.4-7.09 3.498-9.787 1.103-2.696 2.06-4.806 2.744-6.24.342-.715.613-1.265.805-1.631.189-.367.298-.553.312-.547.014.007-.066.207-.229.586l-.723 1.667c-.633 1.455-1.54 3.584-2.597 6.29-1.05 2.708-2.263 5.993-3.37 9.792-1.072 3.784-2.205 8.144-1.978 12.846l-.1-.188 4.562 3.644.364.29-.43.182c-1.487.626-3.007 1.268-4.555 1.921l.171-.237c-.066.963-.104 1.95-.137 2.94-.34 12.816 1.212 24.44 3.55 32.504.248 1.022.582 1.965.878 2.862.307.894.555 1.754.86 2.528.644 1.537 1.135 2.893 1.641 3.952l1.196 2.428c.269.558.401.857.384.866M110.691 269.147c-.02.004-.106-.287-.252-.847-.153-.612-.357-1.43-.615-2.456-.27-1.066-.578-2.375-.878-3.907-.308-1.53-.7-3.267-1.008-5.21-.341-1.936-.703-4.059-.996-6.354-.347-2.286-.585-4.746-.862-7.332-.467-5.179-.781-10.893-.787-16.897.027-6.003.363-11.718.85-16.896.286-2.586.534-5.044.89-7.329.301-2.294.67-4.416 1.02-6.352.315-1.94.712-3.675 1.026-5.204.306-1.531.62-2.84.894-3.905l.623-2.452c.149-.56.236-.85.255-.846.02.005-.031.305-.145.872-.128.617-.302 1.44-.52 2.475-.24 1.07-.523 2.384-.799 3.919-.284 1.532-.653 3.268-.942 5.21-.323 1.935-.67 4.055-.95 6.346-.336 2.283-.565 4.736-.836 7.316-.456 5.165-.776 10.861-.803 16.848.005 5.985.302 11.682.74 16.849.262 2.579.481 5.033.81 7.317.27 2.29.609 4.412.924 6.349.282 1.942.646 3.68.924 5.213.27 1.537.548 2.85.784 3.923l.512 2.476c.11.568.16.868.141.874M117.733 321.831c.061.032-.378 1.057-1.265 2.62-.886 1.563-2.249 3.652-3.989 5.777-1.743 2.125-3.521 3.873-4.88 5.05-1.359 1.178-2.276 1.808-2.319 1.754-.054-.066.771-.804 2.05-2.046 1.28-1.242 2.99-3.012 4.714-5.114 1.72-2.102 3.12-4.129 4.084-5.628.966-1.498 1.529-2.453 1.605-2.413" transform="translate(10 20) matrix(-1 0 0 1 521.1 4.5)"/>
                            <path fill="#E5EAEB" d="M237.373 149.19c11.123 4.308 19.374 13.857 22.011 25.487 8.515 37.547 23.09 87.489 23.319 103.6.291 20.521-8.681 34.57-20.395 37.159-9.263 2.048-93.229-2.547-93.229-2.547l-3.927-31.284 67.994-10.01-9.311-52.025 9.215-72.054 4.323 1.674" transform="translate(10 20) matrix(-1 0 0 1 521.1 4.5)"/>
                            <path fill="#E5EAEB" d="M233.05 147.516l-18.8-7.683-19.82-11.612-.125 3.396c2.426 4.157 3.263 9.052 2.358 13.78l-16.492 86.04 3.742 62.862 7.673 61.604h59.63l-27.381-64.425 9.665-86.815-.45-57.147" transform="translate(10 20) matrix(-1 0 0 1 521.1 4.5)"/>
                            <path fill="#132529" d="M250.466 315.962c0 .008-.136.028-.406.056l-1.2.116c-1.059.115-2.625.104-4.649.157-4.046.02-9.92-.089-17.226-.326-14.612-.488-34.958-1.466-57.923-2.797l-.231-.014-.03-.23c-.467-3.728-.962-7.659-1.464-11.65l-2.458-19.636-.032-.268.265-.038 51.921-7.548 15.245-2.163c1.764-.24 3.137-.427 4.098-.556l1.062-.132c.238-.027.36-.037.361-.028.003.008-.117.035-.355.078l-1.054.18c-.957.151-2.326.368-4.083.648l-15.222 2.324-51.893 7.74.232-.305 2.471 19.634 1.46 11.65-.26-.244c22.959 1.35 43.3 2.395 57.903 2.982 7.303.287 13.171.453 17.213.496 2.019-.022 3.588.023 4.641-.058l1.202-.064c.271-.01.41-.013.412-.004" transform="translate(10 20) matrix(-1 0 0 1 521.1 4.5)"/>
                            <path fill="#132529" d="M223.29 214.314c.02 0 .07.202.147.578.086.443.194.994.327 1.665l1.125 6.147 3.537 20.306c1.318 7.905 2.509 15.06 3.39 20.335l.964 6.172.234 1.683c.047.387.064.59.044.594-.02.003-.072-.195-.155-.574l-.34-1.665-1.14-6.144c-.94-5.19-2.198-12.37-3.552-20.307-1.353-7.934-2.544-15.124-3.374-20.335l-.95-6.175-.223-1.687c-.042-.39-.054-.593-.034-.593M203.076 134.28c.009-.003.035.069.076.21l.175.628c.136.556.379 1.371.601 2.446.484 2.142 1.047 5.29 1.435 9.26.394 3.969.561 8.759.357 14.127-.183 5.37-.753 11.311-1.563 17.603l-.025.2-.198.038c-1.96.363-4.037.747-6.146 1.14l.21-.38c.349.944.713 1.96.993 3.009 1.999 7.3 1.12 14.682-.702 20.857-1.854 6.23-4.683 11.393-7.22 15.555-2.565 4.161-4.886 7.363-6.479 9.577-.79 1.07-1.413 1.914-1.865 2.529l-.498.648c-.115.144-.177.216-.185.21-.008-.006.04-.088.139-.244.12-.181.268-.405.452-.68l1.778-2.59c1.538-2.25 3.806-5.484 6.318-9.657 2.484-4.171 5.257-9.325 7.063-15.493 1.778-6.12 2.619-13.405.657-20.563-.275-1.031-.632-2.026-.974-2.952l-.117-.32.327-.059c2.11-.39 4.188-.77 6.147-1.131l-.223.235c.82-6.28 1.41-12.2 1.625-17.55.236-5.35.11-10.12-.232-14.077-.338-3.957-.843-7.104-1.267-9.252-.191-1.078-.402-1.899-.507-2.463l-.126-.639c-.025-.145-.033-.22-.026-.222" transform="translate(10 20) matrix(-1 0 0 1 521.1 4.5)"/>
                            <path fill="#345766" d="M203.074 222.536V208.81s.178-3.387-2.673-2.674c-2.853.713-2.317 6.061-2.317 6.061s-.536 20.857.712 20.679c1.248-.178 1.727-1.783 1.727-1.783v-8.021l2.551-.535" transform="translate(10 20) matrix(-1 0 0 1 521.1 4.5)"/>
                            <path fill="#132529" d="M214.94 223.39c0 .156-3.293.281-7.355.281-4.06 0-7.353-.125-7.353-.28 0-.156 3.293-.281 7.353-.281 4.062 0 7.354.125 7.354.28M242.1 157.332c.012.042-.543.228-1.538.57-.987.364-2.408.91-4.08 1.765-3.324 1.691-7.663 4.763-11.032 9.403-.855 1.143-1.575 2.342-2.169 3.531-.55 1.22-.998 2.438-1.305 3.636-.65 2.386-.93 4.617-1.095 6.486-.16 1.874-.19 3.399-.203 4.45-.01 1.055 0 1.638-.039 1.641-.037.003-.123-.578-.179-1.636-.055-1.055-.085-2.59.025-4.483.114-1.89.355-4.15.99-6.591.3-1.224.748-2.478 1.308-3.737.611-1.243 1.344-2.465 2.213-3.63 3.433-4.73 7.897-7.805 11.31-9.425 1.715-.822 3.174-1.316 4.19-1.619 1.022-.279 1.596-.394 1.604-.36M.068 271.453L98.3 307.836 181.106 320.494 82.653 272.498.068 271.453" transform="translate(10 20) matrix(-1 0 0 1 521.1 4.5)"/>
                            <path fill="#F1AD92" d="M42.108 310.684c-.78-5.233-2.565-10.313-5.232-14.884-.521-.895-1.085-1.788-1.339-2.794-.255-1.005-.146-2.167.555-2.932 1.262-1.373 3.566-.761 5.115.275 3.209 2.148 5.356 5.611 6.615 9.26 1.26 3.65 1.715 7.521 2.163 11.355" transform="translate(10 20) matrix(-1 0 0 1 521.1 4.5)"/>
                            <path fill="#F1AD92" d="M80.394 301.33h-4.885c-.968-1.023-2.452-1.937-4.283-2.46-1.126-.322-2.234.277-3.232 1.257 2.183-3.597 4.538-7.557 4.99-8.643.879-2.109-1.055-3.691-4.22-3.691-3.164 0-17.053 19.692-17.053 19.692s8.631-15.839 9.467-18.258c2.091-6.048-4.52-6.5-6.922-3.581-2.98 3.621-15.028 21.839-15.028 21.839s-2.286 3.691-.703 7.208c1.583 3.515 6.153 2.109 6.153 2.109s-.035 3.075 3.224 4.888c3.527 1.96 8.17-.313 8.17-.313l17.967 4.039s2.851-.286 6.503-.65c9.1-.904 16.422-7.884 17.758-16.93l-17.906-6.505" transform="translate(10 20) matrix(-1 0 0 1 521.1 4.5)"/>
                            <path fill="#EA8E6C" d="M68.285 299.854c.2.124-2.188 3.886-5.293 8.395-1.553 2.259-2.99 4.28-4.055 5.726-1.063 1.447-1.755 2.318-1.818 2.274-.065-.044.512-.997 1.491-2.5.98-1.505 2.365-3.562 3.918-5.818 1.552-2.256 2.977-4.286 4.02-5.745l1.246-1.72c.307-.41.448-.6.49-.612M67.21 319.9c-.073-.04.526-1.177 1.593-2.943 1.06-1.77 2.576-4.185 4.237-6.853.826-1.337 1.624-2.61 2.277-3.787.681-1.132.635-2.377.395-3.334-.526-1.958-1.632-2.794-1.534-2.862.02-.022.3.15.7.583.39.436.902 1.147 1.217 2.172.312.993.406 2.417-.318 3.68-.646 1.225-1.43 2.502-2.259 3.844-1.665 2.676-3.232 5.056-4.38 6.771-1.152 1.712-1.865 2.764-1.929 2.73" transform="translate(10 20) matrix(-1 0 0 1 521.1 4.5)"/>
                            <path fill="#EA8E6C" d="M76.657 321.69c-.073-.022.228-1.127.956-2.804l1.284-2.929c.466-1.1 1.002-2.315 1.319-3.626.32-1.273.104-2.64-.569-3.511-.324-.432-.814-.688-1.283-.916-.464-.215-.928-.361-1.339-.373-.807.04-1.488.484-1.935.676-.456.227-.72.336-.74.301-.017-.033.206-.204.63-.49.215-.142.478-.313.806-.485.333-.16.707-.376 1.236-.4.504-.011 1.018.132 1.531.345.494.216 1.072.487 1.498 1.015.83 1.037 1.058 2.55.713 3.963-.338 1.395-.896 2.61-1.394 3.713-.508 1.097-.995 2.067-1.395 2.884-.817 1.626-1.242 2.66-1.318 2.637M79.967 304.684c.013-.031.29.035.765.232.475.196 1.137.549 1.878 1.103 1.472 1.083 3.231 3.167 3.864 5.975.621 2.81-.085 5.445-.958 7.051-.434.818-.883 1.418-1.23 1.797-.347.38-.57.558-.594.535-.08-.066.72-.884 1.468-2.507.75-1.594 1.35-4.104.766-6.753-.597-2.647-2.208-4.665-3.566-5.788-1.367-1.15-2.438-1.55-2.393-1.645M48.327 294.356c.129.087-1.692 3.001-4.067 6.51-2.375 3.51-4.404 6.283-4.533 6.195-.13-.086 1.693-3.001 4.068-6.51 2.374-3.509 4.404-6.283 4.532-6.195" transform="translate(10 20) matrix(-1 0 0 1 521.1 4.5)"/>
                            <path fill="#F1AD92" d="M164.857 282.78l-11.23-2.547-10.783-10.158c-1.311-1.235-3.014-1.967-4.812-2.07l-19.625-1.13c-1.957-.113-3.884.53-5.382 1.794l-14.033 11.856 61.205 29.838 8.4.742-3.74-28.325" transform="translate(10 20) matrix(-1 0 0 1 521.1 4.5)"/>
                            <path fill="#EA8E6C" d="M131.588 277.536c-.016.09-1.455-.177-3.781-.472-2.29-.252-5.657-.571-8.887.923-1.61.719-2.99 1.729-4.236 2.646-1.241.932-2.355 1.796-3.339 2.458-.98.666-1.825 1.133-2.426 1.412-.607.271-.956.386-.97.353-.039-.085 1.294-.679 3.166-2.09.943-.695 2.022-1.585 3.254-2.545 1.24-.947 2.639-1.995 4.318-2.746 1.668-.789 3.44-1.072 5.013-1.12 1.583-.046 2.993.13 4.163.316 1.169.19 2.1.404 2.742.56.64.16.99.267.983.305M135.612 288.463c-.037.09-.804-.263-2.117-.401-1.304-.152-3.157.005-5.048.703-1.895.699-3.475 1.677-4.621 2.37-1.145.704-1.864 1.134-1.91 1.067-.042-.06.593-.603 1.69-1.398 1.097-.78 2.676-1.84 4.648-2.567 1.975-.73 3.943-.834 5.297-.57 1.367.253 2.092.748 2.061.796M160.872 290.277c-.137.085-1.72-2.26-3.805-5.048-2.078-2.795-3.872-4.982-3.752-5.09.11-.1 2.109 1.935 4.203 4.754 2.101 2.811 3.483 5.308 3.354 5.384" transform="translate(10 20) matrix(-1 0 0 1 521.1 4.5)"/>
                            <path fill="#E0565F" d="M129.967 268.035l24.88-23.173c1.074-1.001.992-2.73-.173-3.623-.908-.697-2.182-.648-3.033.115l-29.175 26.165 7.5.516" transform="translate(10 20) matrix(-1 0 0 1 521.1 4.5)"/>
                            <path fill="#345766" d="M129.967 268.035l-7.5-.516 29.174-26.165c.45-.403 1.017-.607 1.586-.607.508 0 1.018.163 1.447.492.615.471.928 1.175.929 1.88.002.634-.249 1.27-.756 1.743l-24.88 23.173" transform="translate(10 20) matrix(-1 0 0 1 521.1 4.5)"/>
                        </g>
                    </g>
                </g>
            </g>
        </g>
    </g>
</svg>
