<svg xmlns="http://www.w3.org/2000/svg" xmlns:xlink="http://www.w3.org/1999/xlink" width="1368" height="642" viewBox="0 0 1368 642">
    <defs>
        <path id="540lm13gga" d="M0.399 0.48H1366.399V640.48H0.399z"/>
        <path id="ozalzjtepc" d="M0 0H29V16H0z"/>
    </defs>
    <g fill="none" fill-rule="evenodd">
        <g>
            <g transform="translate(1 61) translate(-.4 -60.48)">
                <mask id="rs10ax3l4b" fill="#fff">
                    <use xlink:href="#540lm13gga"/>
                </mask>
                <g mask="url(#rs10ax3l4b)">
                    <g>
                        <path fill="#F7F8F9" d="M250.45 591.43c163.58-13.667 201.546-201.869 260.413-296.202C558.485 218.913 661 329.112 661 235.413 661 80.778 520.654 32 345.404 32S28.085 157.356 28.085 311.99c0 60.278-2.285 74.333 16.832 119.92 29.925 71.36 99.075 168.414 205.533 159.52z" transform="translate(-99 -193) rotate(-6 344.5 312)"/>
                        <path fill="#0074A3" d="M1515.606 289.401c2.792-22.812-10.74-53.132-24.77-65.652-25.33-22.603-46.372-18.232-62.739-10.136-16.367 8.097-18.705 35.125-30.006 47.354-11.3 12.229-17.728 28.678-.583 45.051 17.146 16.375 30.978 8.055 48.904 7.017 6.741-.39 14.309.523 21.812 1.436 12.449 1.514 24.72 3.028 32.744-1.407 8.98-4.964 13.403-13.58 14.638-23.663" opacity=".04" transform="translate(-99 -193) rotate(28 1451.475 261.565)"/>
                        <g transform="translate(-99 -193) translate(177.551 441.48)">
                            <circle cx="1241.849" cy="14" r="14" stroke="#0074A3" stroke-width="3" opacity=".3"/>
                            <path stroke="#8ABD38" stroke-width="2" d="M652.5 136.534l11.45 11.313c.786.777.793 2.043.017 2.829-.33.334-.768.541-1.236.585l-13.212 1.238c-1.1.103-2.075-.705-2.178-1.805-.014-.155-.01-.31.01-.464l1.763-12.552c.154-1.093 1.165-1.856 2.259-1.702.426.06.822.255 1.128.558z" opacity=".5"/>
                            <path stroke="#0074A3" stroke-width="2" d="M5.5 280.534l11.45 11.313c.786.777.793 2.043.017 2.829-.33.334-.768.541-1.236.585L2.519 296.5c-1.1.103-2.075-.705-2.178-1.805-.014-.155-.01-.31.01-.464l1.763-12.552c.154-1.093 1.165-1.856 2.259-1.702.426.06.822.255 1.128.558z" opacity=".5"/>
                            <g transform="rotate(-52 648.224 -432.71)">
                                <mask id="yc7kaxc77d" fill="#fff">
                                    <use xlink:href="#ozalzjtepc"/>
                                </mask>
                                <circle cx="14.5" cy="1.5" r="12.5" stroke="#0074A3" stroke-width="3" mask="url(#yc7kaxc77d)" opacity=".3"/>
                            </g>
                        </g>
                    </g>
                </g>
            </g>
        </g>
    </g>
</svg>
