<svg xmlns="http://www.w3.org/2000/svg" xmlns:xlink="http://www.w3.org/1999/xlink" width="601" height="464" viewBox="0 0 601 464">
    <defs>
        <path id="28gas4nrza" d="M0 0H626V464H0z"/>
    </defs>
    <g fill="none" fill-rule="evenodd">
        <g>
            <g transform="translate(-118 -113) translate(104 113)">
                <mask id="wtu93xeckb" fill="#fff">
                    <use xlink:href="#28gas4nrza"/>
                </mask>
                <g mask="url(#wtu93xeckb)">
                    <g>
                        <path fill="#E4F6FE" d="M483.832 230.42c-53.452-26.447-98.313-51.303-180.524-163.643C257.692 4.444 110.356-6.63 63.369 112.927c-21.681 55.165-1.845 87.461 23.759 134.827 25.606 47.367-52.949 78.388-29.806 149.395 28.073 86.136 125.745 69.162 213.642 52.189 47.949-9.26 92.99-18.518 122.237-11.041 167.416 42.804 206.96-150.315 90.631-207.876" transform="translate(11)"/>
                        <g>
                            <g>
                                <path fill="#002A3B" d="M66.374 7.14H27.857L26.04 2.23C25.547.89 24.27 0 22.841 0H3.414C1.529 0 0 1.529 0 3.413v46.403c0 2.606 2.114 4.72 4.722 4.72h61.652c2.607 0 4.721-2.114 4.721-4.72V11.86c0-2.608-2.114-4.721-4.72-4.721" transform="translate(11) translate(527 105)"/>
                                <path fill="#0074A3" d="M71.615 7.14H33.097l-1.814-4.91C30.787.89 29.51 0 28.08 0H8.654C6.77 0 5.242 1.529 5.242 3.413v46.403c0 2.606 2.113 4.72 4.72 4.72h61.653c2.607 0 4.72-2.114 4.72-4.72V11.86c0-2.608-2.113-4.721-4.72-4.721" transform="translate(11) translate(527 105)"/>
                                <path fill="#FFFFFE" d="M51.342 26.207L45.128 26.207 45.128 19.992 36.449 19.992 36.449 26.207 30.234 26.207 30.234 34.886 36.449 34.886 36.449 41.1 45.128 41.1 45.128 34.886 51.342 34.886 51.342 26.207" transform="translate(11) translate(527 105)"/>
                            </g>
                            <g>
                                <path fill="#F7F8F9" d="M409.895 26.003L371.608 42.456 360.518 16.65 398.805 0.197 409.895 26.003" transform="translate(11) translate(39 113)"/>
                                <path fill="#E5EAEB" d="M399.061.454c.012.006-.061.177-.209.497l-.665 1.392-2.509 5.093-8.424 16.78-.069.138-.151-.041-.361-.099-18.335-5.091-5.545-1.585-1.503-.449c-.342-.107-.52-.169-.516-.182.003-.012.188.025.537.108.383.097.888.223 1.521.381l5.576 1.469 18.366 4.983.361.1-.219.097 8.525-16.729 2.616-5.039.727-1.36c.17-.309.265-.469.277-.463" transform="translate(11) translate(39 113)"/>
                                <path fill="#E5EAEB" d="M371.864 42.714c-.1-.03 1.258-4.805 3.035-10.663 1.776-5.86 3.297-10.585 3.397-10.555.1.031-1.259 4.804-3.036 10.664-1.775 5.859-3.297 10.584-3.396 10.554M400.608 20.817c5.321 2.915 9.593 5.352 9.543 5.444-.05.091-4.404-2.197-9.725-5.113-5.319-2.914-9.593-5.352-9.542-5.444.05-.091 4.404 2.198 9.724 5.113z" transform="translate(11) translate(39 113)"/>
                                <path fill="#334F55" d="M385.822 344.088H30.439c-8.045 0-14.567-6.523-14.567-14.568V104.378c0-8.046 6.522-14.568 14.567-14.568h355.383c8.044 0 14.567 6.522 14.567 14.568V329.52c0 8.045-6.523 14.568-14.567 14.568" transform="translate(11) translate(39 113)"/>
                                <path fill="#334F55" d="M399.641 349.915H18.642c-9.829 0-17.798-7.969-17.798-17.798v-4.451h416.595v4.451c0 9.829-7.968 17.798-17.798 17.798" transform="translate(11) translate(39 113)"/>
                                <path fill="#132529" d="M26.194 314.646L388.992 314.646 388.992 99.913 26.194 99.913zM170.225 325.281L175.394 333.504 248.137 333.504 252.938 325.281 170.225 325.281" transform="translate(11) translate(39 113)"/>
                                <path fill="#E5EAEB" d="M378.993 313.959H36.939c-1.807 0-3.273-1.466-3.273-3.274v-200.23c0-1.807 1.465-3.273 3.273-3.273h342.054c1.807 0 3.273 1.465 3.273 3.273v200.231c0 1.808-1.466 3.273-3.273 3.273" transform="translate(11) translate(39 113)"/>
                                <path fill="#F7F8F9" d="M381.893 314.261L33.293 314.261 33.666 122.635 381.893 122.635 381.893 314.261" transform="translate(11) translate(39 113)"/>
                                <path fill="#132529" d="M62.257 115.168c0 1.537-1.247 2.784-2.785 2.784-1.537 0-2.783-1.247-2.783-2.784 0-1.538 1.246-2.784 2.783-2.784 1.538 0 2.785 1.246 2.785 2.784M45.383 115.168c0 1.537-1.246 2.784-2.784 2.784-1.537 0-2.784-1.247-2.784-2.784 0-1.538 1.247-2.784 2.784-2.784 1.538 0 2.784 1.246 2.784 2.784M53.483 115.168c0 1.537-1.246 2.784-2.784 2.784-1.538 0-2.785-1.247-2.785-2.784 0-1.538 1.247-2.784 2.785-2.784s2.784 1.246 2.784 2.784M397.084 325.281c0 .138-85.344.249-190.596.249-105.29 0-190.616-.111-190.616-.249s85.326-.249 190.616-.249c105.252 0 190.596.111 190.596.249M241.738 156.333c.143.015.204.585.136 1.271-.068.686-.239 1.232-.383 1.219-.142-.013-.204-.582-.135-1.271.068-.688.239-1.234.382-1.219M243.071 146.593c.141.024.09 1.13-.114 2.469-.204 1.34-.485 2.41-.628 2.391-.142-.019-.091-1.124.114-2.469.205-1.345.486-2.415.628-2.391M245.034 136.961c.14.034.015 1.134-.278 2.456-.294 1.322-.645 2.371-.787 2.343-.141-.028-.017-1.127.278-2.456.295-1.328.648-2.378.787-2.343M247.698 127.498c.136.045-.071 1.133-.463 2.428-.392 1.297-.823 2.316-.961 2.278-.139-.039.068-1.126.463-2.428.394-1.303.824-2.323.961-2.278M251.13 118.287c.132.056-.166 1.122-.666 2.38-.501 1.258-1.016 2.238-1.15 2.189-.136-.05.163-1.116.666-2.381.503-1.265 1.018-2.245 1.15-2.188M255.39 109.438c.126.069-.272 1.101-.887 2.304-.616 1.204-1.221 2.13-1.35 2.068-.13-.062.267-1.093.886-2.305.62-1.211 1.225-2.137 1.351-2.067M260.53 101.059c.119.083-.4 1.06-1.152 2.185-.722 1.145-1.409 2.013-1.532 1.938-.123-.074.367-1.069 1.096-2.222.757-1.133 1.47-1.983 1.588-1.901M266.586 93.32c.108.095-.506 1.016-1.37 2.057-.864 1.04-1.657 1.812-1.771 1.724-.114-.088.5-1.009 1.371-2.057.87-1.048 1.663-1.82 1.77-1.724M273.515 86.35c.095.108-.624.95-1.606 1.879-.982.93-1.861 1.602-1.963 1.501-.103-.1.616-.942 1.605-1.879s1.869-1.609 1.964-1.501M281.252 80.292c.08.119-.738.863-1.829 1.662-1.091.8-2.047 1.355-2.137 1.243-.088-.113.73-.857 1.829-1.663 1.1-.805 2.057-1.361 2.137-1.242M289.727 75.314c.062.13-.85.757-2.038 1.4-1.19.644-2.213 1.066-2.286.942-.075-.123.837-.75 2.038-1.4 1.199-.649 2.222-1.071 2.286-.942M298.827 71.614c.043.137-.951.622-2.22 1.084-1.271.46-2.344.727-2.4.594-.055-.133.94-.618 2.222-1.084 1.281-.466 2.356-.732 2.398-.594M308.394 69.386c.02.145-1.045.435-2.375.664-1.321.28-2.42.393-2.453.253-.035-.14 1.02-.482 2.356-.764 1.345-.233 2.453-.294 2.472-.153M318.201 68.845c-.004.144-1.104.273-2.454.288-1.35.016-2.452-.089-2.461-.232-.009-.143 1.09-.273 2.455-.288 1.365-.016 2.466.088 2.46.232M327.957 69.995c-.03.141-1.135.08-2.467-.135-1.334-.215-2.402-.506-2.386-.649.015-.142 1.121-.082 2.469.135 1.346.218 2.415.508 2.384.649M337.369 72.804c-.053.134-1.131-.117-2.407-.559-1.275-.443-2.277-.914-2.237-1.052.04-.138 1.118.112 2.408.56 1.289.447 2.291.919 2.236 1.051M346.119 77.265c-.078.121-1.091-.323-2.263-.992-1.173-.669-2.071-1.315-2.006-1.444.063-.129 1.077.315 2.264.992 1.186.677 2.084 1.323 2.005 1.444M353.822 83.348c-.102.102-1.006-.536-2.02-1.425-1.014-.89-1.764-1.703-1.676-1.817.088-.113.992.525 2.02 1.425 1.027.902 1.777 1.715 1.676 1.817M358.68 88.947c-.117.084-.552-.287-.972-.828-.419-.542-.67-1.056-.558-1.148.11-.091.545.279.97.829.426.549.676 1.063.56 1.147M404.924 149.198c-.057.132-1.121-.233-2.377-.817-1.257-.583-2.223-1.161-2.158-1.289.064-.129 1.128.237 2.377.816 1.248.58 2.214 1.158 2.158 1.29M414.365 152.483c-.036.139-1.14-.077-2.466-.482-1.327-.405-2.364-.844-2.316-.979.049-.136 1.154.08 2.467.481 1.313.401 2.35.84 2.315.98M424.226 154.056c-.008.143-1.133.137-2.513-.015-1.381-.152-2.48-.39-2.456-.532.024-.142 1.149-.135 2.513.015 1.363.15 2.463.388 2.456.532M434.209 153.745c.018.142-1.09.343-2.472.448-1.384.104-2.509.071-2.513-.072-.003-.144 1.103-.344 2.474-.448 1.37-.103 2.495-.071 2.511.072M444.031 151.904c.039.139-1.024.519-2.374.849-1.356.29-2.48.38-2.505.243-.027-.146 1.05-.465 2.394-.753 1.332-.325 2.444-.477 2.485-.339M453.313 148.222c.067.127-.901.701-2.163 1.282-1.263.58-2.328.942-2.38.808-.052-.135.916-.708 2.162-1.282 1.246-.572 2.312-.934 2.381-.808M461.596 142.651c.094.107-.685.932-1.796 1.768-1.109.839-2.115 1.361-2.193 1.243-.08-.122.785-.831 1.88-1.658 1.095-.826 2.014-1.463 2.109-1.353M468.397 135.35c.116.081-.442 1.071-1.328 2.143-.885 1.075-1.748 1.811-1.851 1.713-.105-.1.577-.986 1.449-2.044.873-1.056 1.611-1.896 1.73-1.812M473.082 126.55c.134.046-.127 1.153-.696 2.425-.567 1.274-1.215 2.208-1.338 2.139-.129-.07.305-1.1.862-2.351.559-1.25 1.035-2.261 1.172-2.213M474.928 116.767c.141 0 .257 1.133.113 2.522-.139 1.39-.485 2.477-.623 2.448-.143-.03-.031-1.14.106-2.5.139-1.36.257-2.47.404-2.47M473.488 106.911c.133-.044.592.996.901 2.356.312 1.36.348 2.497.208 2.515-.145.02-.409-1.065-.716-2.399-.302-1.334-.533-2.427-.393-2.472M469.14 97.945c.115-.083.865.773 1.565 1.979.703 1.205 1.077 2.279.95 2.338-.133.063-.709-.894-1.4-2.076-.686-1.184-1.234-2.157-1.115-2.241M462.201 90.812c.08-.117 1.078.435 2.131 1.351 1.057.914 1.746 1.82 1.644 1.915-.107.101-.951-.628-1.985-1.521-1.03-.897-1.874-1.625-1.79-1.745M453.134 86.751c.025-.138 1.165-.034 2.495.406 1.331.437 2.31 1.028 2.249 1.155-.062.134-1.115-.235-2.412-.66-1.295-.43-2.361-.757-2.332-.901M443.217 86.916c-.038-.136 1.032-.546 2.423-.725 1.39-.184 2.528-.066 2.527.074 0 .148-1.108.263-2.46.442-1.352.174-2.452.351-2.49.209M434.599 91.741c-.105-.091.583-1.021 1.71-1.869 1.123-.852 2.194-1.273 2.257-1.15.069.132-.862.744-1.943 1.565-1.086.816-1.915 1.555-2.024 1.454M430.643 100.714c-.138-.006-.194-1.158.143-2.528.332-1.373.925-2.367 1.05-2.305.135.062-.226 1.111-.544 2.429-.324 1.316-.501 2.413-.649 2.404M432.594 110.409c-.122.067-.758-.891-1.217-2.22-.463-1.329-.554-2.474-.417-2.498.146-.028.46 1.041.909 2.327.444 1.288.857 2.323.725 2.391M439.13 117.847c-.077.116-1.085-.424-2.134-1.354-1.052-.927-1.708-1.867-1.6-1.958.111-.096.922.667 1.945 1.568 1.02.904 1.873 1.622 1.789 1.744M448.206 121.914c-.032.137-1.16-.01-2.48-.462-1.322-.448-2.304-1.027-2.244-1.155.06-.133 1.117.223 2.412.663 1.293.443 2.346.812 2.312.954M458.129 122.858c.009.142-1.112.326-2.505.295-1.393-.027-2.506-.26-2.49-.401.015-.145 1.132-.146 2.501-.12 1.369.031 2.485.081 2.494.226M467.928 121.043c.046.134-.987.603-2.335.945-1.349.346-2.48.426-2.504.287-.025-.144 1.048-.451 2.375-.791 1.327-.337 2.418-.58 2.464-.441" transform="translate(11) translate(39 113)"/>
                                <path fill="#132529" d="M476.998 116.888c.075.123-.859.749-2.088 1.399-1.228.649-2.271 1.069-2.331.937-.058-.131.876-.757 2.088-1.398 1.212-.641 2.256-1.06 2.331-.938M485.014 110.931c.098.106-.693.907-1.767 1.787-1.073.882-2.012 1.501-2.097 1.385-.085-.115.706-.916 1.767-1.787 1.061-.871 2-1.491 2.097-1.385M491.825 103.622c.114.088-.525 1.014-1.426 2.069-.902 1.056-1.718 1.831-1.823 1.732-.104-.099.535-1.026 1.427-2.07.893-1.044 1.708-1.819 1.822-1.731M497.322 95.278c.126.068-.35 1.087-1.065 2.277-.715 1.189-1.392 2.088-1.511 2.009-.12-.08.357-1.1 1.065-2.278.707-1.177 1.385-2.076 1.511-2.008M501.377 86.142c.136.048-.164 1.133-.67 2.424-.495 1.295-1.035 2.285-1.176 2.222-.122-.054.201-1.13.692-2.415.502-1.28 1.019-2.279 1.154-2.231M504.173 76.547c.141.031-.027 1.144-.375 2.485s-.741 2.395-.88 2.354c-.137-.041.03-1.153.376-2.485.345-1.332.739-2.386.879-2.354M505.923 66.705c.143.018.089 1.142-.121 2.51-.21 1.369-.494 2.457-.636 2.432-.141-.026-.087-1.15.121-2.511.209-1.361.494-2.449.636-2.431M506.844 56.749c.145.008.178 1.133.074 2.512-.102 1.38-.302 2.488-.445 2.474-.143-.014-.176-1.138-.073-2.513.101-1.374.3-2.481.444-2.473M218.451 139.856c.142-.024.351.509.466 1.19.115.682.094 1.254-.048 1.277-.141.024-.35-.508-.465-1.19-.116-.681-.094-1.253.047-1.277M216.851 130.099c.141-.022.432 1.052.65 2.399.217 1.347.279 2.458.136 2.482-.142.023-.433-1.051-.65-2.399-.217-1.348-.279-2.459-.136-2.482M215.423 120.317c.143-.019.412 1.061.6 2.411.189 1.351.227 2.463.084 2.484-.142.021-.41-1.058-.599-2.412-.189-1.353-.227-2.465-.085-2.483M214.299 110.494c.143-.013.375 1.076.517 2.431.142 1.356.142 2.469-.001 2.485-.143.017-.374-1.071-.517-2.43-.143-1.36-.142-2.472.001-2.486M213.612 100.632c.144-.006.322 1.093.399 2.453.078 1.361.024 2.472-.12 2.483-.143.01-.322-1.088-.4-2.454-.077-1.365-.023-2.476.121-2.482M213.506 90.743c.144.004.254 1.112.246 2.475-.008 1.364-.131 2.471-.275 2.473-.144.002-.254-1.106-.246-2.476.008-1.369.131-2.476.275-2.472M214.127 80.882c.143.016.167 1.128.054 2.485-.113 1.357-.321 2.45-.465 2.441-.143-.008-.167-1.12-.054-2.485.114-1.363.322-2.457.465-2.441M215.615 71.11c.141.029.063 1.139-.174 2.48-.237 1.34-.544 2.41-.686 2.389-.142-.021-.065-1.131.173-2.48s.546-2.419.687-2.389M218.136 61.555c.136.046-.067 1.141-.455 2.443-.388 1.304-.816 2.331-.955 2.295-.139-.035.064-1.129.455-2.443.392-1.313.818-2.341.955-2.295M221.831 52.391c.13.062-.209 1.122-.757 2.367-.547 1.245-1.1 2.211-1.234 2.157-.134-.053.205-1.113.758-2.367.552-1.254 1.104-2.22 1.233-2.157M226.655 43.766c.12.078-.351 1.087-1.052 2.251-.702 1.165-1.373 2.053-1.498 1.984-.126-.07.344-1.078 1.051-2.252.708-1.175 1.378-2.062 1.499-1.983M232.583 35.861c.109.094-.495 1.029-1.347 2.087-.854 1.059-1.639 1.847-1.754 1.762-.117-.086.487-1.02 1.347-2.089.861-1.067 1.647-1.856 1.754-1.76M189.329 150.801c.144.01.215.578.159 1.269-.056.69-.218 1.24-.361 1.226-.143-.013-.214-.581-.158-1.268.055-.687.217-1.236.36-1.227M189.583 140.632c.144-.004.258 1.135.255 2.544-.004 1.409-.123 2.547-.267 2.543-.144-.004-.257-1.143-.254-2.544.003-1.401.122-2.54.266-2.543M188.891 130.483c.143-.018.364 1.106.493 2.508.129 1.404.118 2.549-.025 2.558-.144.009-.365-1.114-.494-2.51-.128-1.394-.117-2.539.026-2.556M187.195 120.452c.14-.031.474 1.064.744 2.447.271 1.383.376 2.523.234 2.547-.142.023-.475-1.072-.745-2.447-.269-1.374-.373-2.514-.233-2.547M184.431 110.662c.136-.047.587 1.005 1.008 2.351.422 1.346.65 2.468.511 2.506-.138.038-.589-1.014-1.008-2.35-.418-1.337-.647-2.459-.511-2.507M180.542 101.269c.129-.064.703.927 1.282 2.213.579 1.286.94 2.372.807 2.426-.133.055-.707-.936-1.282-2.212-.574-1.277-.935-2.363-.807-2.427M175.491 92.443c.119-.08.838.815 1.595 2.007.722 1.214 1.205 2.255 1.079 2.326-.125.07-.806-.849-1.522-2.053-.751-1.181-1.272-2.199-1.152-2.28M169.26 84.406c.107-.097.926.703 1.83 1.787.903 1.084 1.543 2.033 1.429 2.121-.114.087-.933-.713-1.829-1.788-.896-1.074-1.536-2.024-1.43-2.12M161.956 77.331c.092-.111 1.015.565 2.063 1.51 1.048.945 1.816 1.794 1.715 1.897-.1.103-1.024-.573-2.063-1.51-1.039-.937-1.807-1.786-1.715-1.897M153.706 71.385c.075-.123 1.087.411 2.262 1.193 1.175.783 2.058 1.511 1.973 1.627-.085.117-1.097-.418-2.262-1.193-1.164-.775-2.047-1.503-1.973-1.627M144.646 66.766c.053-.133 1.137.238 2.42.829s2.269 1.174 2.203 1.302c-.067.127-1.15-.243-2.421-.829-1.27-.585-2.256-1.168-2.202-1.302M134.953 63.7c.03-.14 1.16.044 2.524.412 1.364.367 2.433.776 2.388.913-.044.137-1.174-.047-2.524-.411-1.349-.364-2.418-.773-2.388-.914M124.872 62.411c.003-.142 1.151-.201 2.561-.115 1.406.147 2.529.381 2.509.524-.019.143-1.161.141-2.551-.005-1.394-.085-2.522-.259-2.519-.404M114.733 63.109c-.025-.141 1.092-.391 2.496-.557 1.403-.166 2.548-.184 2.556-.041.009.144-1.108.394-2.495.558-1.387.164-2.532.182-2.557.04" transform="translate(11) translate(39 113)"/>
                                <path fill="#09181B" d="M33.339 290.378L33.11 290.075 33.339 290.377 33.339 290.378" transform="translate(11) translate(39 113)"/>
                                <path fill="#BABBB7" d="M33.553 290.66L33.339 290.378 33.339 290.377 33.553 290.66" transform="translate(11) translate(39 113)"/>
                                <path fill="#09181B" d="M33.11 290.075l-.226-.299-1.235-26.688.222 1.289.056 1.11.984 20.305c.069 1.455.136 2.886.199 4.283" transform="translate(11) translate(39 113)"/>
                                <path fill="#FAF9F6" d="M42.448 288.589c-.02.027-.423-.218-1.109-.724-.682-.511-1.656-1.275-2.729-2.372-.533-.551-1.089-1.19-1.586-1.959-.491-.776-.87-1.716-.996-2.751-.129-1.026-.038-2.177.507-3.211.268-.513.661-.982 1.131-1.348.465-.371.981-.649 1.476-.94.493-.29.967-.583 1.331-.96.369-.37.62-.828.766-1.319.29-.992.215-2.045.1-3.024-.125-.989-.265-1.955-.206-2.879.066-.9.294-1.833.928-2.391 1.207-1.051 2.505-1.343 3.369-1.353.911-.006 1.273.466 1.237.464-.025.045-.389-.329-1.231-.262-.8.061-2.053.421-3.117 1.413-.522.479-.706 1.299-.755 2.152-.037.864.111 1.797.25 2.795.129 1.001.232 2.106-.086 3.23-.159.556-.455 1.105-.884 1.536-.423.438-.937.751-1.439 1.048-1.018.566-1.953 1.14-2.419 2.078-.489.909-.59 1.96-.482 2.913.198 1.959 1.38 3.412 2.374 4.516 2.066 2.196 3.636 3.268 3.57 3.348M13.69 319.728c-.06.094-.98-.797-2.876-1.266-.936-.235-2.1-.354-3.365-.181-1.256.158-2.631.604-3.797 1.478-1.182.856-1.974 2.065-2.401 3.25-.421 1.193-.491 2.367-.363 3.317.273 1.931 1.17 2.884 1.062 2.94-.02.018-.249-.196-.561-.665-.321-.461-.673-1.219-.864-2.218-.184-.997-.152-2.248.273-3.532.428-1.273 1.271-2.588 2.544-3.511 1.257-.939 2.724-1.395 4.05-1.536 1.335-.154 2.554.011 3.519.302.968.294 1.694.692 2.142 1.031.449.337.656.571.637.591" transform="translate(11) translate(39 113)"/>
                            </g>
                            <g>
                                <g>
                                    <path fill="#E5EAEB" d="M132.868 113.035L55.433 150.31c-1.198.577-2.637.073-3.214-1.126L.24 41.193c-.577-1.198-.073-2.637 1.125-3.215L78.8.706C80 .13 81.437.633 82.013 1.831l51.981 107.99c.576 1.198.073 2.638-1.126 3.214" transform="translate(11) translate(0 87) translate(3.428 95.617)"/>
                                    <path fill="#FAF9F6" d="M127.884 108.812L55.242 143.778 4.912 39.218 77.554 4.252 127.884 108.812" transform="translate(11) translate(0 87) translate(3.428 95.617)"/>
                                    <path fill="#E5EAEB" d="M39.886 16.93c-1.817.875-4 .11-4.875-1.707-.875-1.818-.11-4 1.707-4.876 1.818-.875 4-.11 4.875 1.707.875 1.818.111 4.001-1.707 4.876zm16.881-.72c-2.963-2.289-6.963-2.706-10.334-1.08l-2.226-4.419c-1.626-3.377-5.68-4.796-9.057-3.17-3.377 1.624-4.797 5.68-3.172 9.056l2.233 4.64-1.547.776c-3.298 1.654-5.4 5.01-5.449 8.7l-.03 2.298L58.81 17.788l-2.044-1.579z" transform="translate(11) translate(0 87) translate(3.428 95.617)"/>
                                    <path fill="#D4D5CF" d="M38.967 41.072c.062.13-4.297 2.358-9.735 4.975-5.44 2.62-9.9 4.636-9.962 4.506-.063-.129 4.295-2.356 9.736-4.975 5.438-2.618 9.898-4.635 9.961-4.506M30.361 49.307c.063.13-2.012 1.257-4.633 2.52-2.62 1.261-4.797 2.178-4.859 2.05-.062-.13 2.012-1.258 4.633-2.52 2.622-1.262 4.797-2.18 4.86-2.05M81.093 36.287c.062.13-12.16 6.142-27.296 13.427-15.14 7.288-27.46 13.09-27.524 12.96-.062-.13 12.157-6.14 27.298-13.429 15.136-7.285 27.46-13.088 27.522-12.958M83.61 41.515c.061.13-12.16 6.142-27.297 13.427-15.14 7.288-27.46 13.09-27.524 12.96-.062-.13 12.157-6.14 27.3-13.429 15.134-7.286 27.458-13.088 27.52-12.958M86.126 46.742c.062.13-12.16 6.142-27.296 13.427-15.14 7.288-27.462 13.09-27.525 12.96-.062-.13 12.158-6.14 27.3-13.429 15.134-7.285 27.458-13.088 27.52-12.958M88.642 51.97c.062.13-12.16 6.141-27.296 13.427-15.14 7.288-27.462 13.09-27.524 12.96-.063-.13 12.157-6.14 27.298-13.429C76.256 57.642 88.58 51.84 88.642 51.97M91.158 57.197c.062.13-12.16 6.142-27.296 13.427-15.14 7.288-27.462 13.09-27.524 12.96-.062-.13 12.157-6.14 27.298-13.429 15.136-7.285 27.46-13.088 27.522-12.958M93.675 62.424c.061.13-12.16 6.142-27.297 13.428-15.14 7.288-27.46 13.09-27.524 12.96-.062-.13 12.157-6.14 27.3-13.429 15.134-7.286 27.457-13.089 27.52-12.959M68.533 80.331c.015.032-.353.248-1.033.61l-2.902 1.49c-2.459 1.235-5.873 2.91-9.656 4.731-3.786 1.822-7.225 3.445-9.725 4.597l-2.973 1.34c-.707.304-1.105.46-1.12.425-.017-.032.352-.247 1.032-.609l2.901-1.488c2.46-1.237 5.873-2.91 9.658-4.734 3.785-1.82 7.223-3.444 9.724-4.595 1.177-.53 2.171-.979 2.973-1.339.707-.306 1.105-.46 1.121-.428M77.183 22.092c.063.13-1.853 1.181-4.277 2.348-2.425 1.167-4.44 2.01-4.503 1.88-.063-.13 1.852-1.182 4.277-2.349 2.425-1.167 4.441-2.008 4.503-1.879M61.557 97.72c.062.13-3.075 1.768-7.007 3.661-3.932 1.892-7.169 3.322-7.232 3.192-.062-.13 3.074-1.768 7.007-3.66 3.931-1.894 7.17-3.323 7.232-3.193M64.316 102.237c.063.13-3.128 1.795-7.125 3.72-3.998 1.923-7.288 3.378-7.35 3.248-.063-.129 3.126-1.794 7.124-3.719 3.997-1.924 7.288-3.379 7.351-3.249M102.507 77.132c.062.13-1.428.975-3.328 1.89-1.9.915-3.492 1.552-3.554 1.422-.063-.13 1.427-.976 3.328-1.89 1.9-.915 3.491-1.552 3.554-1.422M104.8 81.29c.062.13-1.427.976-3.328 1.89-1.9.915-3.49 1.551-3.554 1.422-.062-.13 1.428-.976 3.328-1.89 1.901-.916 3.492-1.553 3.554-1.423M60.07 110.42c.062.13-1.375.95-3.209 1.833-1.835.884-3.374 1.494-3.436 1.365-.062-.13 1.374-.95 3.21-1.834 1.834-.884 3.373-1.494 3.435-1.365M107.436 86.158c.063.13-1.002.772-2.378 1.435-1.377.662-2.543 1.093-2.605.965-.063-.13 1.002-.772 2.38-1.435 1.375-.662 2.541-1.095 2.603-.965M58.404 125.083c-.006-.01.088-.082.276-.212l.843-.56 3.234-2.074 11.608-7.289.228-.143.1.252c.524 1.336.617 2.92.126 4.405-.457 1.48-1.599 2.881-3.195 3.464-1.557.582-3.482.505-4.948-.558-1.49-1.054-2.104-3.088-1.656-4.87.168-.669.488-1.304.956-1.814.112-.133.24-.25.375-.358.13-.11.26-.224.454-.31.178-.09.483-.12.698.023.21.133.31.31.396.46.621 1.161.951 2.436 1.017 3.7.066 1.263-.128 2.52-.57 3.656-.43 1.128-1.109 2.207-2.152 2.85-1.047.673-2.435.536-3.377-.075-.967-.598-1.658-1.512-2.005-2.51-.652-2.02-.242-3.976.032-5.644l.063-.38.255.286c1.194 1.34 1.746 2.926 1.906 4.31.174 1.397-.04 2.615-.335 3.546-.304.938-.71 1.594-1.005 2.013-.152.208-.288.352-.372.452-.087.1-.135.147-.142.141-.069-.039.767-.814 1.325-2.665.257-.917.435-2.104.24-3.45-.182-1.334-.742-2.845-1.888-4.097l.318-.095c-.256 1.671-.614 3.58.012 5.442.32.898.966 1.734 1.831 2.258.857.533 1.997.633 2.893.057.9-.557 1.537-1.548 1.935-2.616.413-1.073.592-2.259.526-3.452-.064-1.192-.382-2.397-.962-3.478-.066-.125-.145-.229-.21-.265-.059-.034-.11-.037-.219.008-.204.106-.468.328-.655.543-.402.441-.685.995-.835 1.59-.4 1.597.155 3.413 1.455 4.327 1.288.944 3.05 1.032 4.466.504 1.444-.52 2.481-1.772 2.917-3.143.463-1.37.387-2.85-.089-4.09l.327.108-11.706 7.131c-1.386.825-2.492 1.485-3.299 1.967l-.879.503c-.2.11-.307.163-.313.152M110.327 99.872c.022.006-.01.337-.167.94-.084.297-.205.67-.453 1.06-.248.386-.66.783-1.255.955-.295.084-.644.094-.974-.032-.329-.122-.61-.368-.83-.649-.435-.577-.73-1.233-1.122-1.907l-2.486-4.535.456-.106-.26 7.417-.07 1.848-.04 1.035-.453-.93-3.756-7.72.415-.04c-.779 2.82-.944 5.273-.952 6.975-.002 1.706.117 2.68.06 2.686-.023.003-.077-.237-.145-.692-.065-.456-.139-1.129-.174-1.99-.069-1.717.032-4.213.781-7.096l.15-.574.265.534 3.821 7.688-.49.105.067-1.849.296-7.415.036-.899.42.793 2.418 4.572c.372.677.673 1.367 1.044 1.883.366.531.938.757 1.45.611 1.055-.282 1.43-1.245 1.63-1.777.202-.575.287-.899.318-.89" transform="translate(11) translate(0 87) translate(3.428 95.617)"/>
                                    <path fill="#D4D5CF" d="M110.22 96.127c.08.12-4.047 3.066-9.217 6.583-5.173 3.517-9.43 6.272-9.51 6.153-.082-.119 4.044-3.066 9.217-6.584 5.17-3.516 9.428-6.27 9.51-6.152M115.29 97.003c.094.11-2.932 2.864-6.758 6.153-3.827 3.29-7.005 5.867-7.098 5.758-.094-.109 2.931-2.863 6.758-6.153 3.826-3.288 7.004-5.867 7.098-5.758" transform="translate(11) translate(0 87) translate(3.428 95.617)"/>
                                </g>
                                <path fill="#E5757B" d="M120.195 102.001L126.798 102.001 126.798 72.411 120.195 72.411z" transform="translate(11) translate(0 87)"/>
                                <path fill="#E5757B" d="M108.702 90.508L138.291 90.508 138.291 83.905 108.702 83.905z" transform="translate(11) translate(0 87)"/>
                                <path fill="#E5757B" d="M148.071 87.277c-.009 0-.025-.135-.047-.399l-.085-1.17-.056-.861c-.035-.315-.104-.656-.161-1.028-.12-.743-.234-1.603-.521-2.539-.439-1.901-1.334-4.145-2.742-6.523-1.418-2.369-3.462-4.841-6.241-6.938-2.771-2.078-6.266-3.845-10.299-4.556-4.006-.687-8.527-.562-12.832 1.075-1.095.351-2.125.893-3.184 1.401-1.003.607-2.06 1.166-2.993 1.925-.993.682-1.86 1.535-2.769 2.355-.82.909-1.683 1.799-2.391 2.83-1.452 2.018-2.721 4.26-3.488 6.725-.795 2.449-1.224 5.051-1.259 7.699.035 2.649.462 5.252 1.258 7.703.766 2.466 2.035 4.708 3.487 6.726.708 1.032 1.571 1.922 2.392 2.831.909.822 1.776 1.674 2.769 2.356.934.76 1.99 1.319 2.993 1.926 1.059.508 2.09 1.05 3.185 1.401 4.306 1.637 8.827 1.763 12.833 1.076 4.033-.713 7.529-2.48 10.299-4.558 2.78-2.098 4.823-4.57 6.241-6.938 1.407-2.378 2.302-4.622 2.741-6.522.287-.936.401-1.797.522-2.54.056-.371.126-.713.16-1.028l.056-.86.085-1.17c.022-.264.038-.399.047-.399.009 0 .011.135.007.4l-.034 1.175-.031.867c-.027.317-.088.662-.137 1.037-.105.75-.205 1.619-.478 2.567-.413 1.923-1.288 4.202-2.688 6.622-1.411 2.41-3.461 4.934-6.268 7.082-2.797 2.128-6.341 3.944-10.443 4.689-4.073.719-8.679.607-13.076-1.049-1.118-.356-2.17-.905-3.252-1.421-1.025-.615-2.103-1.185-3.058-1.957-1.013-.694-1.902-1.562-2.83-2.399-.84-.925-1.721-1.834-2.446-2.885-1.486-2.058-2.782-4.348-3.568-6.866-.815-2.502-1.252-5.161-1.287-7.866.035-2.703.474-5.362 1.288-7.863.787-2.517 2.083-4.806 3.569-6.863.724-1.052 1.606-1.959 2.446-2.885.928-.836 1.815-1.704 2.829-2.398.954-.772 2.033-1.341 3.058-1.956 1.081-.517 2.134-1.066 3.251-1.421 4.397-1.656 9.002-1.768 13.075-1.049 4.101.743 7.645 2.56 10.443 4.688 2.807 2.148 4.857 4.671 6.268 7.081 1.401 2.421 2.276 4.699 2.689 6.623.273.948.373 1.818.477 2.568.05.375.111.719.138 1.037l.031.867.034 1.175c.004.265.002.4-.007.4" transform="translate(11) translate(0 87)"/>
                                <path fill="#FFFFFE" d="M316.419 204.688c-.063-.021-.095-.035-.093-.043.001-.004.012-.006.032-.006.018 0 .045.002.079.005l-.018.044" transform="translate(11) translate(0 87)"/>
                                <path fill="#E7C5BA" d="M219.395 50.444c-.356-.144-14.306-3.803-13.462 10.304.844 14.105 14.832 10.348 14.833 9.942 0-.406-1.371-20.246-1.371-20.246" transform="translate(11) translate(0 87)"/>
                                <path fill="#AC6150" d="M216.137 65.604c-.065-.041-.236.186-.64.402-.394.209-1.083.38-1.834.148-1.523-.458-2.919-2.749-3.14-5.287-.113-1.282.083-2.521.477-3.56.369-1.058.993-1.818 1.736-1.996.736-.218 1.294.2 1.49.586.213.384.14.67.216.69.042.033.289-.254.14-.83-.075-.277-.26-.6-.608-.851-.354-.255-.86-.366-1.38-.278-1.083.141-2.002 1.2-2.436 2.341-.493 1.149-.744 2.543-.617 3.982.261 2.838 1.875 5.41 3.95 5.878 1.007.199 1.817-.15 2.225-.508.416-.374.471-.694.421-.717" transform="translate(11) translate(0 87)"/>
                                <path fill="#132529" d="M254.621.049c7.167 0 14.465 0 23.437 4.685 5.659 2.955 9.187 7.638 12.136 13.299 2.257 4.333 3.595 10.008 3.335 14.887-.26 4.878-.277 8.289-2.226 12.769" transform="translate(11) translate(0 87)"/>
                                <path fill="#E7C5BA" d="M251.755 1.156c21.212-1.481 39.532 14.704 40.642 35.938.924 17.671 1.737 36.785 1.541 46.409-.42 20.656-21.108 23.704-21.108 23.704s.456 6.125.967 13.725c1.027 15.304-10.79 28.441-26.117 29.022-15.027.569-27.666-11.159-28.221-26.186l-3.072-83.257C215.629 20 231.279 2.586 251.755 1.156" transform="translate(11) translate(0 87)"/>
                                <path fill="#AC6150" d="M272.83 107.207s-12.695.66-26.502-8.166c0 0 6.248 15.03 26.877 13.333l-.375-5.167" opacity=".2" transform="translate(11) translate(0 87)"/>
                                <path fill="#132529" d="M284.485 48.588c.043 1.558-1.242 2.879-2.869 2.954-1.623.073-2.976-1.127-3.019-2.685-.043-1.558 1.241-2.881 2.865-2.956 1.627-.075 2.981 1.128 3.023 2.687M287.347 44.411c-.37.382-2.591-1.29-5.766-1.307-3.171-.063-5.514 1.552-5.856 1.16-.168-.172.211-.864 1.231-1.595 1.006-.728 2.714-1.429 4.691-1.405 1.978.027 3.636.768 4.585 1.521.971.756 1.296 1.455 1.115 1.626M253.351 48.588c.042 1.558-1.242 2.879-2.868 2.953-1.624.074-2.977-1.125-3.02-2.684-.043-1.558 1.242-2.881 2.866-2.955 1.626-.076 2.979 1.128 3.022 2.686M256.136 44.754c-.369.382-2.594-1.29-5.766-1.307-3.171-.062-5.515 1.553-5.855 1.161-.167-.174.207-.865 1.231-1.595 1.004-.728 2.713-1.43 4.69-1.406 1.978.027 3.635.768 4.585 1.521.968.757 1.295 1.456 1.115 1.626M267.47 68.39c-.014-.181 1.962-.506 5.164-.889.81-.078 1.579-.233 1.72-.784.196-.585-.136-1.461-.522-2.408-.746-1.967-1.527-4.03-2.348-6.192-3.26-8.815-5.611-16.062-5.256-16.19.357-.128 3.288 6.914 6.546 15.729.784 2.174 1.534 4.246 2.247 6.229.3.923.819 1.972.396 3.184-.223.604-.822 1.039-1.343 1.175-.52.154-.976.159-1.378.181-3.22.147-5.216.145-5.226-.035M257.056 32.32c-.321.859-3.488.425-7.215.845-3.738.344-6.75 1.41-7.238.632-.216-.372.313-1.18 1.534-2.006 1.211-.825 3.137-1.603 5.376-1.833 2.237-.227 4.282.144 5.634.707 1.363.562 2.046 1.245 1.909 1.655M286.901 33.109c-.563.716-2.744-.05-5.375-.105-2.627-.149-4.859.445-5.366-.313-.222-.368.134-1.088 1.113-1.762.964-.673 2.573-1.216 4.379-1.147 1.806.072 3.367.738 4.277 1.483.922.749 1.222 1.494.972 1.844" transform="translate(11) translate(0 87)"/>
                                <path fill="#132529" d="M216.629 46.958s.898 4.776 1.138 6.933c.088.787-.014 9.54 2.111 9.977 1.829.377 5.464-1.288 7.082-4.908 1.618-3.62 4.697-12.306 4.364-16.257-.454-5.389-.705-10.862.372-16.162 1.076-5.299 3.61-10.467 7.869-13.798 4.259-3.331 10.399-4.498 15.232-2.073 2.983 1.497 5.215 4.148 7.995 5.994 2.5 1.661 5.55 2.658 8.519 2.217 2.969-.441 5.775-2.51 6.585-5.4.885-3.153-.74-6.606-3.262-8.694-2.524-2.088-5.785-3.046-8.996-3.684-8.91-1.77-18.354-1.418-26.821 1.872-8.466 3.291-15.977 9.61-19.596 17.941-4.184 9.634-3.697 15.54-2.592 26.042" transform="translate(11) translate(0 87)"/>
                                <path fill="#132529" d="M263.852 48.721c-.08.007.009-1.251-.537-3.402-.54-2.11-1.947-5.211-5.119-7.61-1.571-1.172-3.55-2.166-5.831-2.565-2.265-.384-4.82-.309-7.251.618-1.223.426-2.403 1.07-3.487 1.882-1.097.797-2.092 1.785-2.912 2.93-1.696 2.257-2.651 5.157-2.679 8.146.027 2.989.982 5.89 2.678 8.147.82 1.146 1.815 2.134 2.912 2.931 1.084.813 2.265 1.456 3.488 1.883 2.431.927 4.986 1.002 7.252.618 2.281-.399 4.26-1.394 5.831-2.566 3.172-2.399 4.578-5.5 5.118-7.609.546-2.151.457-3.41.537-3.403.009 0 .014.078.016.228l-.009.67c.001.296-.013.661-.085 1.087-.056.428-.109.926-.262 1.467-.488 2.153-1.866 5.351-5.091 7.853-1.599 1.222-3.626 2.266-5.976 2.697-2.333.416-4.972.355-7.495-.591-1.268-.436-2.494-1.097-3.62-1.934-1.139-.822-2.173-1.843-3.027-3.029-1.763-2.336-2.761-5.348-2.787-8.45.027-3.1 1.025-6.111 2.788-8.447.853-1.185 1.888-2.206 3.027-3.028 1.126-.837 2.351-1.498 3.619-1.933 2.523-.946 5.162-1.007 7.494-.591 2.35.43 4.377 1.474 5.976 2.696 3.226 2.502 4.604 5.699 5.092 7.853.153.542.206 1.039.262 1.467.072.427.086.792.085 1.088l.009.669c-.002.151-.007.228-.016.228M300.216 48.721c-.08.007.008-1.251-.538-3.402-.54-2.11-1.948-5.211-5.119-7.61-1.571-1.172-3.55-2.166-5.831-2.565-2.265-.384-4.821-.309-7.252.618-1.223.426-2.403 1.07-3.487 1.882-1.097.797-2.091 1.785-2.912 2.93-1.695 2.257-2.65 5.157-2.678 8.146.027 2.989.982 5.89 2.677 8.147.821 1.146 1.816 2.134 2.913 2.931 1.084.813 2.264 1.456 3.487 1.883 2.432.927 4.988 1.002 7.252.618 2.282-.399 4.26-1.394 5.831-2.566 3.172-2.399 4.579-5.5 5.119-7.609.546-2.151.458-3.41.538-3.403.008 0 .013.078.014.228l-.007.67c.001.296-.015.661-.085 1.087-.057.428-.111.926-.263 1.467-.488 2.153-1.865 5.351-5.092 7.853-1.598 1.222-3.626 2.266-5.975 2.697-2.333.416-4.972.355-7.495-.591-1.268-.436-2.494-1.097-3.62-1.934-1.138-.822-2.174-1.843-3.028-3.029-1.763-2.336-2.761-5.348-2.786-8.45.026-3.1 1.024-6.111 2.787-8.447.854-1.185 1.889-2.206 3.027-3.028 1.126-.837 2.352-1.498 3.62-1.933 2.522-.946 5.161-1.007 7.494-.591 2.349.43 4.377 1.474 5.975 2.696 3.227 2.502 4.605 5.699 5.093 7.853.152.542.206 1.039.263 1.467.07.427.086.792.085 1.088l.007.669c-.001.151-.006.228-.014.228" transform="translate(11) translate(0 87)"/>
                                <path fill="#132529" d="M272.472 47.223c-.045.072-.508-.186-1.297-.447-.786-.265-1.923-.486-3.182-.406-1.26.087-2.356.457-3.102.824-.747.363-1.17.68-1.225.615-.04-.042.306-.468 1.048-.938.735-.47 1.898-.928 3.244-1.021 1.347-.086 2.559.213 3.35.582.798.368 1.198.744 1.164.791M278.104 12.371c.203-1.071-.149-1.673.453-2.111.689-.5 1.991.814 2.467 1.337.153.167.639-.485.826-.611.152-.101.385-1.189.363-1.37-.089-.747-1.263-.949-1.815-1.457-.552-.51-1.238-.856-1.947-1.105-.618-.218-1.384-.337-1.865.109-.367.342-.429.896-.415 1.398.014.497.083.999.282 1.455.199.455.541.862.994 1.066" transform="translate(11) translate(0 87)"/>
                                <path fill="#E4E4DE" d="M215.86 35.978s10.128 3.714 15.401 5.948l-.297-5.18-14.736-5.828s-.375 3.848-.367 5.06M216.807 27.931c.056-.132 3.266 1.099 7.169 2.749 3.906 1.651 7.025 3.097 6.968 3.229-.055.133-3.265-1.098-7.17-2.749-3.904-1.651-7.023-3.097-6.967-3.229" transform="translate(11) translate(0 87)"/>
                                <path fill="#73C5C4" d="M219.86 137.053l-.783-24.516s4.87 22.436 30.379 22.143c24.379-.279 23.934-19.766 23.934-19.766l.869 9.881v39.915l-15.902 65.113-20.304 2.576-22.443-89.008 4.25-6.338" transform="translate(11) translate(0 87)"/>
                                <path fill="#132529" d="M271.121 129.206c.016.009-.086.188-.294.522-.223.322-.488.846-.967 1.422-.878 1.208-2.374 2.813-4.541 4.395-2.157 1.592-5.06 3.039-8.481 3.983-3.421.93-7.373 1.296-11.444.791-4.06-.545-7.8-1.788-10.991-3.308-3.202-1.512-5.886-3.249-8.028-4.838-2.145-1.59-3.776-3.008-4.863-4.027-.552-.5-.953-.919-1.232-1.194-.276-.279-.414-.432-.402-.445.013-.013.176.114.474.368l1.295 1.119c1.125.97 2.785 2.339 4.944 3.881 2.156 1.541 4.839 3.23 8.015 4.701 3.167 1.479 6.858 2.689 10.856 3.227 3.996.495 7.881.151 11.252-.739 3.371-.903 6.242-2.291 8.392-3.82 2.16-1.519 3.677-3.062 4.595-4.22.93-1.151 1.374-1.848 1.42-1.818" transform="translate(11) translate(0 87)"/>
                                <path fill="#E5EAEB" d="M253.419 338.471l-.368-115.706-32.858-84.446-1.104-25.415-20.021 15.143s-29.152 100.327-29.601 96.848c-.45-3.478-.011 113.576-.011 113.576h83.963" transform="translate(11) translate(0 87)"/>
                                <path fill="#132529" d="M252.63 338.151c-.144 0-.261-26.073-.261-58.227 0-32.166.117-58.234.261-58.234.143 0 .261 26.068.261 58.234 0 32.154-.118 58.227-.261 58.227" transform="translate(11) translate(0 87)"/>
                                <path fill="#D4D5CF" d="M199.361 144.573L203.424 147.649 200.567 166.368 248.531 216.607 204.968 159.403 208.68 144.573 199.361 144.573" transform="translate(11) translate(0 87)"/>
                                <path fill="#E5EAEB" d="M255.218 279.198l-73.607-21.582-2.439-55.91 20.189-73.659s-48.124 24.007-51.398 39.286c-3.274 15.277-11.168 52.418-12.01 79.262-.752 24.001-.861 40.048 4.619 47.709 15.696 21.942 119.136 25.861 160.462-.031" transform="translate(11) translate(0 87)"/>
                                <path fill="#132529" d="M249.456 217.822c-.007.005-.088-.086-.239-.27l-.66-.826c-.592-.756-1.43-1.831-2.501-3.202l-9.119-11.836c-7.674-10.047-18.247-23.885-29.925-39.171l-2.251-2.957-.076-.099.03-.121 3.722-14.828.243.312-9.319-.013h-.239v-.238l.039-16.526.001-.099.078-.059 14.466-10.994 3.971-2.98 1.044-.765c.237-.171.362-.254.368-.247.006.009-.107.108-.332.293l-1.009.811-3.906 3.065-14.361 11.132.078-.157.04 16.526-.238-.237 9.319-.013.321-.001-.078.313-3.703 14.831-.045-.221c.744.977 1.495 1.965 2.252 2.957 11.63 15.321 22.16 29.192 29.803 39.263l8.987 11.936 2.423 3.262.619.856c.137.195.204.297.197.303" transform="translate(11) translate(0 87)"/>
                                <path fill="#E5EAEB" d="M282.27 123.692c-5.872-10.267-8.916-9.199-8.916-9.199l.306 3.66.007 7.69-2.782 32.993-17.834 71.692.368 107.943h67.41l8.392-131.765-.763-56.765-46.188-26.249" transform="translate(11) translate(0 87)"/>
                                <path fill="#E5EAEB" d="M328.458 149.941s17.449 12.882 18.96 33.604c1.227 16.833 4.045 62.92 4.555 72.953.793 15.626-11.374 52.215-43.051 41.849-18.996-6.214-89.183-30.072-89.183-30.072l4.669-29.806 83.306 4.962 1.654-69.481 19.09-24.009" transform="translate(11) translate(0 87)"/>
                                <path fill="#E7C5BA" d="M223.459 241.901s-23.577-2.549-29.039-1.23c-5.247 1.266-12.72 7.685-12.72 7.685l.106 9.317 37.933 10.602 3.72-26.374" transform="translate(11) translate(0 87)"/>
                                <path fill="#132529" d="M253.051 219.751c-.008-.003.027-.113.104-.322l.355-.92 1.41-3.524 5.276-12.921 7.887-19.136c.748-1.792 1.488-3.664 2.414-5.492.89-1.845 1.938-3.653 3.02-5.483 2.219-3.626 4.732-7.242 7.487-10.804 1.36-1.755 2.731-3.464 4.148-5.1l-.046.265-2.937-7.469-.098-.249.252-.085 12.288-4.177-.126.344-13.931-23.261c-1.687-2.822-3.127-5.077-4.655-6.004-.749-.464-1.419-.646-1.863-.755-.448-.107-.685-.148-.682-.165 0 0 .242.006.699.091.453.085 1.14.244 1.924.701.79.452 1.587 1.259 2.364 2.292.777 1.037 1.605 2.266 2.45 3.686l14.1 23.173.151.249-.278.095-12.277 4.211.154-.333 2.947 7.466.057.146-.103.12c-1.402 1.622-2.773 3.33-4.126 5.078-2.745 3.548-5.251 7.148-7.463 10.751-1.078 1.816-2.124 3.611-3.01 5.438-.923 1.81-1.658 3.654-2.416 5.452l-7.991 19.096-5.429 12.858-1.5 3.486-.402.902c-.094.201-.146.304-.154.3M338.03 292.549c.007.006-.093.111-.292.309l-.896.871c-.801.751-2.065 1.779-3.828 2.904-1.787 1.084-4.124 2.197-7.01 2.938-2.879.747-6.312 1.033-10.039.638-1.863-.209-3.79-.62-5.746-1.217-1.956-.623-3.914-1.389-5.985-2.116-4.117-1.494-8.53-3.049-13.177-4.68-9.295-3.255-19.547-6.74-30.346-10.283-21.604-7.096-41.301-13.077-55.578-17.339l-16.919-5.006-4.599-1.366-1.193-.368c-.267-.086-.404-.134-.401-.143.002-.009.143.023.416.092l1.206.317 4.626 1.273c4.014 1.119 9.814 2.766 16.969 4.847 14.304 4.173 34.025 10.1 55.635 17.199 10.803 3.544 21.054 7.044 30.344 10.325 4.643 1.643 9.052 3.214 13.165 4.726 2.058.734 4.041 1.517 5.957 2.138 1.928.6 3.83 1.017 5.669 1.236 3.678.413 7.072.157 9.925-.556 2.861-.705 5.188-1.78 6.976-2.828 1.766-1.09 3.043-2.086 3.862-2.81.395-.351.703-.627.93-.83.211-.185.323-.277.33-.271M181.806 257.84c-.017.108-1.324-.176-3.436-.094-1.055.048-2.305.218-3.643.601-1.33.404-2.743 1.011-4.1 1.87-2.716 1.744-4.58 4.079-5.703 5.861-1.118 1.8-1.599 3.039-1.693 3-.033-.013.067-.329.279-.892.198-.568.574-1.357 1.099-2.299 1.06-1.862 2.931-4.307 5.737-6.109 1.401-.887 2.871-1.503 4.251-1.892 1.388-.372 2.682-.507 3.763-.507 1.08.008 1.953.091 2.541.226.591.117.912.199.905.235M158.618 250.535c-.016-.008.016-.098.094-.263.078-.164.22-.401.463-.654.463-.531 1.39-1.065 2.615-1.299 1.225-.261 2.718-.2 4.323.01 1.611.21 3.361.612 5.128 1.246 3.549 1.252 6.393 3.251 8.133 4.978.868.871 1.493 1.646 1.885 2.207.382.57.577.893.547.913-.083.061-.907-1.217-2.686-2.853-1.773-1.627-4.578-3.527-8.055-4.755-1.731-.621-3.443-1.029-5.019-1.262-1.577-.231-3.014-.325-4.191-.122-1.177.18-2.06.626-2.538 1.081-.489.449-.655.799-.699.773M186.099 186.323c-.036.002-.156-.544-.337-1.518-.148-.474-.366-1.044-.592-1.71-.32-.63-.633-1.375-1.09-2.137-.897-1.539-2.166-3.249-3.752-4.992-1.629-1.7-3.527-3.482-5.749-5.057-4.424-3.184-9.084-5.049-12.569-5.773-1.751-.313-3.184-.54-4.185-.533-.998-.047-1.555-.091-1.557-.127-.002-.035.553-.06 1.561-.075 1.012-.069 2.467.102 4.253.374 3.553.641 8.317 2.484 12.801 5.712 2.253 1.596 4.167 3.413 5.799 5.155 1.589 1.786 2.848 3.545 3.719 5.135.445.787.741 1.559 1.039 2.21.207.691.4 1.281.519 1.772.126 1.011.176 1.562.14 1.564M325.846 271.814c-.009 0-.017-.121-.025-.356-.006-.263-.014-.609-.022-1.046-.029-.918-.065-2.274-.199-4.013-.285-3.463-.877-8.53-2.959-14.41-.517-1.464-1.105-2.994-2.019-4.402-.898-1.415-2.241-2.601-3.9-3.308-3.35-1.442-7.381-1.252-11.481-1.483-8.254-.347-17.323-.729-26.844-1.128-22.18-.965-41.912-1.798-54.307-2.461l.166-.134-1.754 10.672-.487 2.828-.137.727c-.033.162-.053.244-.061.243-.007-.001-.001-.085.017-.249l.093-.733.405-2.84 1.609-10.699.021-.139.145.005 54.313 2.259 26.842 1.169c2.062.104 4.072.152 6.035.312 1.956.171 3.88.495 5.598 1.256 1.725.742 3.146 2.012 4.064 3.484.937 1.464 1.519 3.022 2.029 4.5 2.053 5.939 2.59 11.04 2.815 14.518.103 1.747.106 3.105.1 4.025l-.029 1.047c-.01.236-.019.356-.028.356" transform="translate(11) translate(0 87)"/>
                                <path fill="#132529" d="M309.96 206.596c.143 0 .261 8.07.261 18.021 0 9.954-.118 18.021-.261 18.021-.144 0-.261-8.067-.261-18.021 0-9.951.117-18.021.261-18.021M148.543 165.529s-.062.228-.206.664c-.133.441-.39 1.075-.601 1.951-.486 1.732-1.102 4.32-1.791 7.689-1.393 6.737-3.109 16.596-5.032 28.938-.954 6.173-1.972 12.966-2.973 20.307-.51 3.666-.825 7.49-1.09 11.446-.262 3.956-.474 8.042-.625 12.246-.305 8.407-.483 17.288-.24 26.54.071 2.312.156 4.649.348 6.997.059 1.181.252 2.34.398 3.515.246 1.154.459 2.326.852 3.452.719 2.266 1.807 4.446 3.313 6.333 1.498 1.868 3.456 3.488 5.686 4.379l.033.013.009.005c4.615 2.383 9.668 4.111 14.827 5.663 5.169 1.549 10.509 2.798 15.934 3.913 12.136 2.479 24.173 3.935 35.799 4.359 5.817.177 11.52-.043 17.09-.445 5.569-.385 10.996-.967 16.247-1.746 10.509-1.519 20.31-3.854 29.161-6.778 8.857-2.92 16.738-6.464 23.58-10.118l.025.325-32.348-11.452-8.71-3.11-2.252-.817c-.505-.187-.759-.295-.759-.295s.265.075.777.246l2.269.771c2.004.694 4.945 1.709 8.74 3.022l32.401 11.299.381.132-.355.192c-6.847 3.684-14.741 7.26-23.615 10.208-8.869 2.952-18.693 5.309-29.225 6.847-5.263.788-10.701 1.376-16.282 1.768-5.574.408-11.305.634-17.14.461-11.663-.418-23.724-1.874-35.888-4.358-5.438-1.119-10.791-2.371-15.977-3.927-5.179-1.561-10.248-3.292-14.921-5.709l.041.017c-2.399-.96-4.365-2.617-5.923-4.547-1.55-1.946-2.662-4.183-3.395-6.498-.4-1.152-.617-2.344-.866-3.521-.148-1.192-.342-2.379-.399-3.561-.192-2.361-.275-4.704-.343-7.021-.233-9.271-.041-18.157.279-26.571.16-4.207.379-8.297.65-12.257.274-3.959.599-7.796 1.12-11.471 1.02-7.344 2.059-14.134 3.037-20.305 1.968-12.339 3.735-22.193 5.184-28.924.718-3.367 1.362-5.951 1.878-7.678.226-.872.499-1.506.647-1.941.159-.432.25-.648.25-.648" transform="translate(11) translate(0 87)"/>
                                <path fill="#D4D5CF" d="M181.7 250.929c12.308-13.626 11.767-37.861 4.704-55.055-.652 18.628-2.85 35.145-4.534 53.247" transform="translate(11) translate(0 87)"/>
                                <path fill="#132529" d="M186.429 199.363c.018.002.016.207-.004.597l-.111 1.701-.49 6.249-1.698 20.608-1.615 20.617-.471 6.25c-.06.691-.108 1.252-.148 1.698-.039.387-.068.591-.086.59-.018-.001-.024-.206-.018-.596l.05-1.704c.05-1.481.157-3.619.305-6.263.303-5.285.807-12.582 1.464-20.634.657-8.049 1.325-15.332 1.849-20.599l.657-6.235.208-1.692c.053-.387.09-.588.108-.587M216.773 174.74c.144 0 .261 4.731.261 10.566 0 5.837-.117 10.568-.261 10.568-.144 0-.26-4.731-.26-10.568 0-5.835.116-10.566.26-10.566" transform="translate(11) translate(0 87)"/>
                                <path fill="#D4D5CF" d="M208.755 209.849c.182 2.157 1.109 4.101 2.265 5.605 1.156 1.503 3.508 2.974 5.401 2.865 0 0 4.724.404 7.267-3.645 2.304-3.668 2.872-11.297 1.025-15.808-1.271-3.102-4.125-5.985-7.475-6.064-4.4-.104-7.158 3.075-8.098 6.293" transform="translate(11) translate(0 87)"/>
                                <path fill="#132529" d="M209.14 199.095s.099-.839.814-2.158c.358-.654.877-1.424 1.651-2.164.764-.744 1.815-1.433 3.114-1.829.649-.19 1.353-.323 2.092-.334.735-.037 1.527.05 2.289.301 1.534.494 2.954 1.552 4.084 2.93 1.144 1.37 1.987 3.109 2.402 5 .428 1.886.558 3.89.447 5.925-.204 3.132-.818 6.248-2.552 8.63-.877 1.167-2.076 2.011-3.32 2.503-1.252.498-2.529.69-3.758.633h.03c-1.008.039-1.91-.288-2.693-.668-.782-.396-1.458-.884-2.026-1.412-1.135-1.085-1.758-2.293-2.206-3.287-.433-1.009-.615-1.855-.699-2.429-.039-.288-.06-.51-.063-.659-.005-.149-.002-.227.009-.228.075-.018.073 1.256.975 3.216.466.952 1.123 2.133 2.217 3.133.554.495 1.213.952 1.964 1.318.75.351 1.608.639 2.498.591l.007-.001.023.001c2.254.079 4.994-.789 6.647-3.011 1.614-2.23 2.235-5.294 2.427-8.358.214-3.956-.449-7.942-2.7-10.595-1.073-1.328-2.416-2.341-3.847-2.821-.716-.245-1.44-.335-2.145-.31-.706 0-1.377.116-1.998.286-1.244.354-2.264.989-3.02 1.689-.765.694-1.295 1.426-1.673 2.051-.755 1.26-.932 2.078-.99 2.057" transform="translate(11) translate(0 87)"/>
                                <path fill="#D4D5CF" d="M206.413 210.047c.183 2.156 1.11 4.101 2.266 5.604 1.156 1.504 3.508 2.975 5.401 2.866 0 0 4.725.404 7.268-3.646 2.303-3.668 2.871-11.296 1.023-15.807-1.27-3.101-4.124-5.985-7.475-6.064-4.399-.105-7.157 3.075-8.097 6.292" transform="translate(11) translate(0 87)"/>
                                <path fill="#132529" d="M206.799 199.292s.099-.838.814-2.157c.359-.654.878-1.423 1.651-2.164.764-.745 1.814-1.433 3.114-1.829.648-.19 1.353-.323 2.092-.334.735-.037 1.527.049 2.289.301 1.533.494 2.954 1.552 4.085 2.929 1.144 1.371 1.986 3.11 2.401 5.001.428 1.887.558 3.89.446 5.926-.203 3.131-.818 6.248-2.551 8.63-.877 1.167-2.076 2.01-3.32 2.502-1.253.498-2.53.689-3.758.632l.03.001c-1.008.039-1.91-.288-2.694-.668-.781-.397-1.457-.884-2.025-1.412-1.135-1.085-1.758-2.293-2.206-3.288-.434-1.009-.615-1.853-.699-2.428-.039-.288-.06-.509-.063-.659-.005-.15-.002-.227.008-.228.077-.018.074 1.256.976 3.215.465.954 1.123 2.133 2.216 3.134.555.495 1.214.952 1.965 1.319.749.35 1.609.638 2.498.589h.007l.024.001c2.253.08 4.993-.789 6.646-3.01 1.614-2.232 2.235-5.295 2.426-8.359.215-3.956-.448-7.942-2.699-10.594-1.074-1.329-2.416-2.342-3.848-2.823-.714-.244-1.44-.334-2.144-.309-.706-.001-1.378.116-1.998.286-1.244.354-2.263.989-3.02 1.688-.765.696-1.296 1.427-1.673 2.052-.755 1.26-.932 2.078-.99 2.056" transform="translate(11) translate(0 87)"/>
                                <path fill="#D4D5CF" d="M210.658 198.167c-2.186-.436-4.445 1.066-5.37 3.095-.925 2.028-.72 4.419.012 6.525.372 1.071.886 2.114 1.665 2.939.779.826 1.849 1.417 2.984 1.452 1.664.049 3.16-1.085 4.129-2.441 1.562-2.184 2.092-5.073 1.41-7.671-.457-1.733-1.733-3.511-3.525-3.558" transform="translate(11) translate(0 87)"/>
                                <path fill="#132529" d="M211.963 198.509c0-.015.136-.032.398-.011.259.025.646.117 1.084.367.878.486 1.88 1.69 2.287 3.441.425 1.719.376 3.96-.617 6.122-.498 1.066-1.208 2.131-2.242 2.943-.998.811-2.461 1.334-3.858.924-1.38-.387-2.43-1.412-3.083-2.52-.662-1.12-1.043-2.304-1.285-3.455-.481-2.302-.09-4.581.999-6.041 1.071-1.471 2.514-2.089 3.489-2.218.494-.08.884-.035 1.141-.003.256.054.385.091.382.109-.005.059-.547-.103-1.488.094-.92.181-2.257.824-3.223 2.231-.976 1.384-1.315 3.53-.829 5.731.241 1.098.627 2.247 1.25 3.288.615 1.032 1.574 1.943 2.786 2.282 1.207.352 2.472-.081 3.406-.824.954-.739 1.636-1.736 2.121-2.745.965-2.04 1.055-4.177.692-5.836-.342-1.673-1.244-2.844-2.034-3.35-.803-.522-1.39-.468-1.376-.529" transform="translate(11) translate(0 87)"/>
                                <path fill="#132529" d="M215.702 214.605c-.08.02-.189-.314-.532-.716-.335-.403-.937-.853-1.707-1.094-.777-.242-1.543-.282-2.099-.326-.559-.041-.912-.086-.914-.161-.002-.069.341-.154.911-.208.565-.047 1.383-.072 2.259.198.88.274 1.547.853 1.85 1.378.313.528.292.922.232.929M216.487 196.804c.046.045-.154.358-.619.726-.462.368-1.21.757-2.108.921-.899.161-1.736.058-2.297-.125-.565-.183-.862-.405-.834-.463.053-.145 1.383.394 3.038.075 1.661-.281 2.719-1.251 2.82-1.134M285.2 125.175c.008-.016.121.026.329.121.208.095.515.239.89.46.756.427 1.821 1.114 2.996 2.142 2.36 2.01 5.117 5.568 6.437 10.185 1.381 4.528 2.128 8.776 2.451 11.855.172 1.54.267 2.79.325 3.654.051.864.061 1.343.025 1.346-.035.004-.114-.469-.227-1.326-.129-.958-.292-2.174-.489-3.627-.415-3.059-1.21-7.247-2.585-11.755-1.292-4.514-3.924-8.009-6.183-10.058-2.262-2.085-4.028-2.904-3.969-2.997M272.745 235.251c2.898-.111 5.214-3.001 8.11-2.846 2.149.115 3.983 2.22 3.801 4.364-.182 2.144-2.343 3.91-4.48 3.663-3.043-.353-4.824-3.92-7.809-4.605" transform="translate(11) translate(0 87)"/>
                                <path fill="#132529" d="M297.322 237.72c-.868 0-1.773-.076-2.714-.225l.158-.988c3.583.575 6.59-.015 8.944-1.745 2.96-2.175 4.867-6.067 5.67-11.566l.031-.21c.327-2.179.779-44.95.78-53.07.002-12.684-11.133-14.415-11.607-14.483-.45-.083-10.57-1.773-15.941 12.08-5.622 14.508-14.61 42.465-15.205 45.743-.073.401-.183.898-.311 1.474-.935 4.196-2.879 12.925 2.943 17.953 6.49 5.605 11.61 3.436 11.823 3.342l.411.912c-.24.106-5.888 2.548-12.888-3.498-6.275-5.418-4.242-14.542-3.266-18.927.125-.56.234-1.044.304-1.435.6-3.303 9.62-31.379 15.258-45.925 5.679-14.659 16.922-12.728 17.034-12.705.103.014 12.447 1.903 12.445 15.469-.001 6.689-.444 50.905-.792 53.219l-.03.206c-.842 5.773-2.884 9.887-6.067 12.226-1.95 1.433-4.289 2.153-6.98 2.153" transform="translate(11) translate(0 87)"/>
                                <path fill="#132529" d="M310.691 178.097c-.132.045-.292-2.133-2.082-4.985-.891-1.408-2.206-2.935-3.952-4.279-1.752-1.33-3.945-2.465-6.422-3.035-4.997-1.149-9.745.097-12.66 1.651-2.984 1.553-4.317 3.252-4.4 3.152-.014-.011.065-.117.227-.306.17-.182.392-.483.748-.798.673-.673 1.762-1.539 3.252-2.373 1.487-.836 3.407-1.585 5.635-1.986 2.22-.405 4.763-.444 7.316.153 2.557.589 4.813 1.773 6.597 3.162 1.779 1.403 3.101 2.999 3.974 4.467.867 1.474 1.335 2.792 1.541 3.72.134.457.159.83.202 1.076.033.248.042.379.024.381M336.157 258.042c-.107.023-.278-1.723-1.372-4.266-1.077-2.511-3.246-5.846-6.784-8.139-1.75-1.139-3.716-1.668-5.504-1.986-1.801-.3-3.455-.408-4.843-.503l-3.294-.227c-.777-.072-1.206-.13-1.204-.165.003-.036.435-.046 1.214-.037l3.302.062c1.394.048 3.062.117 4.903.397 1.827.296 3.872.827 5.707 2.02 3.66 2.373 5.831 5.839 6.843 8.437.512 1.312.789 2.42.913 3.195.13.773.148 1.208.119 1.212" transform="translate(11) translate(0 87)"/>
                                <path fill="#E7C5BA" d="M285.715 241.35s9.832-14.894 12.345-16.845c2.514-1.952 23.977-11.642 26.491-10.084 2.513 1.558.966 4.939.966 4.939s9.087-3.183 10.054-1.929c.967 1.255 1.16 3.381 0 5.122 0 0 5.028-.774 5.028.773 0 1.547-.581 3.48-2.901 5.221-2.32 1.74-17.407 11.785-18.617 14.558l-4.887-.297-28.479-1.458" transform="translate(11) translate(0 87)"/>
                                <path fill="#AC6150" d="M314.015 237.092c-.029-.016.118-.357.448-.939.328-.583.862-1.395 1.616-2.329 1.493-1.876 3.988-4.132 7.132-6.004 3.143-1.874 6.216-3.112 8.435-3.964 1.115-.423 2.022-.744 2.654-.956.632-.211.986-.31 1-.277.012.033-.319.197-.927.467l-2.588 1.108c-2.181.937-5.207 2.22-8.306 4.068-3.098 1.847-5.579 4.011-7.119 5.796-1.557 1.777-2.264 3.078-2.345 3.03" transform="translate(11) translate(0 87)"/>
                                <g fill="#AC6150">
                                    <path d="M.54 17.849c-.031-.016.14-.405.476-1.094.339-.688.837-1.68 1.513-2.878.683-1.192 1.536-2.603 2.711-4.013.604-.699 1.214-1.416 2.06-2.041.83-.56 1.703-1.085 2.605-1.621 3.62-2.114 7.035-3.792 9.601-4.788C20.783.903 21.852.581 22.595.38c.754-.169 1.171-.245 1.178-.21.021.088-1.631.47-4.127 1.585-2.507 1.074-5.877 2.794-9.477 4.896-.895.531-1.772 1.055-2.58 1.593-.745.537-1.401 1.269-1.983 1.93-1.166 1.359-2.042 2.731-2.759 3.89l-1.652 2.787c-.391.66-.624 1.016-.655.998" transform="translate(11) translate(0 87) translate(301 219)"/>
                                </g>
                            </g>
                            <g>
                                <path fill="#E5757B" d="M126.758 69.725H14.173C6.344 69.725 0 63.379 0 55.552V14.173C0 6.346 6.344 0 14.173 0h112.585c7.827 0 14.172 6.346 14.172 14.173v41.379c0 7.827-6.345 14.173-14.172 14.173" transform="translate(11) translate(341)"/>
                                <path fill="#FFFFFE" d="M65.971 35.468h3.796l4.051-14.29c.194-.683.823-1.148 1.548-1.1.71.039 1.296.568 1.41 1.27l3.192 19.531 4.26-31.21c.1-.743.733-1.301 1.484-1.311.731-.053 1.397.532 1.517 1.273l4.273 26.18h25.016c.837 0 1.518.681 1.518 1.519 0 .838-.68 1.518-1.518 1.518H90.212c-.744 0-1.378-.54-1.497-1.274L85.866 20.12l-4.259 31.2c-.102.746-.732 1.304-1.483 1.313h-.022c-.741 0-1.377-.539-1.497-1.273l-3.726-22.796-2.505 8.835c-.186.653-.782 1.104-1.46 1.104h-5.333" transform="translate(11) translate(341)"/>
                                <path fill="#FFFFFE" d="M50.465 38.364c-.761 0-1.379-.618-1.379-1.378 0-.762.618-1.378 1.379-1.378H65.97l.26.025c.316-1.973.17-3.192.128-3.46-.665-7.305-5.835-12.606-12.307-12.606-4.312 0-8.259 2.321-10.48 6.039-2.2-3.766-5.987-6.039-10.23-6.039-6.47 0-11.641 5.3-12.305 12.605-.053.323-.266 2.022.388 4.792.942 3.994 3.119 7.627 6.295 10.504l15.841 14.376L59.675 47.47c2.8-2.538 4.82-5.663 5.906-9.106H50.465" transform="translate(11) translate(341)"/>
                                <path fill="#E5757B" d="M10.536 59.357v19.122c0 1.388 1.64 2.126 2.678 1.206l12.777-11.729-15.455-8.6" transform="translate(11) translate(341)"/>
                            </g>
                        </g>
                    </g>
                </g>
            </g>
        </g>
    </g>
</svg>
